<?xml version="1.0" encoding="UTF-8" standalone="no"?>
<!-- Generator: Adobe Illustrator 20.1.0, SVG Export Plug-In . SVG Version: 6.00 Build 0)  -->
<svg id="Layer_1" style="enable-background:new 0 0 300 75" xmlns="http://www.w3.org/2000/svg" xml:space="preserve" viewBox="0 0 300 75" version="1.1" y="0px" x="0px" xmlns:xlink="http://www.w3.org/1999/xlink">
<style type="text/css">
	.st0{fill:#1CBDE4;}
</style>
<path class="st0" d="m91.7 29.1h-8.4c-0.3 0-0.7 0.2-0.8 0.5-0.2 0.4-0.4 0.7-0.4 1s0.2 0.7 0.4 1c0.2 0.4 0.5 0.4 0.8 0.4h4.9c1.4 0 2.4 0.5 3.2 1.5 0.7 0.9 1 2 1 3.4 0 1.3-0.3 2.4-1 3.4-0.9 1-1.9 1.5-3.2 1.5h-8.9v-3.4h8.4c0.3 0 0.7-0.2 0.8-0.5 0.2-0.3 0.4-0.7 0.4-1s-0.2-0.7-0.4-1c-0.2-0.3-0.5-0.3-0.8-0.3h-4.9c-1.4 0-2.4-0.5-3.2-1.5-0.7-0.8-1-2-1-3.2 0-1.4 0.3-2.4 1-3.2 0.9-1 1.9-1.5 3.2-1.5h8.9v2.9zm10.4 6.2h-3.4c-0.8 0-1.5 0.3-1.9 0.8-0.2 0.4-0.3 0.9-0.3 1.5v0.3 3.6h-3.4v-1-1.8-2.4c0-1.2 0.3-2.2 0.8-3 0.7-0.8 1.9-1.3 3.2-1.3h4.2c0.3 0 0.7-0.2 0.9-0.4 0.2-0.3 0.3-0.5 0.3-1 0-0.3-0.2-0.7-0.3-1-0.2-0.3-0.5-0.5-0.9-0.5h-8.3v-3.4h9c1.3 0 2.4 0.5 3.2 1.5 0.7 0.9 1 2 1 3.2 0 1.3-0.4 2.4-1 3.2-0.7 1.2-1.7 1.7-3.1 1.7zm26.6 6.3l-9.9-3.9v3.9h-3.4v-5.2c0-1.2 0.3-2.2 0.8-3 0.7-0.8 1.9-1.3 3.2-1.3h4.2c0.3 0 0.7-0.2 0.8-0.4 0.2-0.3 0.3-0.5 0.3-1 0-0.3-0.2-0.7-0.3-1-0.2-0.3-0.5-0.5-0.8-0.5h-8.4v-3.4h8.9c1.3 0 2.4 0.5 3.2 1.5 0.7 0.9 1 2 1 3.2 0 1.3-0.3 2.4-1 3.2-0.8 1-1.9 1.5-3.2 1.5h-2.1l6.6 2.5 0.1 3.9zm11 0h-5c-1.9 0-3.4-0.8-4.4-2.4-1-1.5-1.5-3.2-1.5-5.4s0.5-3.9 1.5-5.4c1-1.7 2.5-2.5 4.4-2.5h5c1.9 0 3.2 0.8 4.4 2.5 1 1.5 1.5 3.4 1.5 5.5 0 2.2-0.5 3.9-1.4 5.2-1.2 1.6-2.7 2.5-4.5 2.5zm-0.5-3.6c0.8 0 1.5-0.5 2-1.5 0.5-0.9 0.7-1.9 0.7-3.2 0-1.2-0.2-2.2-0.7-3-0.5-0.9-1.2-1.4-2-1.4h-4c-0.9 0-1.5 0.5-2 1.4-0.5 0.8-0.7 1.9-0.7 3 0 1.2 0.2 2.4 0.7 3.2 0.5 1 1.2 1.5 2 1.5h4zm19.7-4.3c0.3 0.3 0.5 0.9 0.7 1.4s0.2 1 0.2 1.7c0 1.3-0.3 2.4-1 3.2-0.9 1-1.9 1.5-3.2 1.5h-8.9v-3.2h8.4c0.3 0 0.7-0.2 0.8-0.5 0.2-0.3 0.3-0.7 0.3-1s-0.2-0.7-0.3-1c-0.2-0.3-0.5-0.5-1-0.5h-8.4v-3.5h8.4c0.3 0 0.7-0.2 0.8-0.3 0.2-0.3 0.3-0.7 0.3-1s-0.2-0.7-0.3-1c-0.2-0.3-0.5-0.5-0.8-0.5h-8.4v-3.4h8.9c1.4 0 2.4 0.5 3.2 1.5 0.7 1 1 2 1 3.4 0 0.5 0 1.2-0.2 1.7 0 0.6-0.2 1.1-0.5 1.5zm12.4 7.9h-5c-1.9 0-3.4-0.8-4.4-2.4-1-1.5-1.5-3.2-1.5-5.4s0.5-3.9 1.5-5.4c1-1.7 2.5-2.5 4.4-2.5h5c1.9 0 3.2 0.8 4.4 2.5 1 1.5 1.5 3.4 1.5 5.5 0 2.2-0.5 3.9-1.3 5.2-1.2 1.6-2.7 2.5-4.6 2.5zm-0.5-3.6c0.9 0 1.5-0.5 2-1.5 0.5-0.9 0.7-1.9 0.7-3.2 0-1.2-0.2-2.2-0.7-3-0.5-0.9-1.2-1.4-2-1.4h-4c-0.8 0-1.5 0.5-2 1.4-0.5 0.8-0.7 1.9-0.7 3 0 1.2 0.2 2.4 0.7 3.2 0.5 1 1.2 1.5 2 1.5h4zm16.6-8.9v-3.4h-10.4v3.4h3.5v12.3h3.4v-12.3h3.5zm4.3 12.5h-3.5v-15.7h3.5v15.7zm14.7 0h-7.6c-1.9 0-3.4-0.8-4.4-2.4-1-1.5-1.5-3.2-1.5-5.4s0.5-3.9 1.5-5.4c1-1.7 2.5-2.5 4.4-2.5h7.6v3.4h-7.1c-0.8 0-1.5 0.5-2 1.4-0.5 0.8-0.7 1.9-0.7 3 0 1.2 0.2 2.4 0.7 3.2 0.5 1 1.2 1.5 2 1.5h7.1v3.2zm40.9 0c1.9 0 3.4-0.8 4.4-2.4 1-1.4 1.4-3.2 1.4-5.2 0-2.2-0.5-4-1.5-5.5-1-1.7-2.5-2.5-4.4-2.5h-5c-1.9 0-3.2 0.8-4.4 2.5-1 1.5-1.5 3.4-1.5 5.4 0 2.2 0.5 3.9 1.5 5.4s2.5 2.4 4.4 2.4h5.1v-0.1zm-0.7-3.6h-3.9c-0.8 0-1.5-0.5-2-1.5-0.5-0.9-0.7-1.9-0.7-3.2 0-1.2 0.2-2.2 0.7-3 0.5-0.9 1.2-1.4 2-1.4h4c0.8 0 1.5 0.5 2 1.4 0.5 0.8 0.7 1.9 0.7 3 0 1.2-0.2 2.4-0.7 3.2-0.5 1.2-1.2 1.5-2.1 1.5zm20.9 3.6l-9.9-3.9v3.9h-3.4v-5.2c0-1.2 0.3-2.2 0.8-3 0.7-0.8 1.9-1.3 3.2-1.3h4.2c0.3 0 0.7-0.2 0.9-0.4 0.2-0.3 0.3-0.5 0.3-1 0-0.3-0.2-0.7-0.3-1-0.2-0.3-0.5-0.5-0.9-0.5h-8.4v-3.4h9c1.3 0 2.4 0.5 3.2 1.5 0.7 0.9 1 2 1 3.2 0 1.3-0.3 2.4-1 3.2-0.8 1-1.9 1.5-3.2 1.5h-2.2l6.6 2.5 0.1 3.9zm14.7 0.3l-9.9-3.9v3.5h-3.5v-15.6h3.5v3.9l9.9-3.9v3.7l-9.4 4v0.7l9.4 4v3.6zm14.6-12.8h-8.4c-0.3 0-0.7 0.2-0.8 0.5-0.2 0.4-0.3 0.7-0.3 1s0.2 0.7 0.3 1c0.2 0.4 0.5 0.4 0.8 0.4h4.9c1.4 0 2.4 0.5 3.2 1.5 0.7 0.9 1 2 1 3.4 0 1.3-0.3 2.4-1 3.4-0.8 1-1.9 1.5-3.2 1.5h-8.9v-3.4h8.4c0.3 0 0.7-0.2 0.9-0.5s0.3-0.7 0.3-1-0.2-0.7-0.3-1c-0.2-0.3-0.5-0.3-0.9-0.3h-4.9c-1.4 0-2.4-0.5-3.2-1.5-0.7-0.8-1-2-1-3.2 0-1.4 0.3-2.4 1-3.2 0.8-1 1.8-1.5 3.2-1.5h8.9v2.9z"/>
<path class="st0" d="m226.3 25.9h1.9c0.7 3.4 1.3 6.7 1.7 8.4 0.3 1.7 0.5 1.8 0.7 1.8s0.2 0 0.3-0.2c0-0.2 0.2-0.2 0.3-1.2 0.3-1 0.8-2.7 1.2-4.4 0.5-1.7 0.9-3.2 1.2-4.7h3.5c-1 3.5-1.9 6.9-2.4 9.1s-0.7 3-1.2 3.9c-0.3 0.8-0.8 1.7-1.5 2.2s-1.5 0.7-2.2 0.3c-0.7-0.3-1.3-0.9-2-2.4-0.7-2-1.3-4.9-1.7-7.1-0.5 2.7-1.2 5.4-1.7 7.1s-1.2 2.2-2 2.4c-0.7 0.2-1.5 0-2.2-0.3-0.7-0.5-1.2-1.4-1.5-2.2-0.3-0.9-0.5-1.7-1.2-3.9-0.5-2.2-1.5-5.6-2.4-9.1h3.5c0.3 1.5 0.9 3 1.2 4.7 0.5 1.7 1 3.4 1.2 4.4 0.3 1 0.3 1 0.3 1.2s0.2 0.2 0.4 0.2 0.2-0.2 0.7-1.8c0.3-1.7 1-5.1 1.7-8.4h2.2z"/>
	<path class="st0" d="m2.2 30.4c0 0.1 0.9 1 1.1 1.1 0.7 0.7 7.5 7.5 7.7 7.6 0.1 0 1.7-1 1.7-1l9.2-5.5c0.1-0.1 0.3-0.2 0.4-0.2 0.9-0.6 1.7-1.1 2.6-1.6 1.2-0.7 2.3-1.4 3.5-2.1 0.4-0.3 0.9-0.5 1.3-0.8 0.6-0.4 1.2-0.7 1.7-1.1l0.5-0.3c0.1 0 0.1-0.1 0.2-0.1l1.1-0.6c0.2-0.1 0.3-0.2 0.5-0.3l4.4-2.6c0.1-0.1 0.1-0.1 0.2-0.1l6.4-3.8c0.1-0.1 0.1-0.1 0.2-0.1 0.1-0.1 0.1-0.1 0.2-0.1 0.1-0.1 0.3-0.1 0.4-0.2 0.3-0.2 0.2-0.2 0.9 0.3l2.9 1.6c0.7 0.4 1.4 0.7 2 1.1l1.3 0.7c1.2 0.7 2.4 1.3 3.6 2l3.6 2c0.1 0.1 0.1 0.1 0.2 0.1 0.8 0.5 1.6 0.9 2.4 1.4 0.2 0.1 0.3 0.2 0.5 0.2 0.4 0.2 0.9 0.5 1.3 0.7l2.2 1.3c0.2 0.1 0.7 0.4 0.9 0.5 0 0.1-0.3 0.2-0.4 0.3s-0.2 0.2-0.4 0.3l-1.2 1c-0.4 0.3-0.9 0.7-1.2 1l-0.2 0.2-0.4 0.3-0.2 0.2c-0.5 0.4-1.7 1.4-2.2 1.8-0.3 0.2-0.6 0.4-0.8 0.7-0.1 0.1-0.2 0.1-0.2 0.2l-0.8 0.7c-0.1 0.1-0.1 0.1-0.2 0.1l-0.2 0.2c-0.2 0.1-0.3 0.2-0.4 0.3l-3.7 3c-0.1 0.1-0.2 0.2-0.4 0.3l-0.2 0.2c-0.1 0.1-0.1 0.1-0.2 0.1l-1.2 1c-0.5 0.4-0.9 0.8-1.4 1.2l-0.3 0.4c-0.3 0.2-0.6 0.6-1 0.8l-2.4 2c-0.7 0.6-1.3 1.1-2 1.7l-2 1.7c-0.5 0.4-1.1 0.9-1.6 1.3l-0.2 0.2s-0.1 0.1-0.2 0.2c0 0.1 0.1 0.2 0.2 0.3 0.4 0.4 0.7 0.7 1.1 1 0.1 0.1 0.1 0.1 0.2 0.1s0.1 0.1 0.1 0.1l1.1 1.1 0.1 0.1 0.1 0.1 1.3 1.2 0.1 0.1c0.1 0 0.4-0.2 0.5-0.4l0.2-0.2c0.5-0.5 1.1-0.9 1.5-1.4l0.6-0.5 0.1-0.1 2.2-1.9c0.1 0 0.1-0.1 0.1-0.1 0.3-0.3 0.7-0.6 1-0.9l0.2-0.2 2.9-2.5 0.4-0.4 1.3-1.2c0.2-0.1 0.3-0.2 0.4-0.4l0.4-0.4 0.7-0.6 0.2-0.2 0.9-0.8 0.4-0.4c0.5-0.4 1.4-1.2 1.8-1.6l0.2-0.2 0.4-0.4 0.2-0.2s0.1-0.1 0.2-0.2l1.1-1c0.2-0.2 0.9-0.8 1.2-1.1 0.5-0.4 1.2-1.1 1.8-1.6l2.8-2.4 0.4-0.4c0.6-0.5 1.2-1.1 1.8-1.6l2-1.8c0.1-0.1 0.1-0.2 0.2-0.2v-0.1c-0.2 0-0.3-0.1-0.5-0.2l-4.9-2.6c-0.2-0.1-0.3-0.2-0.5-0.2l-2.5-1.3c-0.2-0.1-0.3-0.2-0.5-0.2l-4.9-2.6c-0.3-0.2-0.7-0.3-1-0.5l-4.4-2.3c-0.2-0.1-0.3-0.2-0.5-0.3l-4-2.1c-0.3-0.2-0.7-0.3-1-0.5s-0.7-0.3-1-0.5l-3.2-1.7c-0.5-0.2-0.3-0.3-0.7-0.1-1 0.5-1.9 1.1-2.9 1.6l-0.5 0.9c-0.9 0.5-1.8 0.9-2.6 1.5l-1 0.5c-0.1 0.1-0.1 0.1-0.2 0.1l-2.4 1.4c-0.5 0.2-0.9 0.6-1.4 0.8-0.1 0-0.2 0.1-0.2 0.1l-4.7 2.6c-0.3 0.2-0.6 0.4-1 0.6-0.2 0.1-0.3 0.2-0.5 0.2-0.2 0.1-0.3 0.2-0.5 0.3l-0.5 0.3c-0.2 0.1-0.3 0.2-0.5 0.3l-1.4 0.8c-0.2 0.1-0.3 0.2-0.5 0.3l-1.9 1.1c-0.1 0.1-0.3 0.2-0.5 0.3l-2.1 1.2c-0.1 0-0.2 0.1-0.2 0.1-0.2 0.1-0.3 0.2-0.5 0.2-0.1 0.1-0.1 0.1-0.2 0.1l-1.9 1.1c-0.1 0.1-0.2 0.1-0.2 0.1-0.5 0.2-0.9 0.6-1.4 0.8l-0.5 0.3c-0.6 0.3-1.1 0.6-1.7 0.9-0.1 0.1-0.1 0.1-0.2 0.1-0.1-0.2-3-3-3.5-3.5-0.1-0.1-0.2-0.1-0.2-0.2 0.1 0 0.2-0.1 0.2-0.1 0.1-0.1 0.2-0.1 0.2-0.1 0.7-0.3 1.3-0.7 2-1.1l1.2-0.7c0.4-0.2 1.3-0.7 1.7-0.9l2-1.1c0.2-0.1 0.3-0.2 0.5-0.3 0.5-0.2 1-0.6 1.5-0.8l5-2.7c0.9-0.5 1.7-0.9 2.5-1.4l0.7-0.4c0.9-0.5 1.8-1 2.8-1.5 0.1-0.1 0.1-0.1 0.2-0.1 0.1-0.1 0.2-0.1 0.2-0.1 0.1-0.1 0.2-0.1 0.2-0.1 0.4-0.2 0.8-0.5 1.2-0.7 0.9-0.4 1.7-0.9 2.5-1.4l3-1.6c0.2-0.1 0.3-0.2 0.5-0.3s0.3-0.2 0.5-0.3l1-0.5c0.2-0.1 0.3-0.2 0.5-0.3l0.8-0.4c0.1-0.1 0.7-0.4 0.7-0.4-0.2-0.1-2.7-1.3-2.8-1.3s-0.4 0.2-0.6 0.3l-1.9 1.2c-0.1 0.1-0.2 0.1-0.3 0.2l-1.7 0.8c-0.5 0.3-1.1 0.6-1.7 0.9-0.1 0.1-0.2 0.1-0.3 0.1l-1.7 0.9c-0.1 0.1-0.2 0.1-0.3 0.1l-1.9 1c-0.9 0.4-1.7 0.9-2.5 1.3-0.4 0.2-0.7 0.4-1.1 0.6-0.7 0.3-1.3 0.7-2 1-0.1 0.1-0.2 0.1-0.3 0.1-0.4 0.2-0.7 0.4-1.1 0.6l-0.8 0.4c-0.1 0.1-0.2 0.1-0.3 0.2l-3.9 2c-0.7 0.4-1.5 0.8-2.2 1.2l-2.3 1.3c-1.1 0.5-2.1 1.1-3.1 1.6l-2.2 1.2c-0.9 0.4-1.7 0.9-2.5 1.3l-0.6 0.3z"/>
	<path class="st0" d="m14.9 43c0.1 0.1 0.4 0.3 0.5 0.4l0.1 0.1 1.5 1.5c0.1 0.1 0.1 0.2 0.2 0.2 0.1 0.1 0.2 0.1 0.2 0.2 0.3 0.2 1 1 1.2 1.1 0.2-0.1 0.4-0.3 0.6-0.4 0.1 0 0.1-0.1 0.2-0.1l3.4-2.3c0.2-0.1 0.3-0.2 0.4-0.3s0.1-0.1 0.2-0.1l2-1.3c0.1-0.1 0.3-0.2 0.4-0.3 0.2-0.1 0.3-0.2 0.4-0.3l2.6-1.8c0.4-0.3 0.9-0.6 1.3-0.9 0.1-0.1 0.1-0.1 0.2-0.1l1.5-1.1c0.2-0.1 0.3-0.2 0.4-0.3l0.9-0.6 5.6-3.8c0.1-0.1 0.1-0.1 0.2-0.1 1.2-0.8 2.4-1.7 3.7-2.5l0.9-0.6 0.9-0.6 0.9-0.6 0.9-0.6c0.1 0.1 0.2 0.1 0.3 0.2l1.2 0.8c0.7 0.4 1.4 0.9 2.1 1.3 0.2 0.1 1.1 0.7 1.2 0.7 0 0.1-0.4 0.3-0.4 0.3-0.2 0.1-0.3 0.2-0.4 0.3l-5.7 4-0.2 0.2-4.2 3c-0.1 0.1-0.3 0.2-0.4 0.3s-0.1 0.1-0.2 0.1l-9.2 6.5c-0.1 0.1-0.1 0.1-0.2 0.1-0.9 0.6-1.7 1.2-2.6 1.9l-0.9 0.6c-0.1 0.1-0.3 0.2-0.4 0.3l-2.2 1.6c-0.1 0.1-0.3 0.2-0.4 0.3s-0.2 0.1-0.2 0.2c-0.1 0.1-0.2 0.1-0.2 0.2 0.1 0.2 1.5 1.5 1.7 1.7l1.7 1.7 0.2 0.2 4 4c0.1 0.1 0.3 0.2 0.4 0.4 1.4 1.5 2.9 2.9 4.4 4.4l0.4 0.4c0.2 0.2 0.4 0.5 0.7 0.7 0.2-0.1 0.9-0.8 1.1-1l0.9-0.8c0.3-0.2 0.7-0.6 1-0.9l0.4-0.3c0-0.1 0.1-0.1 0.1-0.1 0.1-0.1 0.3-0.3 0.5-0.4l-9.5-9.4c0.1-0.1 0.8-0.7 1-0.8 0.3-0.2 0.6-0.4 0.8-0.6l0.2-0.2 0.9-0.6 0.2-0.2c0.1 0 0.1 0 0.1-0.1l0.1-0.1 2.5-1.9c0.9-0.7 1.9-1.5 2.9-2.2 0.1-0.1 0.1-0.1 0.2-0.1l0.4-0.3 0.2-0.2c0.1-0.1 0.3-0.2 0.4-0.3s0.3-0.2 0.4-0.3 0.3-0.2 0.4-0.3l3.8-2.9c0.4-0.3 1.6-1.1 1.9-1.4l1.5-1.1c0.5-0.4 2-1.5 2.3-1.7s0.5-0.4 0.8-0.6l0.2-0.2 4.8-3.6 0.2-0.2c0.1-0.1 0.4-0.2 0.4-0.4-0.1 0-2.2-1.3-2.5-1.6l-1.2-0.7c-0.7-0.4-1.3-0.9-2-1.2l-3-1.9c-0.9-0.6-1.8-1.1-2.7-1.7-0.1-0.1-0.2-0.1-0.4-0.2s-0.3 0.1-0.5 0.1c-0.1 0.1-0.1 0.1-0.2 0.1-0.1 0.1-0.2 0.1-0.3 0.2-0.6 0.3-1.1 0.7-1.7 1.1-0.6 0.3-1.1 0.7-1.7 1.1-0.1 0.1-0.2 0.1-0.3 0.2-1 0.7-2.1 1.3-3 1.9l-2.4 1.5c-1 0.6-2 1.2-3 1.9-0.1 0.1-0.2 0.1-0.4 0.2l-1.7 1.1c0.2-0.1 0.1-0.1 0 0s-0.2 0.1-0.4 0.2l-1.7 1.1c-1 0.6-2 1.3-3 1.9l-4 2.5c-0.1 0.1-0.2 0.1-0.4 0.2l-1.3 0.8c-0.1 0.1-0.2 0.1-0.3 0.2l-4.6 2.8c-0.1 0.1-0.2 0.1-0.2 0.2z"/>
</svg>
