<?xml version="1.0" encoding="UTF-8" standalone="no"?>
<svg
   xmlns:dc="http://purl.org/dc/elements/1.1/"
   xmlns:cc="http://creativecommons.org/ns#"
   xmlns:rdf="http://www.w3.org/1999/02/22-rdf-syntax-ns#"
   xmlns:svg="http://www.w3.org/2000/svg"
   xmlns="http://www.w3.org/2000/svg"
   xmlns:sodipodi="http://sodipodi.sourceforge.net/DTD/sodipodi-0.dtd"
   xmlns:inkscape="http://www.inkscape.org/namespaces/inkscape"
   viewBox="0 0 562.59998 532.85333"
   height="532.85333"
   width="562.59998"
   xml:space="preserve"
   id="svg2"
   version="1.1"
   sodipodi:docname="4988.svg"
   inkscape:version="0.92.3 (d244b95, 2018-08-02)"><sodipodi:namedview
     pagecolor="#ffffff"
     bordercolor="#666666"
     borderopacity="1"
     objecttolerance="10"
     gridtolerance="10"
     guidetolerance="10"
     inkscape:pageopacity="0"
     inkscape:pageshadow="2"
     inkscape:window-width="1920"
     inkscape:window-height="1021"
     id="namedview1115"
     showgrid="false"
     inkscape:zoom="0.44289861"
     inkscape:cx="281.29999"
     inkscape:cy="266.42667"
     inkscape:window-x="0"
     inkscape:window-y="27"
     inkscape:window-maximized="1"
     inkscape:current-layer="g12" /><metadata
     id="metadata8"><rdf:RDF><cc:Work
         rdf:about=""><dc:format>image/svg+xml</dc:format><dc:type
           rdf:resource="http://purl.org/dc/dcmitype/StillImage" /></cc:Work></rdf:RDF></metadata><defs
     id="defs6"><clipPath
       id="clipPath354"
       clipPathUnits="userSpaceOnUse"><path
         id="path352"
         d="m 1866.91,442.609 v 0 c -0.27,0.723 -0.6,1.442 -1.01,2.153 -1.25,2.179 -2.99,3.847 -4.7,5.328 -2.83,2.461 -5.85,4.648 -9.03,6.582 v -5.75 0 -8.313 h -8.27 v 15.231 h 8.27 v -1.168 c 3.18,-1.934 6.2,-4.121 9.03,-6.582 1.71,-1.481 3.45,-3.149 4.7,-5.328 0.41,-0.711 0.74,-1.43 1.01,-2.153 m -98.07,0 h -7.85 v 1.692 0 5.051 c -5.72,2.16 -11.19,4.988 -16.24,8.488 v 0 c 5.05,-3.5 10.52,-6.328 16.24,-8.488 v 8.488 h 5.84 v 0 h 2.01 v -15.231 m -68.16,0 v 0 c -0.28,0.723 -0.61,1.442 -1.02,2.153 -1.24,2.179 -2.99,3.847 -4.69,5.328 -2.84,2.461 -5.86,4.648 -9.04,6.582 v -5.75 0 -8.313 h -8.27 v 15.231 h 4.23 l 4.04,4.621 -4.04,-4.621 h 4.04 v -1.168 c 3.18,-1.934 6.2,-4.121 9.04,-6.582 1.7,-1.481 3.45,-3.149 4.69,-5.328 0.41,-0.711 0.74,-1.43 1.02,-2.153 m -98.08,0 h -7.84 v 1.692 0 5.051 c -7.25,2.738 -14.11,6.546 -20.2,11.449 -2.25,1.801 -4.41,3.82 -5.07,6.301 -0.16,0.589 -0.23,1.207 -0.23,1.859 0,-0.652 0.07,-1.27 0.23,-1.859 0.66,-2.481 2.82,-4.5 5.07,-6.301 6.09,-4.903 12.95,-8.711 20.2,-11.449 v 8.488 h 7.84 v -15.231 m -68.16,0 v 0 c -0.27,0.723 -0.6,1.442 -1.01,2.153 -1.25,2.179 -3,3.847 -4.7,5.328 -2.83,2.461 -5.85,4.648 -9.03,6.582 v -5.75 0 -8.313 h -8.27 v 15.231 h 8.27 v -1.168 c 3.18,-1.934 6.2,-4.121 9.03,-6.582 1.7,-1.481 3.45,-3.149 4.7,-5.328 0.41,-0.711 0.74,-1.43 1.01,-2.153" /></clipPath><clipPath
       id="clipPath542"
       clipPathUnits="userSpaceOnUse"><path
         id="path540"
         d="m 1555.57,178.039 c -0.01,0 -0.03,0 -0.04,0 v 0 c 0.01,0 0.03,0 0.04,0 v 0" /></clipPath><clipPath
       id="clipPath722"
       clipPathUnits="userSpaceOnUse"><path
         id="path720"
         d="M 532.18,1526.72 H 245.191 v -366.08 c 0.004,-32.35 67.114,-58.59 149.903,-58.59 82.785,0 149.894,26.24 149.894,58.59 v 366.08 H 532.18" /></clipPath><clipPath
       id="clipPath1250"
       clipPathUnits="userSpaceOnUse"><path
         id="path1248"
         d="m 2030.76,3322.78 h -556.28 c -24.4,0 -44.18,21.07 -44.18,47.06 v 434.64 c 0,25.99 19.78,47.07 44.18,47.07 h 556.28 c 24.4,0 44.18,-21.08 44.18,-47.07 v -434.64 c 0,-25.99 -19.78,-47.06 -44.18,-47.06" /></clipPath><clipPath
       id="clipPath2212"
       clipPathUnits="userSpaceOnUse"><path
         style="clip-rule:evenodd"
         id="path2210"
         d="m 612.629,3530.64 v 35.19 h 121.5 v -35.19 h -121.5 m -175.77,0 v 35.19 h 121.5 v -35.19 h -121.5 m -175.769,0 v 35.19 h 121.5 v -35.19 h -121.5 m 444.961,35.28 v 0 m -7.742,0 H 627.57 621 c 3.781,4.05 9.27,7.83 16.469,11.16 2.883,1.26 6.39,2.7 11.34,3.24 1.441,0.09 2.703,0.18 4.05,0.18 3.153,0 6.301,-0.36 9.45,-0.72 6.031,-0.63 12.421,-1.44 17.91,-2.79 6.211,-1.53 10.89,-3.69 15.66,-5.94 3.422,-1.71 6.75,-3.42 10.172,-5.13 h -7.742 m -45.629,12.24 c -0.36,0 -0.719,0 -1.168,0 0.449,0 0.808,0 1.168,0 m -112.051,-12.24 v 0 m -8.457,0 h -73.711 -6.84 c 3.328,2.79 7.559,5.76 14.578,7.83 6.75,2.07 14.942,2.88 23.223,2.88 8.457,0 16.918,-0.9 23.758,-2.25 10.8,-2.07 19.621,-5.22 27.449,-8.46 h -8.457 m -62.102,6.03 c 0.809,0.27 1.621,0.45 2.43,0.63 -0.809,-0.18 -1.621,-0.36 -2.43,-0.63 m 19.532,2.34 c -0.454,0 -0.903,0 -1.262,0 0.359,0 0.808,0 1.262,0 m -107.641,-8.37 v 0 m -12.063,0 H 253.441 c -5.492,1.53 -11.16,2.97 -17.101,4.05 -1.262,0.27 -2.61,0.45 -3.871,0.72 -4.231,0.72 -8.278,1.35 -11.25,2.52 -2.071,0.81 -3.328,1.89 -3.328,2.97 0,-1.08 1.257,-2.16 3.328,-2.97 2.972,-1.17 7.019,-1.8 11.25,-2.52 1.261,-0.27 2.609,-0.45 3.871,-0.72 5.941,-1.08 11.609,-2.52 17.101,-4.05 h -10.89 c -2.973,0.72 -5.942,1.44 -9,1.98 -1.172,0.27 -2.43,0.45 -3.692,0.63 -4.589,0.81 -9.269,1.62 -13.05,3.06 -5.399,2.07 -7.379,5.67 -1.707,7.74 2.609,0.99 6.117,1.44 8.91,1.71 17.636,1.98 34.828,3.69 51.84,3.69 9.179,0 17.367,-0.54 25.109,-1.53 7.379,-0.99 14.129,-2.52 20.609,-3.87 l 60.391,-13.41 h -12.063 m -190.707,0 v 0 m -7.652,0 h -45.988 v 8.1 2.61 c 2.16,0.36 4.41,0.72 6.75,0.99 3.148,0.36 6.211,0.54 9.269,0.54 4.86,0 9.539,-0.45 13.41,-1.35 4.77,-1.08 8.192,-2.79 10.981,-4.14 4.41,-2.25 8.82,-4.5 13.23,-6.75 h -7.652 m -37.437,9.54 c 2.429,0.27 4.859,0.36 7.199,0.36 -2.34,0 -4.77,-0.09 -7.199,-0.36 m -8.551,19.89 c 5.847,0 11.789,0.18 17.277,0.81 6.301,0.72 11.973,2.16 17.192,3.6 2.339,0.72 4.679,1.35 6.929,2.16 h 8.91 c -3.687,-1.53 -8.007,-2.79 -12.058,-3.96 -5.672,-1.53 -11.879,-3.15 -18.992,-3.96 -6.297,-0.81 -13.047,-0.9 -19.258,-0.99 v 2.34 m 253.437,-1.17 c -10.078,0.72 -24.207,2.43 -34.109,6.66 l -2.25,1.08 h 8.101 c 8.641,-3.42 20.61,-4.86 29.34,-5.4 1.711,-0.09 3.418,-0.18 5.129,-0.27 -1.711,0.09 -3.418,0.18 -5.129,0.27 -8.73,0.54 -20.699,1.98 -29.34,5.4 h 93.692 l -2.16,-1.08 c -3.153,-1.35 -6.391,-2.88 -10.532,-3.69 -4.5,-0.9 -10.261,-0.99 -15.3,-1.08 -5.129,-0.09 -10.352,-0.18 -15.571,-0.18 5.219,0 10.442,0.09 15.571,0.18 5.039,0.09 10.8,0.18 15.3,1.08 4.141,0.81 7.379,2.34 10.532,3.69 l 2.16,1.08 h 8.008 l -5.399,-2.52 c -3.332,-1.53 -7.109,-3.24 -12.422,-4.23 -5.757,-1.17 -12.238,-1.26 -17.91,-1.35 -5.847,-0.09 -11.879,-0.18 -17.91,-0.18 -6.57,0 -13.23,0.09 -19.801,0.54 m 197.641,2.43 c -6.207,1.35 -11.52,3.15 -15.84,5.31 h 8.012 c 3.148,-1.35 6.84,-2.43 10.98,-3.33 0.899,-0.18 1.797,-0.36 2.699,-0.54 -0.902,0.18 -1.8,0.36 -2.699,0.54 -4.14,0.9 -7.832,1.98 -10.98,3.33 h 60.75 c -1.801,-0.99 -3.692,-1.98 -5.762,-2.88 -1.527,-0.63 -3.238,-1.26 -5.219,-1.71 -1.441,-0.36 -3.242,-0.54 -5.761,-0.72 -3.149,-0.27 -6.387,-0.36 -9.629,-0.36 3.242,0 6.48,0.09 9.629,0.36 2.519,0.18 4.32,0.36 5.761,0.72 1.981,0.45 3.692,1.08 5.219,1.71 2.07,0.9 3.961,1.89 5.762,2.88 h 7.379 c -2.43,-1.53 -5.309,-2.97 -8.461,-4.32 -1.891,-0.81 -4.047,-1.71 -6.84,-2.25 -2.609,-0.54 -5.399,-0.81 -7.559,-0.99 -3.511,-0.27 -7.109,-0.45 -10.711,-0.45 -9.359,0 -18.718,0.99 -26.73,2.7 m 20.43,-0.27 c -1.528,0.09 -2.969,0.18 -4.5,0.36 1.531,-0.18 2.972,-0.27 4.5,-0.36 m -471.508,5.58 h 41.398 c -2.25,-0.81 -4.59,-1.44 -6.929,-2.16 -5.219,-1.44 -10.891,-2.88 -17.192,-3.6 -5.488,-0.63 -11.43,-0.81 -17.277,-0.81 v 6.57 m 580.5,35.91 v 0 m -7.742,0 H 627.57 621 c 3.781,3.96 9.27,7.74 16.469,11.07 2.883,1.35 6.39,2.79 11.34,3.24 1.441,0.18 2.703,0.18 4.05,0.18 3.153,0 6.301,-0.27 9.45,-0.63 6.031,-0.72 12.421,-1.53 17.91,-2.88 6.211,-1.53 10.89,-3.69 15.66,-5.94 3.422,-1.62 6.75,-3.33 10.172,-5.04 h -7.742 m -46.618,12.15 c 0.45,0.09 0.899,0.09 1.438,0.09 -0.539,0 -0.988,0 -1.438,-0.09 m -111.062,-12.15 v 0 m -8.457,0 h -73.711 -6.84 c 3.328,2.79 7.559,5.76 14.578,7.83 6.75,1.98 14.942,2.79 23.223,2.79 8.457,0 16.918,-0.81 23.758,-2.16 10.8,-2.07 19.621,-5.22 27.449,-8.46 h -8.457 m -57.961,7.02 c 0.539,0.09 0.988,0.18 1.437,0.27 -0.449,-0.09 -0.898,-0.18 -1.437,-0.27 m 15.211,1.35 c -0.363,0 -0.813,0 -1.262,0 0.449,0 0.899,0 1.262,0 m -107.461,-8.37 v 0 m -12.063,0 H 253.441 c -5.492,1.44 -11.16,2.88 -17.101,4.05 -1.262,0.18 -2.61,0.45 -3.871,0.63 -4.231,0.72 -8.278,1.44 -11.25,2.52 -2.071,0.81 -3.328,1.98 -3.328,2.97 0,-0.99 1.257,-2.16 3.328,-2.97 2.972,-1.08 7.019,-1.8 11.25,-2.52 1.261,-0.18 2.609,-0.45 3.871,-0.63 5.941,-1.17 11.609,-2.61 17.101,-4.05 h -10.89 c -2.973,0.72 -5.942,1.44 -9,1.98 -1.172,0.18 -2.43,0.45 -3.692,0.63 -4.589,0.81 -9.269,1.62 -13.05,3.06 -5.399,1.98 -7.379,5.58 -1.707,7.74 2.609,0.99 6.117,1.35 8.91,1.71 17.636,1.89 34.828,3.69 51.84,3.69 9.179,0 17.367,-0.54 25.109,-1.53 7.379,-1.08 14.129,-2.52 20.609,-3.96 l 60.391,-13.32 h -12.063 m -190.707,0 v 0 m -7.652,0 h -45.988 v 8.01 2.61 c 2.16,0.45 4.41,0.81 6.75,1.08 3.148,0.36 6.211,0.45 9.269,0.45 4.86,0 9.539,-0.45 13.41,-1.26 4.77,-1.08 8.192,-2.79 10.981,-4.23 4.41,-2.16 8.82,-4.41 13.23,-6.66 h -7.652 m -33.57,9.81 c 1.261,0 2.519,0.09 3.781,0.09 -1.262,0 -2.52,-0.09 -3.781,-0.09 m -12.418,19.53 c 5.847,0.09 11.789,0.18 17.277,0.81 6.301,0.81 11.973,2.25 17.192,3.69 2.339,0.63 4.679,1.35 6.929,2.07 h 8.91 c -3.687,-1.44 -8.007,-2.79 -12.058,-3.87 -5.672,-1.62 -11.879,-3.15 -18.992,-4.05 -6.297,-0.72 -13.047,-0.9 -19.258,-0.9 v 2.25 m 253.437,-1.08 c -10.078,0.63 -24.207,2.34 -34.109,6.57 l -2.25,1.08 h 8.101 c 8.641,-3.42 20.61,-4.77 29.34,-5.4 -8.73,0.63 -20.699,1.98 -29.34,5.4 h 12.508 7.922 73.262 l -2.16,-0.99 c -3.153,-1.44 -6.391,-2.88 -10.532,-3.69 -4.5,-0.9 -10.261,-0.99 -15.3,-1.08 -5.758,-0.09 -11.61,-0.18 -17.371,-0.18 5.761,0 11.613,0.09 17.371,0.18 5.039,0.09 10.8,0.18 15.3,1.08 4.141,0.81 7.379,2.25 10.532,3.69 l 2.16,0.99 h 8.008 l -5.399,-2.43 c -3.332,-1.53 -7.109,-3.24 -12.422,-4.32 -5.757,-1.08 -12.238,-1.26 -17.91,-1.35 -5.219,-0.09 -10.621,-0.18 -15.929,-0.18 -7.29,0 -14.579,0.18 -21.782,0.63 m 197.641,2.34 c -6.207,1.35 -11.52,3.24 -15.84,5.31 h 8.012 c 3.148,-1.26 6.84,-2.43 10.98,-3.33 -4.14,0.9 -7.832,2.07 -10.98,3.33 h 12.418 8.191 40.141 c -1.801,-0.99 -3.692,-1.89 -5.762,-2.79 -1.527,-0.63 -3.238,-1.35 -5.219,-1.8 -1.441,-0.27 -3.242,-0.45 -5.761,-0.72 -2.969,-0.18 -6.028,-0.36 -9.18,-0.36 3.152,0 6.211,0.18 9.18,0.36 2.519,0.27 4.32,0.45 5.761,0.72 1.981,0.45 3.692,1.17 5.219,1.8 2.07,0.9 3.961,1.8 5.762,2.79 h 7.379 c -2.43,-1.53 -5.309,-2.97 -8.461,-4.32 -1.891,-0.81 -4.047,-1.62 -6.84,-2.25 -2.609,-0.54 -5.399,-0.81 -7.559,-0.99 -3.332,-0.27 -6.84,-0.36 -10.261,-0.36 -9.45,0 -18.989,0.9 -27.18,2.61 m 20.793,-0.18 c -0.543,0 -0.992,0.09 -1.531,0.09 0.539,0 0.988,-0.09 1.531,-0.09 m -471.871,5.49 h 27.719 13.679 c -2.25,-0.72 -4.59,-1.44 -6.929,-2.07 -5.219,-1.44 -10.891,-2.88 -17.192,-3.69 -5.488,-0.63 -11.43,-0.72 -17.277,-0.81 v 6.57 m 443.25,0 h -8.012 -73.258 -8.011 l 5.492,2.52 c 3.328,1.53 7.109,3.24 12.418,4.23 5.672,1.17 12.148,1.26 17.82,1.35 12.422,0.18 25.199,0.45 37.711,-0.36 10.078,-0.72 24.211,-2.43 34.109,-6.66 l 2.34,-1.08 h -20.609 m -53.192,5.85 c 3.871,0.09 7.743,0.09 11.61,0.18 -3.867,-0.09 -7.739,-0.09 -11.61,-0.18 m 15.481,0.18 c -1.262,0 -2.61,0 -3.871,0 1.261,0 2.609,0 3.871,0 m 37.711,-6.03 v 0 m -218.071,0 h -8.101 -40.231 -7.378 c 2.519,1.53 5.308,2.97 8.46,4.32 1.981,0.81 4.051,1.71 6.93,2.25 2.52,0.54 5.309,0.81 7.469,0.99 12.601,0.99 26.281,0.18 37.441,-2.25 6.211,-1.35 11.61,-3.15 15.84,-5.31 h -20.43 m -31.589,5.31 c 1.531,0.09 3.148,0.18 4.769,0.27 -1.621,-0.09 -3.238,-0.18 -4.769,-0.27 m 9.629,0.36 c -0.809,0 -1.622,0 -2.43,0 0.808,0 1.621,0 2.43,0 m 21.96,-5.67 v 0 m -158.218,0 v 0 m -11.25,0 h -5.403 -8.91 -13.679 v 5.4 2.43 c 4.23,-0.45 8.101,-1.17 11.609,-1.89 l 16.019,-3.24 c 3.961,-0.72 8.012,-1.53 11.614,-2.7 h -11.25 m -14.313,0 v 0 m 464.039,18.72 c -7.379,0.99 -14.129,2.52 -20.609,3.87 l -60.391,13.41 h 12.153 l 51.48,-11.43 c 6.207,-1.35 12.688,-2.79 19.527,-3.69 7.024,-0.99 14.493,-1.44 22.954,-1.44 16.199,0 32.937,1.71 50.128,3.6 2.25,0.27 4.77,0.54 6.301,1.17 1.078,0.45 1.617,0.99 1.617,1.53 0,-0.54 -0.539,-1.08 -1.617,-1.53 -1.531,-0.63 -4.051,-0.9 -6.301,-1.17 -17.191,-1.89 -33.929,-3.6 -50.128,-3.6 -8.461,0 -15.93,0.45 -22.954,1.44 -6.839,0.9 -13.32,2.34 -19.527,3.69 l -51.48,11.43 H 621 c 3.781,3.96 9.27,7.74 16.469,11.07 2.883,1.35 6.39,2.7 11.34,3.24 1.441,0.09 2.703,0.18 4.05,0.18 3.153,0 6.301,-0.36 9.45,-0.72 6.031,-0.63 12.421,-1.44 17.91,-2.79 6.211,-1.53 10.89,-3.69 15.66,-5.94 3.422,-1.71 6.75,-3.42 10.172,-5.04 h -7.742 -8.911 c 2.973,-0.81 5.942,-1.44 9.09,-1.98 1.172,-0.27 2.434,-0.45 3.602,-0.72 4.59,-0.72 9.359,-1.53 13.14,-2.97 5.309,-2.07 7.29,-5.67 1.711,-7.74 -2.613,-0.99 -6.121,-1.44 -9,-1.71 -17.55,-1.98 -34.832,-3.69 -51.839,-3.69 -9.18,0 -17.372,0.45 -25.114,1.53 m 21.692,29.43 c -0.36,0 -0.719,0 -1.168,0 0.449,0 0.808,0 1.168,0 m -383.039,-26.01 c -6.032,0.63 -12.332,1.44 -17.821,2.79 -6.211,1.53 -10.98,3.69 -15.66,5.94 -3.512,1.71 -6.84,3.42 -10.172,5.13 h 7.742 c 2.43,-1.26 4.86,-2.52 7.29,-3.69 4.589,-2.16 8.73,-4.14 14.218,-5.49 4.774,-1.17 10.442,-1.8 16.203,-2.52 -5.761,0.72 -11.429,1.35 -16.203,2.52 -5.488,1.35 -9.629,3.33 -14.218,5.49 -2.43,1.17 -4.86,2.43 -7.29,3.69 h 8.821 c -2.973,0.72 -5.942,1.35 -9,1.89 -1.172,0.27 -2.43,0.45 -3.692,0.72 -4.589,0.72 -9.269,1.53 -13.05,2.97 -5.399,2.07 -7.379,5.67 -1.707,7.74 2.609,0.99 6.117,1.44 8.91,1.71 17.636,1.98 34.828,3.69 51.84,3.69 9.179,0 17.367,-0.45 25.109,-1.53 7.379,-0.99 14.129,-2.43 20.609,-3.87 l 60.391,-13.32 h -12.063 -58.949 c -3.777,-4.05 -9.179,-7.83 -16.469,-11.16 -2.789,-1.26 -6.39,-2.7 -11.339,-3.24 -1.352,-0.09 -2.7,-0.18 -4.051,-0.18 -3.149,0 -6.301,0.36 -9.449,0.72 m 20.07,4.14 c -2.34,-1.08 -4.949,-2.07 -8.191,-2.43 -0.719,-0.09 -1.442,-0.09 -2.25,-0.09 0.808,0 1.531,0 2.25,0.09 3.242,0.36 5.851,1.35 8.191,2.43 6.301,2.97 11.25,6.21 14.758,9.72 -3.508,-3.51 -8.457,-6.75 -14.758,-9.72 m -68.492,16.92 c 2.972,-1.17 7.019,-1.8 11.25,-2.52 1.261,-0.27 2.609,-0.45 3.871,-0.72 5.941,-1.08 11.609,-2.52 17.101,-3.96 -5.492,1.44 -11.16,2.88 -17.101,3.96 -1.262,0.27 -2.61,0.45 -3.871,0.72 -4.231,0.72 -8.278,1.35 -11.25,2.52 -2.071,0.81 -3.328,1.89 -3.328,2.97 0,-1.08 1.257,-2.16 3.328,-2.97 m 197.551,-15.75 c -10.711,2.16 -19.532,5.31 -27.36,8.55 h 8.461 c 6.391,-2.52 13.59,-4.86 21.777,-6.48 0.364,-0.09 0.723,-0.18 1.172,-0.18 -0.449,0 -0.808,0.09 -1.172,0.18 -8.187,1.62 -15.386,3.96 -21.777,6.48 h 51.75 c 3.328,2.7 7.559,5.76 14.578,7.74 6.75,2.07 14.942,2.88 23.223,2.88 8.457,0 16.918,-0.9 23.758,-2.16 10.8,-2.16 19.621,-5.31 27.449,-8.46 h -8.457 -51.75 c -3.332,-2.79 -7.652,-5.76 -14.582,-7.83 -6.75,-2.07 -15.031,-2.88 -23.309,-2.88 -8.461,0 -16.922,0.9 -23.761,2.16 m 23.671,0.18 c 3.059,0 6.118,0.09 9,0.45 -2.882,-0.36 -5.941,-0.45 -9,-0.45 m -4.14,0.09 c -1.352,0 -2.699,0.09 -4.051,0.18 1.352,-0.09 2.699,-0.18 4.051,-0.18 m 23.668,2.25 c -0.809,-0.27 -1.617,-0.45 -2.43,-0.63 0.813,0.18 1.621,0.36 2.43,0.63 5.222,1.53 8.73,3.69 11.609,6.03 -2.879,-2.34 -6.387,-4.5 -11.609,-6.03 m 9.179,12.33 c 2.883,0.81 6.032,1.26 9.364,1.62 -3.332,-0.36 -6.481,-0.81 -9.364,-1.62 m 18.274,1.98 c -0.902,0 -1.711,0 -2.613,0 0.902,0 1.711,0 2.613,0 m -310.231,-8.28 v 0 m -7.652,0 h -45.988 v 8.01 2.61 c 2.16,0.36 4.41,0.72 6.75,0.99 3.148,0.36 6.211,0.54 9.269,0.54 4.86,0 9.539,-0.45 13.41,-1.35 4.77,-1.08 8.192,-2.79 10.981,-4.14 4.41,-2.25 8.82,-4.5 13.23,-6.66 h -7.652 m -33.57,9.81 c 1.261,0 2.519,0.09 3.781,0.09 -1.262,0 -2.52,-0.09 -3.781,-0.09 m -12.418,19.53 c 5.847,0 11.789,0.18 17.277,0.81 6.301,0.72 11.973,2.16 17.192,3.69 2.339,0.63 4.679,1.35 6.929,2.07 h 8.91 c -3.687,-1.53 -8.007,-2.79 -12.058,-3.96 -5.672,-1.53 -11.879,-3.15 -18.992,-3.96 -6.297,-0.81 -13.047,-0.9 -19.258,-0.99 v 2.34 M 378.988,3738 c -10.078,0.63 -24.207,2.34 -34.109,6.57 l -2.25,1.08 h 8.101 c 8.641,-3.42 20.61,-4.86 29.34,-5.4 1.711,-0.09 3.418,-0.18 5.129,-0.27 -1.711,0.09 -3.418,0.18 -5.129,0.27 -8.73,0.54 -20.699,1.98 -29.34,5.4 h 81.989 7.922 3.781 l -2.16,-1.08 c -3.153,-1.35 -6.391,-2.88 -10.532,-3.69 -4.5,-0.81 -10.261,-0.99 -15.3,-1.08 -5.129,-0.09 -10.352,-0.18 -15.571,-0.18 5.219,0 10.442,0.09 15.571,0.18 5.039,0.09 10.8,0.27 15.3,1.08 4.141,0.81 7.379,2.34 10.532,3.69 l 2.16,1.08 h 8.008 l -5.399,-2.52 c -3.332,-1.53 -7.109,-3.24 -12.422,-4.23 -5.757,-1.17 -12.238,-1.26 -17.91,-1.35 -5.578,-0.09 -11.34,-0.18 -17.097,-0.18 -6.84,0 -13.774,0.18 -20.614,0.63 m 197.641,2.34 c -6.207,1.35 -11.52,3.15 -15.84,5.31 h 8.012 c 3.148,-1.35 6.84,-2.43 10.98,-3.33 0.899,-0.18 1.797,-0.36 2.699,-0.54 -0.902,0.18 -1.8,0.36 -2.699,0.54 -4.14,0.9 -7.832,1.98 -10.98,3.33 h 60.75 c -1.801,-0.99 -3.692,-1.98 -5.762,-2.88 -1.527,-0.63 -3.238,-1.26 -5.219,-1.71 -1.441,-0.27 -3.242,-0.54 -5.761,-0.72 -3.149,-0.27 -6.387,-0.36 -9.629,-0.36 3.242,0 6.48,0.09 9.629,0.36 2.519,0.18 4.32,0.45 5.761,0.72 1.981,0.45 3.692,1.08 5.219,1.71 2.07,0.9 3.961,1.89 5.762,2.88 h 7.379 c -2.43,-1.53 -5.309,-2.97 -8.461,-4.32 -1.891,-0.81 -4.047,-1.71 -6.84,-2.25 -2.609,-0.54 -5.399,-0.81 -7.559,-0.99 -3.511,-0.27 -7.109,-0.45 -10.711,-0.45 -9.359,0 -18.718,0.99 -26.73,2.7 m 20.43,-0.27 c -1.528,0.09 -2.969,0.18 -4.5,0.36 1.531,-0.18 2.972,-0.27 4.5,-0.36 m -471.508,5.58 h 8.91 11.25 21.238 c -2.25,-0.72 -4.59,-1.44 -6.929,-2.07 -5.219,-1.53 -10.891,-2.97 -17.192,-3.69 -5.488,-0.63 -11.43,-0.81 -17.277,-0.81 v 6.57 m 592.558,0 h -8.82 c 3.691,1.44 7.922,2.79 12.063,3.87 5.668,1.62 11.878,3.15 18.988,4.05 6.301,0.72 12.961,0.9 19.262,0.9 v -2.25 -6.57 h -41.493 m -81.179,0 h -7.379 -60.75 -8.012 -18.269 l -2.25,1.08 c -9.989,4.23 -24.032,5.94 -34.11,6.57 10.078,-0.63 24.121,-2.34 34.11,-6.57 l 2.25,-1.08 h -8.098 -81.992 -8.008 -11.703 l 5.402,2.43 c 3.328,1.53 7.109,3.24 12.418,4.32 5.762,1.08 12.152,1.26 17.91,1.35 5.223,0.09 10.621,0.18 15.93,0.18 -5.309,0 -10.707,-0.09 -15.93,-0.18 -5.758,-0.09 -12.148,-0.27 -17.91,-1.35 -5.309,-1.08 -9.09,-2.79 -12.418,-4.32 l -5.402,-2.43 h -81.989 -8.101 -18.27 c -4.32,2.16 -9.718,3.96 -15.839,5.31 -0.54,0.09 -0.989,0.18 -1.532,0.27 0.543,-0.09 0.992,-0.18 1.532,-0.27 6.121,-1.35 11.519,-3.15 15.839,-5.31 h -8.007 -60.75 -7.473 c 2.519,1.53 5.312,2.97 8.551,4.32 1.89,0.81 4.05,1.62 6.84,2.25 2.609,0.54 5.402,0.81 7.468,0.99 3.422,0.27 6.934,0.36 10.442,0.36 -3.508,0 -7.02,-0.09 -10.442,-0.36 -2.066,-0.18 -4.859,-0.45 -7.468,-0.99 -2.79,-0.63 -4.95,-1.44 -6.84,-2.25 -3.239,-1.35 -6.032,-2.79 -8.551,-4.32 h -72.27 -8.91 -21.238 c -3.691,1.08 -7.742,1.89 -11.699,2.7 l -16.024,3.15 c -3.508,0.72 -7.379,1.53 -11.609,1.89 v 10.98 c 22.051,0.36 45.269,-0.27 65.16,-4.23 2.883,-0.54 5.672,-1.17 8.461,-1.8 7.648,-1.71 15.66,-3.51 24.93,-3.96 16.558,-0.9 30.781,2.61 44.55,5.94 4.59,1.17 9.45,2.34 14.129,3.33 15.032,3.06 32.762,4.32 49.77,3.69 3.781,-0.18 8.012,-0.45 10.891,-1.35 2.429,-0.81 3.871,-1.98 5.308,-3.24 0.902,-0.81 1.801,-1.62 3.063,-2.43 10.257,-6.3 34.738,-5.94 44.73,-5.4 14.848,0.72 29.789,2.25 44.188,3.69 27.812,2.79 54.089,5.49 80.371,2.97 10.711,-1.08 20.879,-2.97 30.781,-4.77 9.809,-1.89 19.98,-3.78 30.867,-4.86 8.551,-0.9 17.012,-1.26 25.563,-1.26 23.937,0 47.968,2.88 71.461,5.76 9.808,1.17 19.976,2.34 29.968,3.33 22.5,2.25 45.719,3.24 69.032,3.51 v -8.82 c -6.301,0 -12.961,-0.18 -19.262,-0.9 -7.11,-0.9 -13.32,-2.43 -18.988,-4.05 -4.141,-1.08 -8.372,-2.43 -12.063,-3.87 H 636.93 m -364.68,5.31 c 2.25,0.18 4.5,0.27 6.84,0.27 -2.34,0 -4.59,-0.09 -6.84,-0.27 m 6.84,0.27 c 0.719,0.09 1.531,0.09 2.34,0.09 -0.809,0 -1.621,0 -2.34,-0.09 m 189.629,0.18 c 2.883,0 5.761,0.09 8.64,0.09 -2.879,0 -5.757,-0.09 -8.64,-0.09 m 17.281,0.18 c -1.441,0 -2.879,0 -4.32,0 1.441,0 2.879,0 4.32,0 m -187.379,0.99 c -2.16,0.27 -4.32,0.45 -6.48,0.63 2.16,-0.18 4.32,-0.36 6.48,-0.63 m 193.949,1.26 c -1.8,0 -3.601,0.09 -5.398,0.09 1.797,0 3.598,-0.09 5.398,-0.09 m 76.231,-8.19 v 0 m -136.082,0 v 0 m -81.989,0 v 0 m -183.781,0 v 0 m -41.398,0 h -19.172 v 5.31 2.43 c 4.23,-0.36 8.101,-1.17 11.609,-1.89 l 16.024,-3.15 c 3.957,-0.81 8.008,-1.62 11.699,-2.7 h -20.16" /></clipPath><clipPath
       id="clipPath2224"
       clipPathUnits="userSpaceOnUse"><path
         style="clip-rule:evenodd"
         id="path2222"
         d="m 1602.63,118.469 h -86.49 c -4.5,3.062 -9.27,6.121 -14.31,8.371 -0.99,0.539 -2.07,0.992 -3.15,1.441 -3.6,1.528 -6.93,2.969 -9.45,5.309 -1.71,1.621 -2.79,3.961 -2.79,6.121 0,-2.16 1.08,-4.5 2.79,-6.121 2.52,-2.34 5.85,-3.781 9.45,-5.309 1.08,-0.449 2.16,-0.902 3.15,-1.441 5.04,-2.25 9.81,-5.309 14.31,-8.371 h -9 c -2.52,1.531 -5.04,2.883 -7.56,4.14 -0.99,0.45 -2.07,0.903 -3.06,1.352 -3.87,1.621 -7.83,3.238 -10.98,6.211 -1.53,1.527 -2.79,3.328 -3.51,5.398 -2.52,-2.07 -5.76,-3.332 -9.27,-3.332 -5.13,0 -9.54,2.614 -12.24,6.571 -0.36,-0.719 -0.72,-1.348 -1.17,-1.977 -3.15,-4.863 -7.65,-8.461 -12.42,-12.152 -3.51,-2.7 -7.02,-5.219 -10.53,-7.828 v 5.937 c 2.52,1.891 5.13,3.781 7.56,5.672 4.59,3.508 8.64,6.84 11.43,11.07 1.08,1.707 2.07,3.508 2.79,5.399 -0.72,-1.891 -1.71,-3.692 -2.79,-5.399 -2.79,-4.23 -6.84,-7.562 -11.43,-11.07 -2.43,-1.891 -5.04,-3.781 -7.56,-5.672 v 54.813 5.039 c 8.28,-2.879 16.2,-7.11 23.13,-12.692 2.79,-2.25 5.76,-5.039 6.75,-8.82 0.09,-0.27 0.09,-0.629 0.18,-0.899 1.89,0.899 4.05,1.442 6.3,1.442 7.56,0 13.86,-5.672 14.67,-13.141 1.44,0.629 2.88,1.078 4.14,1.438 14.76,4.051 29.16,7.742 43.29,7.742 7.74,0 14.58,-1.082 21.06,-3.242 0.9,-0.27 1.89,-0.629 2.79,-0.989 -1.89,7.829 -3.15,15.661 -3.15,23.399 0,7.203 0.99,13.5 3.15,19.531 2.16,5.762 5.22,10.891 8.19,15.93 l 27.9,46.801 v -9.36 -90.269 c -3.15,-4.141 -6.12,-8.551 -8.46,-13.231 -0.45,-0.992 -0.99,-1.98 -1.44,-2.972 -0.45,-0.989 -0.81,-1.887 -1.26,-2.789 0.45,0.902 0.81,1.8 1.26,2.789 0.45,0.992 0.99,1.98 1.44,2.972 2.34,4.68 5.31,9.09 8.46,13.231 v -8.371 c -1.53,-2.25 -2.97,-4.59 -4.14,-7.02 -0.45,-0.902 -0.9,-1.891 -1.35,-2.789 -0.45,-1.082 -0.99,-2.16 -1.53,-3.152 l 14.85,-8.192 v 47.614 5.039 c 8.28,-2.879 16.2,-7.11 23.22,-12.692 2.7,-2.25 5.67,-5.039 6.66,-8.82 0.27,-1.078 0.36,-2.16 0.36,-3.149 0,-2.429 -0.63,-4.859 -1.35,-7.289 -1.44,-4.679 -3.06,-9.632 -5.94,-13.859 -3.15,-4.863 -7.65,-8.461 -12.42,-12.152 -0.09,-0.09 -0.27,-0.18 -0.36,-0.27 l 10.71,-5.941 h -10.08 -8.64 c -0.72,-0.539 -1.44,-1.078 -2.16,-1.617 v 1.617 m 24.3,33.57 c -1.35,-4.5 -2.79,-8.82 -5.31,-12.508 -2.79,-4.23 -6.84,-7.562 -11.43,-11.07 -0.63,-0.539 -1.35,-0.992 -1.98,-1.531 0.63,0.539 1.35,0.992 1.98,1.531 4.59,3.508 8.64,6.84 11.43,11.07 2.52,3.688 3.96,8.008 5.31,12.508 0.63,2.07 1.17,4.231 1.17,6.031 0,-1.8 -0.54,-3.961 -1.17,-6.031 m -62.64,-1.078 c -2.34,8.82 -3.96,17.461 -3.96,25.918 0,-8.457 1.62,-17.098 3.96,-25.918 m -102.51,5.758 c 0,0.453 0.09,0.902 0.09,1.351 0,-0.449 -0.09,-0.898 -0.09,-1.351 m 294.21,-38.25 v 0 m -7.02,0 h -61.56 -5.76 c 2.34,4.773 5.13,9.812 9.36,13.863 -0.54,-0.094 -1.17,-0.094 -1.71,-0.094 -8.1,0 -14.76,6.571 -14.76,14.672 0,8.192 6.66,14.762 14.76,14.762 8.1,0 14.76,-6.57 14.76,-14.762 0,-2.969 -0.9,-5.758 -2.43,-8.101 3.69,1.351 7.65,1.89 11.61,1.89 5.58,0 11.07,-1.078 16.02,-2.969 -4.05,13.321 -7.47,26.372 -7.47,39.149 0,7.203 0.99,13.5 3.24,19.531 2.07,5.762 5.13,10.891 8.1,15.93 l 27.9,46.801 v -9.36 -90.269 c -3.15,-4.141 -6.12,-8.551 -8.46,-13.231 -0.45,-0.992 -0.9,-1.98 -1.44,-2.972 -1.44,-3.329 -2.88,-6.387 -5.22,-8.727 -0.18,-0.184 -0.45,-0.363 -0.63,-0.543 0.18,0.18 0.45,0.359 0.63,0.543 2.34,2.34 3.78,5.398 5.22,8.727 0.54,0.992 0.99,1.98 1.44,2.972 2.34,4.68 5.31,9.09 8.46,13.231 v -8.371 c -1.53,-2.25 -2.97,-4.59 -4.14,-7.02 -0.45,-0.902 -0.9,-1.891 -1.35,-2.789 -1.62,-3.602 -3.33,-7.203 -6.3,-10.172 -1.17,-1.172 -2.52,-2.07 -4.05,-2.699 3.87,-3.152 7.47,-6.57 10.8,-9.992 h -7.02 m -50.94,13.23 c 0.72,0.449 1.53,0.903 2.34,1.352 -0.81,-0.449 -1.62,-0.903 -2.34,-1.352 m 42.21,0.36 c 0.27,0 0.54,0 0.81,0.089 -0.27,-0.089 -0.54,-0.089 -0.81,-0.089 m -11.52,0.722 c -2.61,1.078 -5.58,1.981 -8.55,2.52 2.97,-0.539 5.94,-1.442 8.55,-2.52 m 5.4,5.399 c 0.27,-1.078 0.54,-2.16 0.99,-3.059 -0.45,0.899 -0.72,1.981 -0.99,3.059 -3.96,13.23 -7.56,26.191 -7.56,38.699 0,-12.508 3.6,-25.469 7.56,-38.699 m -23.04,-2.34 c 0.72,0 1.44,0.09 2.16,0.09 -0.72,0 -1.44,-0.09 -2.16,-0.09 m -42.48,41.039 c -1.71,1.531 -3.42,3.152 -4.68,5.312 -1.17,2.071 -1.71,4.141 -2.07,5.848 -1.98,9.813 -0.27,20.34 4.77,28.981 2.79,4.769 6.57,9 11.07,12.332 v -6.211 -47.071 c -2.07,1.352 -4.05,2.789 -5.94,4.41 -1.35,1.262 -2.79,2.52 -3.69,4.141 -0.63,1.078 -1.08,2.43 -1.44,4.41 -0.45,2.16 -0.72,4.41 -0.72,6.571 0,-2.161 0.27,-4.411 0.72,-6.571 0.36,-1.98 0.81,-3.332 1.44,-4.41 0.9,-1.621 2.34,-2.879 3.69,-4.141 1.89,-1.621 3.87,-3.058 5.94,-4.41 v -5.761 c -3.24,1.89 -6.21,4.14 -9.09,6.57 m -166.23,0 c -1.71,1.531 -3.42,3.152 -4.68,5.312 -1.17,2.071 -1.71,4.141 -2.07,5.848 -1.98,9.813 -0.27,20.34 4.77,28.981 2.79,4.769 6.57,9 11.07,12.332 v -6.211 -47.071 c -2.07,1.352 -4.05,2.789 -5.94,4.41 -1.35,1.262 -2.79,2.52 -3.69,4.141 -0.63,1.078 -1.08,2.43 -1.44,4.41 -0.45,2.16 -0.72,4.41 -0.72,6.571 0,-2.161 0.27,-4.411 0.72,-6.571 0.36,-1.98 0.81,-3.332 1.44,-4.41 0.9,-1.621 2.34,-2.879 3.69,-4.141 1.89,-1.621 3.87,-3.058 5.94,-4.41 v -5.761 c -3.24,1.89 -6.21,4.14 -9.09,6.57" /></clipPath></defs><g
     id="g12"
     transform="matrix(0.13333333,0,0,-0.13333333,0,532.85333)"><path
       inkscape:connector-curvature="0"
       d="m 2682.6917,1307.6723 20.524,36.3696 h -101.7915 l 42.2195,-93.0542 0.5404,-0.8678 c 8.2286,2.288 16.7174,3.9446 25.6719,3.9446 61.1419,0 108.8642,-57.3945 92.2692,-121.2189 -8.7059,-33.49 -37.0284,-60.3137 -70.8498,-67.6507 -56.7044,-12.3074 -106.4305,25.877 -114.9037,77.9858 h 20.9855 l -42.0183,61.9308 -42.7442,-61.9308 h 27.1037 c 8.7374,-60.4716 40.5865,-138.181 148.8157,-138.181 84.3641,0 131.4987,56.4477 143.8888,108.9511 10.6466,45.1268 5.7315,98.9712 -22.098,136.0507 -32.0502,42.7206 -61.6627,57.6708 -127.6132,57.6708"
       style="fill:#392a28;fill-opacity:1;fill-rule:nonzero;stroke:none;stroke-width:3.9446454"
       id="path780" /><path
       inkscape:connector-curvature="0"
       d="m 2670.0728,3213.2909 -1656.3368,449.0979 -543.42221,-352.7302 -20.87901,32.1885 557.78472,362.0788 8.2719,-2.2485 1664.6126,-451.3461 -10.0312,-37.0404"
       style="fill:#392a28;fill-opacity:1;fill-rule:nonzero;stroke:none;stroke-width:3.9446454"
       id="path782" /><path
       inkscape:connector-curvature="0"
       d="m 338.15634,2801.7855 v 603.1757 h 304.9842 v -603.1757 h -304.9842"
       style="fill:#392a28;fill-opacity:1;fill-rule:nonzero;stroke:none;stroke-width:3.9446454"
       id="path784" /><path
       inkscape:connector-curvature="0"
       d="m 498.08408,2944.3056 30.46056,30.4921 -138.21643,138.2205 138.21643,138.2202 -30.46056,30.4132 -138.2322,-138.1809 -138.22036,138.1809 -30.44478,-30.4132 138.21643,-138.2202 -138.21643,-138.2205 30.44478,-30.4921 138.22036,138.2598 138.2322,-138.2598"
       style="fill:#d88d36;fill-opacity:1;fill-rule:nonzero;stroke:none;stroke-width:3.9446454"
       id="path786" /><path
       inkscape:connector-curvature="0"
       d="m 533.69241,3269.1076 -12.59131,12.544 -30.44477,-30.4132 43.03608,-43.0361 v 60.9053"
       style="fill:#d88d36;fill-opacity:1;fill-rule:nonzero;stroke:none;stroke-width:3.9446454"
       id="path788" /><path
       inkscape:connector-curvature="0"
       d="m 533.69241,3017.8338 -43.03608,-43.0361 30.44477,-30.4921 12.59131,12.5833 v 60.9449"
       style="fill:#d88d36;fill-opacity:1;fill-rule:nonzero;stroke:none;stroke-width:3.9446454"
       id="path790" /><path
       inkscape:connector-curvature="0"
       d="M 533.69241,2986.4738 H 247.04292 v 239.9923 h 286.64949 v 70.767 h -366.3116 v -381.5262 h 366.3116 v 70.7669"
       style="fill:#f1ae10;fill-opacity:1;fill-rule:nonzero;stroke:none;stroke-width:3.9446454"
       id="path792" /><path
       inkscape:connector-curvature="0"
       d="m 533.69241,3266.4253 h -54.37695 v -326.1038 h 54.37695 v 326.1038"
       style="fill:#f1ae10;fill-opacity:1;fill-rule:nonzero;stroke:none;stroke-width:3.9446454"
       id="path794" /><path
       inkscape:connector-curvature="0"
       d="M 1209.9979,2888.765 H 814.22374 v 436.9878 H 1209.9979 V 2888.765"
       style="fill:#693e54;fill-opacity:1;fill-rule:nonzero;stroke:none;stroke-width:3.9446454"
       id="path796" /><path
       inkscape:connector-curvature="0"
       d="m 1180.2592,903.81963 -31.6479,31.5965 -143.6284,-143.585 -143.6088,143.585 -31.6479,-31.5965 143.62453,-143.6246 -143.62453,-143.6641 31.6479,-31.636 143.6088,143.6245 143.6284,-143.6245 31.6479,31.636 -143.6087,143.6641 143.6087,143.6246"
       style="fill:#d88d36;fill-opacity:1;fill-rule:nonzero;stroke:none;stroke-width:3.9446454"
       id="path798" /><path
       inkscape:connector-curvature="0"
       d="m 1180.2592,1214.9732 -31.6479,31.636 -143.6284,-143.6245 -143.6088,143.6245 -31.6479,-31.636 143.62453,-143.6246 -143.62453,-143.62457 31.6479,-31.6754 143.6088,143.66387 143.6284,-143.66387 31.6479,31.6754 -143.6087,143.62457 143.6087,143.6246"
       style="fill:#d88d36;fill-opacity:1;fill-rule:nonzero;stroke:none;stroke-width:3.9446454"
       id="path800" /><path
       inkscape:connector-curvature="0"
       d="m 1180.2592,1526.1267 -31.6479,31.6361 -143.6284,-143.6245 -143.6088,143.6245 -31.6479,-31.6361 143.62453,-143.6245 -143.62453,-143.6246 31.6479,-31.636 143.6088,143.6245 143.6284,-143.6245 31.6479,31.636 -143.6087,143.6246 143.6087,143.6245"
       style="fill:#d88d36;fill-opacity:1;fill-rule:nonzero;stroke:none;stroke-width:3.9446454"
       id="path802" /><path
       inkscape:connector-curvature="0"
       d="m 1180.2592,1837.2803 -31.6479,31.6756 -143.6284,-143.6245 -143.6088,143.6245 -31.6479,-31.6756 143.62453,-143.585 -143.62453,-143.6245 31.6479,-31.6757 143.6088,143.6246 143.6284,-143.6246 31.6479,31.6757 -143.6087,143.6245 143.6087,143.585"
       style="fill:#d88d36;fill-opacity:1;fill-rule:nonzero;stroke:none;stroke-width:3.9446454"
       id="path804" /><path
       inkscape:connector-curvature="0"
       d="m 1180.2592,2148.4734 -31.6479,31.6361 -143.6284,-143.6245 -143.6088,143.6245 -31.6479,-31.6361 143.62453,-143.6245 -143.62453,-143.6246 31.6479,-31.6754 143.6088,143.6639 143.6284,-143.6639 31.6479,31.6754 -143.6087,143.6246 143.6087,143.6245"
       style="fill:#d88d36;fill-opacity:1;fill-rule:nonzero;stroke:none;stroke-width:3.9446454"
       id="path806" /><path
       inkscape:connector-curvature="0"
       d="m 1180.2592,2459.627 -31.6479,31.6361 -143.6284,-143.6245 -143.6088,143.6245 -31.6479,-31.6361 143.62453,-143.6245 -143.62453,-143.6246 31.6479,-31.6361 143.6088,143.6246 143.6284,-143.6246 31.6479,31.6361 -143.6087,143.6246 143.6087,143.6245"
       style="fill:#d88d36;fill-opacity:1;fill-rule:nonzero;stroke:none;stroke-width:3.9446454"
       id="path808" /><path
       inkscape:connector-curvature="0"
       d="m 1180.2592,2770.8202 -31.6479,31.636 -143.6284,-143.6245 -143.6088,143.6245 -31.6479,-31.636 143.62453,-143.6246 -143.62453,-143.6246 31.6479,-31.6754 143.6088,143.6244 143.6284,-143.6244 31.6479,31.6754 -143.6087,143.6246 143.6087,143.6246"
       style="fill:#d88d36;fill-opacity:1;fill-rule:nonzero;stroke:none;stroke-width:3.9446454"
       id="path810" /><path
       inkscape:connector-curvature="0"
       d="M 1136.4539,642.92073 H 887.10897 V 2796.9338 H 1136.4539 Z M 813.5926,2888.765 V 560.16213 h 396.4053 V 2888.765 H 813.5926"
       style="fill:#f1ae10;fill-opacity:1;fill-rule:nonzero;stroke:none;stroke-width:3.9446454"
       id="path812" /><path
       inkscape:connector-curvature="0"
       d="M 1184.4208,884.29363 H 845.53635 v 63.9427 h 338.88445 v -63.9427"
       style="fill:#f1ae10;fill-opacity:1;fill-rule:nonzero;stroke:none;stroke-width:3.9446454"
       id="path814" /><path
       inkscape:connector-curvature="0"
       d="M 1184.4208,1200.8119 H 845.53635 v 63.9032 h 338.88445 v -63.9032"
       style="fill:#f1ae10;fill-opacity:1;fill-rule:nonzero;stroke:none;stroke-width:3.9446454"
       id="path816" /><path
       inkscape:connector-curvature="0"
       d="M 1184.4208,1517.2907 H 845.53635 v 63.9427 h 338.88445 v -63.9427"
       style="fill:#f1ae10;fill-opacity:1;fill-rule:nonzero;stroke:none;stroke-width:3.9446454"
       id="path818" /><path
       inkscape:connector-curvature="0"
       d="M 1184.4208,1833.7697 H 845.53635 v 63.9427 h 338.88445 v -63.9427"
       style="fill:#f1ae10;fill-opacity:1;fill-rule:nonzero;stroke:none;stroke-width:3.9446454"
       id="path820" /><path
       inkscape:connector-curvature="0"
       d="M 1184.4208,2150.288 H 845.53635 v 63.9031 h 338.88445 v -63.9031"
       style="fill:#f1ae10;fill-opacity:1;fill-rule:nonzero;stroke:none;stroke-width:3.9446454"
       id="path822" /><path
       inkscape:connector-curvature="0"
       d="M 1184.4208,2466.7668 H 845.53635 v 63.9427 h 338.88445 v -63.9427"
       style="fill:#f1ae10;fill-opacity:1;fill-rule:nonzero;stroke:none;stroke-width:3.9446454"
       id="path824" /><path
       inkscape:connector-curvature="0"
       d="m 790.57165,2944.3056 30.44873,30.4921 -138.21643,138.2205 138.21643,138.2202 -30.44873,30.4132 -138.21643,-138.1809 -138.21641,138.1809 -30.46451,-30.4132 138.21643,-138.2202 -138.21643,-138.2205 30.46451,-30.4921 138.21641,138.2598 138.21643,-138.2598"
       style="fill:#d88d36;fill-opacity:1;fill-rule:nonzero;stroke:none;stroke-width:3.9446454"
       id="path826" /><path
       inkscape:connector-curvature="0"
       d="m 1090.0412,2944.3056 30.4488,30.4921 -138.21647,138.2205 138.21647,138.2202 -30.4488,30.4132 -138.23217,-138.1809 -138.21643,138.1809 -30.46449,-30.4132 138.21643,-138.2202 -138.21643,-138.2205 30.46449,-30.4921 138.21643,138.2598 138.23217,-138.2598"
       style="fill:#d88d36;fill-opacity:1;fill-rule:nonzero;stroke:none;stroke-width:3.9446454"
       id="path828" /><path
       inkscape:connector-curvature="0"
       d="m 1389.495,2944.3056 30.4488,30.4921 -138.2165,138.2205 138.2165,138.2202 -30.4488,30.4132 -138.2164,-138.1809 -138.2164,138.1809 -30.4645,-30.4132 138.2164,-138.2202 -138.2164,-138.2205 30.4645,-30.4921 138.2164,138.2598 138.2164,-138.2598"
       style="fill:#d88d36;fill-opacity:1;fill-rule:nonzero;stroke:none;stroke-width:3.9446454"
       id="path830" /><path
       inkscape:connector-curvature="0"
       d="m 1688.9331,2944.3056 30.4645,30.4921 -138.2165,138.2205 138.2165,138.2202 -30.4645,30.4132 -138.2165,-138.1809 -138.2164,138.1809 -30.4487,-30.4132 138.2164,-138.2202 -138.2164,-138.2205 30.4487,-30.4921 138.2164,138.2598 138.2165,-138.2598"
       style="fill:#d88d36;fill-opacity:1;fill-rule:nonzero;stroke:none;stroke-width:3.9446454"
       id="path832" /><path
       inkscape:connector-curvature="0"
       d="m 1988.3868,2944.3056 30.4487,30.4921 -138.2163,138.2205 138.2163,138.2202 -30.4487,30.4132 -138.2163,-138.1809 -138.2165,138.1809 -30.4487,-30.4132 138.2164,-138.2202 -138.2164,-138.2205 30.4487,-30.4921 138.2165,138.2598 138.2163,-138.2598"
       style="fill:#d88d36;fill-opacity:1;fill-rule:nonzero;stroke:none;stroke-width:3.9446454"
       id="path834" /><path
       inkscape:connector-curvature="0"
       d="m 2287.8564,2944.3056 30.4487,30.4921 -138.2322,138.2205 138.2322,138.2202 -30.4487,30.4132 -138.2321,-138.1809 -138.2165,138.1809 -30.4645,-30.4132 138.2203,-138.2202 -138.2203,-138.2205 30.4645,-30.4921 138.2165,138.2598 138.2321,-138.2598"
       style="fill:#d88d36;fill-opacity:1;fill-rule:nonzero;stroke:none;stroke-width:3.9446454"
       id="path836" /><path
       inkscape:connector-curvature="0"
       d="m 2587.3102,2944.3056 30.4488,30.4921 -138.2165,138.2205 138.2165,138.2202 -30.4488,30.4132 -138.2165,-138.1809 -138.2162,138.1809 -30.4764,-30.4132 138.2163,-138.2202 -138.2163,-138.2205 30.4764,-30.4921 138.2162,138.2598 138.2165,-138.2598"
       style="fill:#d88d36;fill-opacity:1;fill-rule:nonzero;stroke:none;stroke-width:3.9446454"
       id="path838" /><path
       inkscape:connector-curvature="0"
       d="m 539.53048,2986.4738 v 239.9923 H 2612.4573 V 2986.4738 Z M 2675.2483,3297.2331 H 459.88415 V 2915.7069 H 2675.2483 v 381.5262"
       style="fill:#f1ae10;fill-opacity:1;fill-rule:nonzero;stroke:none;stroke-width:3.9446454"
       id="path840" /><path
       inkscape:connector-curvature="0"
       d="m 771.80302,2940.3215 v 326.1038 h 61.52859 v -326.1038 h -61.52859"
       style="fill:#f1ae10;fill-opacity:1;fill-rule:nonzero;stroke:none;stroke-width:3.9446454"
       id="path842" /><path
       inkscape:connector-curvature="0"
       d="m 1076.3888,2940.3215 v 326.1038 h 61.5286 v -326.1038 h -61.5286"
       style="fill:#f1ae10;fill-opacity:1;fill-rule:nonzero;stroke:none;stroke-width:3.9446454"
       id="path844" /><path
       inkscape:connector-curvature="0"
       d="m 1380.9746,2940.3215 v 326.1038 h 61.5246 v -326.1038 h -61.5246"
       style="fill:#f1ae10;fill-opacity:1;fill-rule:nonzero;stroke:none;stroke-width:3.9446454"
       id="path846" /><path
       inkscape:connector-curvature="0"
       d="m 1685.5446,2940.3215 v 326.1038 h 61.5404 v -326.1038 h -61.5404"
       style="fill:#f1ae10;fill-opacity:1;fill-rule:nonzero;stroke:none;stroke-width:3.9446454"
       id="path848" /><path
       inkscape:connector-curvature="0"
       d="m 1990.1304,2940.3215 v 326.1038 h 61.5245 v -326.1038 h -61.5245"
       style="fill:#f1ae10;fill-opacity:1;fill-rule:nonzero;stroke:none;stroke-width:3.9446454"
       id="path850" /><path
       inkscape:connector-curvature="0"
       d="m 2294.7122,2940.3215 v 326.1038 h 61.5444 v -326.1038 h -61.5444"
       style="fill:#f1ae10;fill-opacity:1;fill-rule:nonzero;stroke:none;stroke-width:3.9446454"
       id="path852" /><path
       inkscape:connector-curvature="0"
       d="m 2617.759,3270.6067 v -38.8154 l 19.3998,19.4471 z"
       style="fill:#d88d36;fill-opacity:1;fill-rule:nonzero;stroke:none;stroke-width:3.9446454"
       id="path854" /><path
       inkscape:connector-curvature="0"
       d="m 2617.759,2955.3901 19.3998,19.4076 -19.3998,19.3682 z"
       style="fill:#d88d36;fill-opacity:1;fill-rule:nonzero;stroke:none;stroke-width:3.9446454"
       id="path856" /><path
       inkscape:connector-curvature="0"
       d="m 2800.5222,3115.1086 -50.6807,10.6902 -132.0825,-132.5401 v -36.9614 l 11.9561,-11.9917 147.4627,146.8592 128.9703,-146.8592 30.4803,30.4921 -138.2323,138.2205 2.1261,2.0904"
       style="fill:#d88d36;fill-opacity:1;fill-rule:nonzero;stroke:none;stroke-width:3.9446454"
       id="path858" /><path
       inkscape:connector-curvature="0"
       d="m 2617.759,3297.2331 v -53.1739 l 246.2484,-257.5854 H 2617.759 v -70.7669 h 376.3427 l -318.8534,381.5262 h -57.4893"
       style="fill:#f1ae10;fill-opacity:1;fill-rule:nonzero;stroke:none;stroke-width:3.9446454"
       id="path860" /><path
       inkscape:connector-curvature="0"
       d="m 2617.759,3266.4253 v -326.1038 h 57.3353 v 326.1038 h -57.3353"
       style="fill:#f1ae10;fill-opacity:1;fill-rule:nonzero;stroke:none;stroke-width:3.9446454"
       id="path862" /><path
       inkscape:connector-curvature="0"
       d="M 1082.0454,3568.388 H 941.51745 l 5.74735,10.5717 h 129.0333 l 5.7473,-10.5717"
       style="fill:#d88d36;fill-opacity:1;fill-rule:nonzero;stroke:none;stroke-width:3.9446454"
       id="path864" /><path
       inkscape:connector-curvature="0"
       d="m 841.40631,3325.7528 h 63.09854 l 102.76195,125.5974 98.2769,-125.5974 h 63.0828 l -141.9008,149.3837 55.9193,68.2819 -16.887,9.9009 -57.6904,-58.5384 -55.61166,58.5384 -17.24203,-9.9009 53.45389,-68.2819 -147.26149,-149.3837"
       style="fill:#d88d36;fill-opacity:1;fill-rule:nonzero;stroke:none;stroke-width:3.9446454"
       id="path866" /><path
       inkscape:connector-curvature="0"
       d="m 887.50738,3325.7528 72.23828,218.8489 h 104.06764 l 72.2383,-218.8489 h 73.2836 L 1082.0454,3568.388 H 941.51745 L 814.22374,3325.7528 h 73.28364"
       style="fill:#f1ae10;fill-opacity:1;fill-rule:nonzero;stroke:none;stroke-width:3.9446454"
       id="path868" /><path
       inkscape:connector-curvature="0"
       d="m 1183.8489,3325.7528 -26.086,57.1185 H 871.23571 l -25.14711,-57.1185 h 337.7603"
       style="fill:#f1ae10;fill-opacity:1;fill-rule:nonzero;stroke:none;stroke-width:3.9446454"
       id="path870" /><path
       inkscape:connector-curvature="0"
       d="m 956.14025,3578.9597 h 20.59893 l 33.57682,40.9847 32.0976,-40.9847 h 20.5989 l -46.3496,48.7556 18.2598,22.2873 -5.5146,3.2347 -18.8475,-19.0921 -18.14933,19.0921 -5.64086,-3.2347 17.45899,-22.2873 -48.08915,-48.7556"
       style="fill:#d88d36;fill-opacity:1;fill-rule:nonzero;stroke:none;stroke-width:3.9446454"
       id="path872" /><path
       inkscape:connector-curvature="0"
       d="m 971.19302,3578.9597 23.58897,71.4374 h 34.01071 l 23.5732,-71.4374 h 23.9322 l -41.5608,79.2084 h -45.89989 l -41.57261,-79.2084 h 23.92822"
       style="fill:#f1ae10;fill-opacity:1;fill-rule:nonzero;stroke:none;stroke-width:3.9446454"
       id="path874" /><path
       inkscape:connector-curvature="0"
       d="m 1067.9749,3578.9597 -8.5204,18.6186 h -93.57887 l -8.19697,-18.6186 h 110.29624"
       style="fill:#f1ae10;fill-opacity:1;fill-rule:nonzero;stroke:none;stroke-width:3.9446454"
       id="path876" /><path
       inkscape:connector-curvature="0"
       d="m 763.88218,3325.7528 v -549.489 h 478.53672 l 146.6146,198.3761 -76.3683,351.1129 H 763.88218"
       style="fill:#7e576c;fill-opacity:1;fill-rule:nonzero;stroke:none;stroke-width:3.9446454"
       id="path878" /><path
       inkscape:connector-curvature="0"
       d="m 763.88218,2976.6517 v -200.3879 h 478.53672 l 146.6146,198.3761 -0.4457,2.0118 H 763.88218"
       style="fill:#693e54;fill-opacity:1;fill-rule:nonzero;stroke:none;stroke-width:3.9446454"
       id="path880" /><path
       inkscape:connector-curvature="0"
       d="m 1297.7505,3069.5875 -36.5787,196.8378 h -178.5741 v -196.8378 h 215.1528"
       style="fill:#e1e1e1;fill-opacity:1;fill-rule:nonzero;stroke:none;stroke-width:3.9446454"
       id="path882" /><path
       inkscape:connector-curvature="0"
       d="m 1082.5977,3164.6141 v -95.0266 h 215.1528 l -17.6562,95.0266 h -197.4966"
       style="fill:#c0c2c1;fill-opacity:1;fill-rule:nonzero;stroke:none;stroke-width:3.9446454"
       id="path884" /><path
       inkscape:connector-curvature="0"
       d="M 1484.5373,346.59894 H 545.43167 V 560.16213 H 1484.5373 V 346.59894"
       style="fill:#392a28;fill-opacity:1;fill-rule:nonzero;stroke:none;stroke-width:3.9446454"
       id="path886" /><path
       inkscape:connector-curvature="0"
       d="m 2675.0943,1452.7168 h -57.3353 v 1462.9901 h 57.3353 V 1452.7168"
       style="fill:#392a28;fill-opacity:1;fill-rule:nonzero;stroke:none;stroke-width:3.9446454"
       id="path888" /><path
       inkscape:connector-curvature="0"
       d="m 2742.3388,1333.3519 h -191.8243 v 183.9388 h 191.8243 v -183.9388"
       style="fill:#de9f52;fill-opacity:1;fill-rule:nonzero;stroke:none;stroke-width:3.9446454"
       id="path890" /><path
       inkscape:connector-curvature="0"
       d="m 2550.5145,1426.1695 v -92.8176 h 191.8243 v 92.8176 h -191.8243"
       style="fill:#d88d36;fill-opacity:1;fill-rule:nonzero;stroke:none;stroke-width:3.9446454"
       id="path892" /><g
       id="g2239"
       transform="translate(-4865.1636,950.41246)"><path
         id="path1194"
         style="fill:#7e576c;fill-opacity:1;fill-rule:nonzero;stroke:none;stroke-width:2.619205"
         d="M 8068.3384,-282.4408 H 6831.2564 V 159.26456 L 8068.3384,67.642149 V -282.4408"
         inkscape:connector-curvature="0" /><path
         id="path1196"
         style="fill:#693e54;fill-opacity:1;fill-rule:nonzero;stroke:none;stroke-width:2.619205"
         d="M 6831.2564,-143.30601 V -282.4408 h 1237.082 v 139.13479 h -1237.082"
         inkscape:connector-curvature="0" /><path
         id="path1198"
         style="fill:#493b3a;fill-opacity:1;fill-rule:nonzero;stroke:none;stroke-width:2.619205"
         d="M 8068.3384,26.575632 H 7891.0313 V 67.642149 H 7766.6191 V 26.575632 h -935.3627 v -37.273907 h 935.3627 v -96.407705 h 124.4122 v 96.407705 h 177.3071 v 37.273907"
         inkscape:connector-curvature="0" /><path
         id="path1200"
         style="fill:#f1ae10;fill-opacity:1;fill-rule:nonzero;stroke:none;stroke-width:2.619205"
         d="M 8388.916,479.3288 H 8018.1021 L 7866.2824,155.88841 V -282.4408 h 654.288 5.3719 119.5825 V 131.29145 L 8388.916,479.3288"
         inkscape:connector-curvature="0" /><path
         id="path1202"
         style="fill:#d98a17;fill-opacity:1;fill-rule:nonzero;stroke:none;stroke-width:2.619205"
         d="M 7866.2824,50.046329 V -282.4408 h 779.2424 V 50.046329 h -779.2424"
         inkscape:connector-curvature="0" /><path
         id="path1204"
         style="fill:#221613;fill-opacity:1;fill-rule:nonzero;stroke:none;stroke-width:2.619205"
         d="m 8505.8085,-354.96921 c 0,-183.99916 -149.1925,-333.21213 -333.2022,-333.21213 -184.0201,0 -333.1917,149.21297 -333.1917,333.21213 0,183.99916 149.1716,333.191697 333.1917,333.191697 184.0097,0 333.2022,-149.192537 333.2022,-333.191697"
         inkscape:connector-curvature="0" /><path
         id="path1206"
         style="fill:#c0c2c1;fill-opacity:1;fill-rule:nonzero;stroke:none;stroke-width:2.619205"
         d="m 8341.8829,-354.96921 c 0,-93.47419 -75.784,-169.27661 -169.2766,-169.27661 -93.4846,0 -169.287,75.80242 -169.287,169.27661 0,93.48205 75.8024,169.28708 169.287,169.28708 93.4926,0 169.2766,-75.80503 169.2766,-169.28708"
         inkscape:connector-curvature="0" /><path
         id="path1208"
         style="fill:#221613;fill-opacity:1;fill-rule:nonzero;stroke:none;stroke-width:2.619205"
         d="m 7248.2732,-354.96921 c 0,-183.99916 -149.1847,-333.21213 -333.1917,-333.21213 -184.0202,0 -333.1917,149.21297 -333.1917,333.21213 0,183.99916 149.1715,333.191697 333.1917,333.191697 184.007,0 333.1917,-149.192537 333.1917,-333.191697"
         inkscape:connector-curvature="0" /><path
         id="path1210"
         style="fill:#c0c2c1;fill-opacity:1;fill-rule:nonzero;stroke:none;stroke-width:2.619205"
         d="m 7084.3554,-354.96921 c 0,-93.47419 -75.7814,-169.27661 -169.2739,-169.27661 -93.4847,0 -169.2871,75.80242 -169.2871,169.27661 0,93.48205 75.8024,169.28708 169.2871,169.28708 93.4925,0 169.2739,-75.80503 169.2739,-169.28708"
         inkscape:connector-curvature="0" /><path
         id="path1212"
         style="fill:#4c5659;fill-opacity:1;fill-rule:nonzero;stroke:none;stroke-width:2.619205"
         d="m 8247.7147,-354.96921 c 0,-41.48821 -33.6201,-75.1188 -75.1084,-75.1188 -41.4882,0 -75.1083,33.63059 -75.1083,75.1188 0,41.48821 33.6201,75.09785 75.1083,75.09785 41.4883,0 75.1084,-33.60964 75.1084,-75.09785"
         inkscape:connector-curvature="0" /><path
         id="path1214"
         style="fill:#4c5659;fill-opacity:1;fill-rule:nonzero;stroke:none;stroke-width:2.619205"
         d="m 6990.1872,-354.96921 c 0,-41.48821 -33.6202,-75.1188 -75.1057,-75.1188 -41.4883,0 -75.1084,33.63059 -75.1084,75.1188 0,41.48821 33.6201,75.09785 75.1084,75.09785 41.4855,0 75.1057,-33.60964 75.1057,-75.09785"
         inkscape:connector-curvature="0" /><path
         id="path1216"
         style="fill:#303e77;fill-opacity:1;fill-rule:nonzero;stroke:none;stroke-width:2.619205"
         d="m 8523.8967,155.88841 h -321.7326 v 230.74673 h 195.4791 l 143.8415,-196.0737 c 10.5475,-14.37419 0.275,-34.67303 -17.588,-34.67303"
         inkscape:connector-curvature="0" /><path
         id="path1218"
         style="fill:#6a75a3;fill-opacity:1;fill-rule:nonzero;stroke:none;stroke-width:2.619205"
         d="M 8411.0666,368.35047 8202.1641,253.15783 v -71.29215 l 241.3754,142.19403 -32.4729,44.29076"
         inkscape:connector-curvature="0" /><path
         id="path1220"
         style="fill:#6a75a3;fill-opacity:1;fill-rule:nonzero;stroke:none;stroke-width:2.619205"
         d="M 8490.9812,259.41773 8303.2287,155.88841 h 59.0552 l 142.8882,84.17339 -14.1909,19.35593"
         inkscape:connector-curvature="0" /><path
         id="path1222"
         style="fill:#f1ae10;fill-opacity:1;fill-rule:nonzero;stroke:none;stroke-width:2.619205"
         d="M 6291.9244,465.8949 6197.8069,306.6158 7309.2194,-80.730581 h 340.2505 l 362.0029,635.330101 h 651.619 V 668.17873 H 7913.7346 L 7632.487,465.8949 H 6291.9244"
         inkscape:connector-curvature="0" /><path
         id="path1224"
         style="fill:#d6852c;fill-opacity:1;fill-rule:nonzero;stroke:none;stroke-width:2.619205"
         d="M 7355.1079,382.93944 7197.217,51.088773 7314.9083,10.941597 7501.0762,382.93944 h -145.9683"
         inkscape:connector-curvature="0" /><path
         id="path1226"
         style="fill:#d6852c;fill-opacity:1;fill-rule:nonzero;stroke:none;stroke-width:2.619205"
         d="m 6454.8777,382.93944 -38.0602,-65.48013 248.9366,-84.95915 75.2209,150.43928 h -286.0973"
         inkscape:connector-curvature="0" /><path
         id="path1228"
         style="fill:#d6852c;fill-opacity:1;fill-rule:nonzero;stroke:none;stroke-width:2.619205"
         d="m 6848.2996,382.93944 -87.0886,-183.02743 121.0178,-41.30225 112.1648,224.32968 h -146.094"
         inkscape:connector-curvature="0" /><path
         id="path1230"
         style="fill:#d6852c;fill-opacity:1;fill-rule:nonzero;stroke:none;stroke-width:2.619205"
         d="M 7101.6998,382.93944 6979.2205,125.50039 7097.9648,84.986525 7247.401,382.93944 h -145.7012"
         inkscape:connector-curvature="0" /><path
         id="path1232"
         style="fill:#d6852c;fill-opacity:1;fill-rule:nonzero;stroke:none;stroke-width:2.619205"
         d="M 7607.5024,382.93944 7427.5446,7.9242728 h 179.8347 L 7811.9025,382.93944 h -204.4001"
         inkscape:connector-curvature="0" /><path
         id="path1234"
         style="fill:#f1ae10;fill-opacity:1;fill-rule:nonzero;stroke:none;stroke-width:2.619205"
         d="m 6740.975,382.93944 -75.2209,-150.43928 95.4569,-32.58815 87.0886,183.02743 H 6740.975"
         inkscape:connector-curvature="0" /><path
         id="path1236"
         style="fill:#f1ae10;fill-opacity:1;fill-rule:nonzero;stroke:none;stroke-width:2.619205"
         d="m 6994.3936,382.93944 -112.1648,-224.32968 96.9917,-33.10937 122.4793,257.43905 h -107.3062"
         inkscape:connector-curvature="0" /><path
         id="path1238"
         style="fill:#f1ae10;fill-opacity:1;fill-rule:nonzero;stroke:none;stroke-width:2.619205"
         d="M 7247.401,382.93944 7097.9648,84.986525 7197.217,51.088773 7355.1079,382.93944 H 7247.401"
         inkscape:connector-curvature="0" /><path
         id="path1240"
         style="fill:#f1ae10;fill-opacity:1;fill-rule:nonzero;stroke:none;stroke-width:2.619205"
         d="m 7501.0762,382.93944 -186.1679,-371.997843 8.7482,-3.0173242 h 103.8881 L 7607.5024,382.93944 h -106.4262"
         inkscape:connector-curvature="0" /><path
         id="path1242"
         style="fill:#221613;fill-opacity:1;fill-rule:nonzero;stroke:none;stroke-width:2.619205"
         d="m 8319.5778,67.642149 h -117.4137 v 36.281231 h 117.4137 V 67.642149"
         inkscape:connector-curvature="0" /></g></g></svg>