<svg height="512pt" viewBox="0 -48 512 512" width="512pt" xmlns="http://www.w3.org/2000/svg"><path d="m0 138.628906v232.597656c0 24.8125 20.1875 45 45 45h422c24.8125 0 45-20.1875 45-45v-232.597656zm280.949219 91.8125 36.78125-46.304687c3.96875-4.992188 10.660156-6.933594 16.6875-4.832031 6.023437 2.101562 10.058593 7.785156 10.058593 14.164062v128.4375h11.722657c8.28125 0 15 6.714844 15 15s-6.71875 15-15 15h-53.445313c-8.285156 0-15-6.714844-15-15s6.714844-15 15-15h11.722656v-85.441406l-10.039062 12.636718c-5.152344 6.484376-14.585938 7.566407-21.074219 2.414063s-7.566406-14.589844-2.414062-21.074219zm-83.429688 49.746094h-41.71875c-8.28125 0-15-6.714844-15-15s6.71875-15 15-15h41.71875c8.273438 0 15-6.726562 15-15v-11.71875c0-8.269531-6.726562-15-15-15h-41.71875c-8.28125 0-15-6.714844-15-15s6.71875-15 15-15h41.71875c24.816407 0 45 20.1875 45 45v11.71875c0 11.515625-4.351562 22.03125-11.492187 30 7.140625 7.96875 11.492187 18.484375 11.492187 30v11.71875c0 24.8125-20.183593 45-45 45h-41.71875c-8.28125 0-15-6.714844-15-15s6.71875-15 15-15h41.71875c8.273438 0 15-6.726562 15-15v-11.71875c0-8.269531-6.726562-15-15-15zm0 0" style="fill:#484C4D;"/><path d="m512 108.628906v-33.90625c0-24.816406-20.1875-45-45-45h-24.640625v-14.722656c0-8.285156-6.714844-15-15-15s-15 6.714844-15 15v14.722656h-38.542969v-14.722656c0-8.285156-6.714844-15-15-15s-15 6.714844-15 15v14.722656h-38.542968v-14.722656c0-8.285156-6.71875-15-15-15-8.285157 0-15 6.714844-15 15v14.722656h-38.546876v-14.722656c0-8.285156-6.714843-15-15-15-8.28125 0-15 6.714844-15 15v14.722656h-38.542968v-14.722656c0-8.285156-6.714844-15-15-15s-15 6.714844-15 15v14.722656h-38.542969v-14.722656c0-8.285156-6.714844-15-15-15s-15 6.714844-15 15v14.722656h-24.640625c-24.8125 0-45 20.183594-45 45v33.90625zm0 0" style="fill:#484C4D;"/></svg>