<?xml version="1.0" ?><svg height="512" width="512" enable-background="new 0 0 24 24" id="Layer_1" version="1.1" viewBox="0 0 24 24" xml:space="preserve" xmlns="http://www.w3.org/2000/svg" xmlns:xlink="http://www.w3.org/1999/xlink"><g><path d="   M15.9907227,1.1195475C15.3981123,0.5,14.0463867,0.5,12,0.5s-3.3981123,0-3.9907227,0.6195475   C7.3924966,1.7643636,6.5,5.3276978,6.5,10.083333c0,4.3522749,0.8280435,12.1125288,1.5155439,12.8036699   C8.5965166,23.47052,9.907959,23.5,12,23.5s3.4034834-0.02948,3.9844561-0.6129971   C16.671957,22.1958618,17.5,14.4356079,17.5,10.083333C17.5,4.7025352,16.5743809,1.7297363,15.9907227,1.1195475z" fill="none" stroke="#303C42" stroke-linecap="round" stroke-linejoin="round" stroke-miterlimit="10"/><path d="   M15.9999876,1.016129C15.5000057,0.5,14.0322208,0.5,12,0.5s-3.5000057,0-3.9999876,0.516129   C7.476532,1.5564516,6.5,5.2232862,6.5,10.3064518C6.5,12.8870964,8.6995974,16.5,12,16.5s5.5-3.6129036,5.5-6.1935482   C17.5,4.5141129,16.4697571,1.501008,15.9999876,1.016129z" fill="none" stroke="#303C42" stroke-linecap="round" stroke-linejoin="round" stroke-miterlimit="10"/><path d="M6.5,9   c0,1.5737457,0.9944825,3.0267963,2.5,4c0,0,1.5-0.5,3-0.5s3,0.5,3,0.5c1.505518-0.9732037,2.5-2.4262543,2.5-4" fill="none" stroke="#303C42" stroke-linecap="round" stroke-linejoin="round" stroke-miterlimit="10"/><path d="M15,10.5H9   c-0.2761421,0-0.5-0.2238579-0.5-0.5V6c0-0.2761426,0.2238579-0.5,0.5-0.5h6c0.2761421,0,0.5,0.2238574,0.5,0.5v4   C15.5,10.2761421,15.2761421,10.5,15,10.5z" fill="none" stroke="#303C42" stroke-linecap="round" stroke-linejoin="round" stroke-miterlimit="10"/><line fill="none" stroke="#303C42" stroke-linecap="round" stroke-linejoin="round" stroke-miterlimit="10" x1="12" x2="12" y1="2.5" y2="3.5"/></g><g/><g/><g/><g/><g/><g/><g/><g/><g/><g/><g/><g/><g/><g/><g/></svg>