<svg height="512pt" viewBox="0 -48 512.00004 512" width="512pt" xmlns="http://www.w3.org/2000/svg"><path d="m225.625 103.695312h-43.386719c-4.792969 0-8.679687-3.886718-8.679687-8.679687 0-4.789063 3.886718-8.675781 8.679687-8.675781h43.386719c4.792969 0 8.679688 3.882812 8.679688 8.675781s-3.882813 8.679687-8.679688 8.679687zm0 0" fill="#a8a8a8"/><path d="m225.625 34.273438h-43.386719c-4.792969 0-8.679687-3.886719-8.679687-8.679688s3.886718-8.679688 8.679687-8.679688h43.386719c4.792969 0 8.679688 3.886719 8.679688 8.679688s-3.882813 8.679688-8.679688 8.679688zm0 0" fill="#a8a8a8"/><path d="m390.507812 251.222656h-269.015624l28.480468-78.320312c3.738282-10.285156 13.511719-17.132813 24.453125-17.140625h170.167969c11.730469.015625 22.003906 7.871093 25.085938 19.1875zm0 0" fill="#99d8aa"/><path d="m442.574219 364.035156h-407.863281c-9.585938 0-17.355469-7.773437-17.355469-17.355468v-42.324219c.003906-15.925781 10.84375-29.808594 26.296875-33.671875l77.839844-19.460938h303.730468c19.167969 0 34.710938 15.539063 34.710938 34.710938v60.746094c0 9.582031-7.773438 17.355468-17.359375 17.355468zm0 0" fill="#99d8aa"/><path d="m216.949219 103.695312v-86.78125h43.390625c14.378906 0 26.035156 11.65625 26.035156 26.035157v34.710937c0 14.378906-11.65625 26.035156-26.035156 26.035156zm0 0" fill="#b9b9b9"/><path d="m234.304688 155.761719v95.460937h-112.8125l28.480468-78.320312c3.738282-10.285156 13.511719-17.132813 24.453125-17.140625zm0 0" fill="#b3e4e8"/><path d="m277.695312 155.761719v95.460937h112.8125l-20.828124-76.273437c-3.082032-11.316407-13.355469-19.171875-25.085938-19.1875zm0 0" fill="#b3e4e8"/><path d="m156.203125 355.355469c0 28.757812-23.3125 52.070312-52.066406 52.070312-28.757813 0-52.070313-23.3125-52.070313-52.070312 0-28.753907 23.3125-52.066407 52.070313-52.066407 28.753906 0 52.066406 23.3125 52.066406 52.066407zm0 0" fill="#b9b9b9"/><path d="m121.492188 355.355469c0 9.585937-7.769532 17.355469-17.355469 17.355469-9.585938 0-17.355469-7.769532-17.355469-17.355469 0-9.585938 7.769531-17.355469 17.355469-17.355469 9.585937 0 17.355469 7.769531 17.355469 17.355469zm0 0" fill="#d9d9d9"/><path d="m425.21875 355.355469c0 28.757812-23.308594 52.070312-52.066406 52.070312-28.757813 0-52.066406-23.3125-52.066406-52.070312 0-28.753907 23.308593-52.066407 52.066406-52.066407 28.757812 0 52.066406 23.3125 52.066406 52.066407zm0 0" fill="#b9b9b9"/><path d="m390.507812 355.355469c0 9.585937-7.769531 17.355469-17.355468 17.355469-9.585938 0-17.355469-7.769532-17.355469-17.355469 0-9.585938 7.769531-17.355469 17.355469-17.355469 9.585937 0 17.355468 7.769531 17.355468 17.355469zm0 0" fill="#d9d9d9"/><path d="m104.136719 329.324219c-14.378907 0-26.035157 11.652343-26.035157 26.03125 0 14.378906 11.65625 26.035156 26.035157 26.035156 14.378906 0 26.03125-11.65625 26.03125-26.035156 0-14.378907-11.65625-26.03125-26.03125-26.03125zm0 34.710937c-4.792969 0-8.679688-3.886718-8.679688-8.679687s3.886719-8.675781 8.679688-8.675781 8.675781 3.882812 8.675781 8.675781-3.882812 8.679687-8.675781 8.679687zm0 0"/><path d="m373.152344 329.324219c-14.378906 0-26.035156 11.652343-26.035156 26.03125 0 14.378906 11.65625 26.035156 26.035156 26.035156s26.035156-11.65625 26.035156-26.035156c0-14.378907-11.65625-26.03125-26.035156-26.03125zm0 34.710937c-4.792969 0-8.679688-3.886718-8.679688-8.679687s3.886719-8.675781 8.679688-8.675781c4.792968 0 8.679687 3.882812 8.679687 8.675781s-3.886719 8.679687-8.679687 8.679687zm0 0"/><path d="m485.964844 51.628906h-190.914063v-8.679687c0-19.171875-15.542969-34.710938-34.710937-34.710938h-43.390625c-4.792969 0-8.679688 3.882813-8.679688 8.675781h-26.03125c-4.792969 0-8.679687 3.886719-8.679687 8.679688s3.886718 8.679688 8.679687 8.679688h26.03125v52.066406h-26.03125c-4.792969 0-8.679687 3.886718-8.679687 8.679687 0 4.789063 3.886718 8.675781 8.679687 8.675781h26.03125c0 4.792969 3.886719 8.679688 8.679688 8.679688h43.390625c19.167968 0 34.710937-15.542969 34.710937-34.714844v-8.675781h190.914063c4.792968 0 8.679687 3.882813 8.679687 8.675781v216.949219c0 4.792969-3.886719 8.679687-8.679687 8.679687h-17.355469v-17.355468c-.027344-23.953125-19.4375-43.363282-43.390625-43.390625h-28.082031l-19.089844-69.875c-4.128906-15.078125-17.816406-25.546875-33.453125-25.582031h-170.167969c-14.585937.023437-27.609375 9.148437-32.617187 22.847656l-26.902344 73.988281-73.355469 18.335937c-19.332031 4.8125-32.890625 22.179688-32.871093 42.097657v42.324219c0 14.375 11.652343 26.03125 26.03125 26.03125h11.28125c9.636718 32.136718 43.5 50.375 75.636718 40.738281 19.5625-5.867188 34.867188-21.171875 40.734375-40.738281h152.648438c9.636719 32.136718 43.496093 50.375 75.632812 40.738281 19.5625-5.867188 34.871094-21.171875 40.738281-40.738281h11.195313c14.375 0 26.03125-11.65625 26.03125-26.03125v-26.035157h17.355469c14.378906 0 26.035156-11.65625 26.035156-26.035156v-216.949219c0-14.375-11.65625-26.03125-26.035156-26.03125zm-208.269532 26.03125c0 9.585938-7.769531 17.355469-17.355468 17.355469h-34.710938v-69.421875h34.710938c9.585937 0 17.355468 7.769531 17.355468 17.355469zm66.898438 86.78125c7.824219.003906 14.679688 5.242188 16.738281 12.792969l17.808594 65.308594h-92.769531v-78.101563zm-101.609375 78.101563v-78.101563h26.03125v78.101563zm-84.855469-66.679688c2.507813-6.84375 9.011719-11.402343 16.296875-11.421875h51.199219v78.101563h-91.742188zm-53.992187 222.882813c-23.964844 0-43.390625-19.425782-43.390625-43.390625 0-23.964844 19.425781-43.390625 43.390625-43.390625 23.964843 0 43.390625 19.425781 43.390625 43.390625-.03125 23.953125-19.441406 43.363281-43.390625 43.390625zm269.015625 0c-23.964844 0-43.390625-19.425782-43.390625-43.390625 0-23.964844 19.425781-43.390625 43.390625-43.390625s43.390625 19.425781 43.390625 43.390625c-.03125 23.953125-19.4375 43.363281-43.390625 43.390625zm78.101562-52.066406c0 4.792968-3.882812 8.675781-8.679687 8.675781h-8.675781c0-33.546875-27.195313-60.746094-60.746094-60.746094-33.550782 0-60.746094 27.199219-60.746094 60.746094h-147.523438c0-33.546875-27.199218-60.746094-60.746093-60.746094-33.550781 0-60.746094 27.199219-60.746094 60.746094h-8.679687c-4.792969 0-8.675782-3.882813-8.675782-8.675781v-42.324219c-.003906-11.945313 8.125-22.363281 19.714844-25.261719l76.808594-19.195312h302.660156c14.378906 0 26.035156 11.65625 26.035156 26.035156zm0 0"/><path d="m84.238281 36.8125c-3.390625-3.386719-8.882812-3.386719-12.273437 0l-26.03125 26.035156c-3.390625 3.390625-3.386719 8.882813 0 12.273438 1.628906 1.625 3.832031 2.539062 6.132812 2.539062h13.765625l-11.222656 11.222656c-3.445313 3.328126-3.542969 8.824219-.210937 12.269532 3.328124 3.449218 8.820312 3.542968 12.269531.214844.074219-.070313.144531-.140626.214843-.214844l26.03125-26.035156c3.390626-3.386719 3.386719-8.882813 0-12.269532-1.628906-1.628906-3.832031-2.542968-6.132812-2.542968h-13.765625l11.222656-11.21875c3.386719-3.390626 3.386719-8.882813 0-12.273438zm0 0"/><path d="m122.117188 100.433594c1.0625.449218 2.203124.679687 3.359374.675781 3.492188 0 6.648438-2.097656 8-5.320313 3.5625-8.484374 5.390626-17.601562 5.371094-26.804687-.03125-24.886719-13.347656-47.863281-34.929687-60.261719-4.085938-2.5-9.429688-1.214844-11.933594 2.871094-2.5 4.085938-1.214844 9.429688 2.871094 11.933594.140625.085937.285156.167968.429687.242187 16.191406 9.300781 26.183594 26.539063 26.207032 45.214844.015624 6.898437-1.351563 13.726563-4.019532 20.089844-1.855468 4.417969.226563 9.503906 4.644532 11.359375zm0 0"/><path d="m28.125 100.691406c-2.921875-3.800781-8.371094-4.511718-12.171875-1.589844-3.800781 2.921876-4.511719 8.367188-1.589844 12.167969 21.339844 27.792969 60.042969 35.324219 90.25 17.566407 4.1875-2.332032 5.691407-7.617188 3.359375-11.804688-2.335937-4.1875-7.617187-5.691406-11.804687-3.359375-.125.070313-.25.144531-.371094.21875-22.660156 13.316406-51.691406 7.65625-67.6875-13.199219zm0 0"/><path d="m17.355469 68.984375c-.003907-26.273437 19.566406-48.433594 45.636719-51.679687 4.753906-.585938 8.132812-4.910157 7.550781-9.664063-.46875-4.664063-4.628907-8.066406-9.292969-7.5976562-.125.0117187-.25.0273437-.375.046875-34.769531 4.3125002-60.875 33.8593752-60.875 68.8945312v.710937c.0273438 4.625 3.796875 8.351563 8.421875 8.328126.085937 0 .171875-.003907.257813-.007813 4.859374-.164063 8.707031-4.167969 8.675781-9.03125zm0 0"/></svg>