<?xml version="1.0" encoding="UTF-8" standalone="no"?>
<!-- Generator: Adobe Illustrator 19.0.0, SVG Export Plug-In . SVG Version: 6.00 Build 0)  -->

<svg
   xmlns:dc="http://purl.org/dc/elements/1.1/"
   xmlns:cc="http://creativecommons.org/ns#"
   xmlns:rdf="http://www.w3.org/1999/02/22-rdf-syntax-ns#"
   xmlns:svg="http://www.w3.org/2000/svg"
   xmlns="http://www.w3.org/2000/svg"
   xmlns:sodipodi="http://sodipodi.sourceforge.net/DTD/sodipodi-0.dtd"
   xmlns:inkscape="http://www.inkscape.org/namespaces/inkscape"
   version="1.1"
   id="Layer_1"
   x="0px"
   y="0px"
   viewBox="0 0 512 512"
   style="enable-background:new 0 0 512 512;"
   xml:space="preserve"
   sodipodi:docname="sheep.svg"
   inkscape:version="0.92.3 (d244b95, 2018-08-02)"><metadata
   id="metadata93"><rdf:RDF><cc:Work
       rdf:about=""><dc:format>image/svg+xml</dc:format><dc:type
         rdf:resource="http://purl.org/dc/dcmitype/StillImage" /></cc:Work></rdf:RDF></metadata><defs
   id="defs91" /><sodipodi:namedview
   pagecolor="#ffffff"
   bordercolor="#666666"
   borderopacity="1"
   objecttolerance="10"
   gridtolerance="10"
   guidetolerance="10"
   inkscape:pageopacity="0"
   inkscape:pageshadow="2"
   inkscape:window-width="1920"
   inkscape:window-height="1021"
   id="namedview89"
   showgrid="false"
   inkscape:zoom="0.4609375"
   inkscape:cx="256"
   inkscape:cy="256"
   inkscape:window-x="0"
   inkscape:window-y="27"
   inkscape:window-maximized="1"
   inkscape:current-layer="Layer_1" />
<path
   style="fill:#7c797b;stroke-width:0.72881347"
   d="M 288.65354,441.84314 H 268.9887 c -1.58371,0 -2.86642,1.88398 -2.86642,4.20744 v 22.27691 c 0,1.43504 0.49778,2.7746 1.32425,3.54714 0.82429,0.77254 1.86139,0.8753 2.74908,0.27039 l 8.62697,-5.87424 8.62478,5.87424 c 0.38408,0.26091 0.79513,0.38991 1.20691,0.38991 0.53932,0 1.07354,-0.22228 1.54217,-0.6603 0.82502,-0.77254 1.32498,-2.11137 1.32498,-3.54714 v -22.27691 c -10e-4,-2.32346 -1.28489,-4.20744 -2.86788,-4.20744 z"
   id="path2"
   inkscape:connector-curvature="0" />
<path
   style="fill:#efc49a;stroke-width:0.72881347"
   d="m 291.51997,453.38245 v -47.56893 c -0.35566,-0.215 -0.74266,-0.37461 -1.09395,-0.60054 -3.03697,12.25354 -12.34902,21.96425 -24.30302,25.68557 v 22.48462 h 25.39697 z"
   id="path4"
   inkscape:connector-curvature="0" />
<path
   style="opacity:0.15;fill:#231f20;stroke-width:0.72881347;enable-background:new"
   d="m 266.12228,434.93399 v 11.11659 7.33187 14.94504 c 0,1.43504 0.49778,2.7746 1.32425,3.54714 0.82429,0.77254 1.86139,0.8753 2.74908,0.27039 l 8.62697,-5.87424 0.21791,0.14868 v -13.03483 -11.5393 -14.11274 c -3.7235,3.21698 -8.10076,5.70223 -12.91821,7.2014 z"
   id="path6"
   inkscape:connector-curvature="0" />
<path
   style="fill:#7c797b;stroke-width:0.72881347"
   d="m 131.15186,441.84314 h -19.67068 c -1.58371,0 -2.86861,1.88398 -2.86861,4.20744 v 22.27691 c 0,1.43504 0.49997,2.7746 1.32571,3.54714 0.82502,0.77254 1.86139,0.8753 2.74982,0.27039 l 8.62842,-5.87424 8.62915,5.87424 c 0.38409,0.26091 0.79514,0.38991 1.20692,0.38991 0.53786,0 1.07427,-0.22228 1.54289,-0.6603 0.82575,-0.77254 1.32572,-2.11137 1.32572,-3.54714 v -22.27691 c -0.001,-2.32346 -1.28636,-4.20744 -2.86934,-4.20744 z"
   id="path8"
   inkscape:connector-curvature="0" />
<path
   style="fill:#efc49a;stroke-width:0.72881347"
   d="m 134.01974,453.38245 v -45.79281 c -1.63765,-2.27317 -2.98449,-4.78612 -3.91227,-7.49075 -0.56119,0.0248 -1.11509,0.0846 -1.67919,0.0846 -7.26554,0 -14.03549,-2.07202 -19.81644,-5.60312 v 23.07788 35.7257 h 25.4079 z"
   id="path10"
   inkscape:connector-curvature="0" />
<path
   style="opacity:0.15;fill:#231f20;stroke-width:0.72881347;enable-background:new"
   d="m 108.61257,397.00071 v 20.65603 28.39384 7.33187 14.94504 c 0,1.43504 0.49997,2.7746 1.32571,3.54714 0.82502,0.77254 1.86139,0.8753 2.74982,0.27039 l 8.62842,-5.87424 0.21281,0.14504 v -13.03265 -11.5393 -24.1864 -15.68844 c -4.65493,-0.86729 -9.01105,-2.58364 -12.91676,-4.96832 z"
   id="path12"
   inkscape:connector-curvature="0" />
<path
   style="fill:#918d8f;stroke-width:0.72881347"
   d="M 323.21242,441.84314 H 293.7822 c -1.69595,0 -3.06903,1.88398 -3.06903,4.20744 v 22.91098 c 0,1.36507 0.48466,2.64705 1.29875,3.43709 0.81408,0.78784 1.85774,0.98462 2.79572,0.52911 l 13.69076,-6.65771 13.68931,6.65771 c 0.33452,0.16326 0.68144,0.24124 1.02544,0.24124 0.62751,0 1.247,-0.2631 1.77174,-0.77035 0.81409,-0.78931 1.29875,-2.07129 1.29875,-3.43709 v -22.91098 c -7.3e-4,-2.32346 -1.37527,-4.20744 -3.07122,-4.20744 z"
   id="path14"
   inkscape:connector-curvature="0" />
<path
   style="opacity:0.15;fill:#231f20;stroke-width:0.72881347;enable-background:new"
   d="m 294.80692,472.92704 8.82228,-4.2898 v -26.7941 h -9.847 c -1.69595,0 -3.06903,1.88398 -3.06903,4.20744 v 22.91098 c 0,1.36507 0.48466,2.64705 1.29875,3.43709 0.81335,0.78711 1.85701,0.98389 2.795,0.52839 z"
   id="path16"
   inkscape:connector-curvature="0" />
<path
   style="fill:#918d8f;stroke-width:0.72881347"
   d="m 165.70636,441.84314 h -29.42511 c -1.69522,0 -3.06831,1.88398 -3.06831,4.20744 v 22.91098 c 0,1.36507 0.48466,2.64705 1.29802,3.43709 0.81408,0.78784 1.85774,0.98462 2.79645,0.52911 l 13.68712,-6.65771 13.68639,6.65771 c 0.33452,0.16326 0.68144,0.24124 1.02617,0.24124 0.62532,0 1.24554,-0.2631 1.77029,-0.77035 0.81408,-0.78931 1.29801,-2.07129 1.29801,-3.43709 v -22.91098 c 0,-2.32346 -1.37381,-4.20744 -3.06903,-4.20744 z"
   id="path18"
   inkscape:connector-curvature="0" />
<g
   style="opacity:0.15"
   id="g22"
   transform="matrix(0.72881344,0,0,0.72881344,6.0000122,128.31707)">
	<path
   style="fill:#231f20"
   d="m 191.993,435.96 c 0,-3.188 1.884,-5.773 4.21,-5.773 h -17.446 c -2.326,0 -4.21,2.585 -4.21,5.773 v 31.436 c 0,1.873 0.665,3.632 1.781,4.716 1.117,1.081 2.549,1.351 3.837,0.726 l 11.829,-5.753 V 435.96 Z"
   id="path20"
   inkscape:connector-curvature="0" />
</g>
<path
   style="fill:#c6836f;stroke-width:0.72881347"
   d="m 360.40668,279.40083 c -1.14278,0 -2.2994,-0.32287 -3.32411,-0.99848 -2.79355,-1.83806 -3.56609,-5.59364 -1.72729,-8.38572 27.24232,-41.37474 -1.92698,-72.84272 -2.22507,-73.15465 -2.30451,-2.42258 -2.21049,-6.25468 0.21281,-8.56064 2.42185,-2.30378 6.25468,-2.20904 8.55992,0.21281 0.37679,0.3972 9.3033,9.89947 14.16667,25.49899 4.4946,14.41448 6.30424,36.98729 -10.60132,62.66193 -1.16318,1.7681 -3.09308,2.72576 -5.06161,2.72576 z"
   id="path24"
   inkscape:connector-curvature="0" />
<path
   style="fill:#edcf9a;stroke-width:0.72881347"
   d="m 366.6395,322.54148 c 7.81433,-4.77008 12.47947,-13.01806 12.47947,-22.06118 0,-12.19305 -8.65612,-22.85632 -20.58388,-25.35178 0.0284,-0.33452 0.0729,-0.66176 0.11953,-1.00284 0.0729,-0.53568 0.14212,-1.04293 0.14212,-1.58663 0,-17.37054 -14.1317,-31.5015 -31.50078,-31.5015 -3.37222,0 -6.76922,0.61949 -10.38413,1.892 v 0 c -6.65188,-15.96466 -22.11803,-26.28102 -39.40403,-26.28102 -10.24858,0 -20.17429,3.71914 -27.94854,10.47305 -6.37347,-18.41857 -23.72871,-30.79382 -43.18438,-30.79382 -15.81817,0 -30.27783,8.041 -38.68178,21.5102 -0.13045,0.2099 -0.23832,0.42781 -0.32577,0.65156 l -21.43878,42.8535 -38.39608,39.96011 c 0,0 -44.771009,10.46285 -41.087586,23.79867 0.05903,0.21282 0.127542,0.42053 0.203339,0.62387 3.719864,12.09684 13.661608,21.04813 26.114114,23.42333 -2.152915,4.88233 -3.245406,10.04743 -3.245406,15.35027 0,21.01169 17.094319,38.10601 38.106009,38.10601 0.33307,0 0.66249,-0.0197 1.0597,-0.0474 0.20844,-0.0138 0.41761,-0.0284 0.61949,-0.0379 h 7.3e-4 c 0.89498,2.61061 2.21122,5.13012 3.91154,7.49075 l 7.3e-4,43.37096 h 35.56318 v -30.3252 c 6.17232,7.0192 15.06166,11.04517 24.38682,11.04517 12.2827,0 23.37961,-6.89895 28.96086,-18.00461 v 0 c 5.96899,12.48239 18.73343,20.54671 32.51966,20.54671 16.598,0 30.97967,-11.26454 34.9743,-27.39537 0.0233,0.016 0.0481,0.0306 0.0743,0.0466 0.15305,0.0948 0.32141,0.18512 0.52329,0.2857 0.17054,0.0875 0.34035,0.17491 0.49632,0.2682 v 43.53349 h 35.5712 v -43.46644 c 10.61735,-6.26925 17.23643,-17.79252 17.2736,-30.07376 0,-0.0991 -0.003,-0.19823 -0.0117,-0.29735 -0.003,-0.0583 -0.008,-0.11078 -0.008,-0.16253 0.35201,0.0386 0.69966,0.0853 1.05167,0.1341 0.81409,0.11006 1.65514,0.22375 2.52097,0.22375 17.64967,0 32.00876,-14.35908 32.00876,-32.00876 -7.3e-4,-9.85064 -4.54999,-19.03223 -12.48093,-25.18998 z"
   id="path26"
   inkscape:connector-curvature="0" />
<g
   id="g32"
   transform="matrix(0.72881344,0,0,0.72881344,6.0000122,128.31707)">
	<path
   style="fill:#efc49a"
   d="m 209.921,167.92 c 0,-15.187 -3.572,-29.418 -9.755,-41.951 -0.041,0.041 -0.089,0.065 -0.132,0.099 2.722,-2.556 4.699,-5.873 5.709,-9.59 9.978,5.767 35.424,24.099 44.248,65.453 11.077,51.867 -47.791,53.626 -48.381,32.647 -0.032,-1.243 -0.147,-2.484 -0.327,-3.758 5.475,-13.883 8.638,-28.653 8.638,-42.9 z"
   id="path28"
   inkscape:connector-curvature="0" />
	<path
   style="fill:#efc49a"
   d="m 1.386,181.929 c 7.851,-36.755 28.806,-55.308 40.389,-63.035 0.942,4.746 3.602,8.815 7.263,11.7 -0.007,0 -0.016,0 -0.016,0 -4.869,11.371 -7.638,23.984 -7.638,37.325 0,14.305 3.178,29.14 8.7,43.062 -0.162,1.201 -0.292,2.409 -0.316,3.595 -0.59,20.98 -59.452,19.221 -48.382,-32.647 z"
   id="path30"
   inkscape:connector-curvature="0" />
</g>
<g
   id="g38"
   transform="matrix(0.72881344,0,0,0.72881344,6.0000122,128.31707)">
	<path
   style="opacity:0.1;fill:#231f20;enable-background:new"
   d="m 191.993,377.274 c 0,-0.011 -0.001,-0.021 -0.001,-0.032 v -0.413 c -10e-4,-0.409 -0.018,-0.801 -0.042,-1.181 -0.011,-0.016 -0.021,-0.032 -0.031,-0.048 -0.407,-4.839 -2.558,-7.363 -4.715,-8.671 v 0 l -0.002,-0.002 c -2.394,-1.45 -4.786,-1.412 -4.786,-1.412 l 0.038,-0.013 c -27.966,-0.989 -50.416,-24.033 -50.416,-52.237 0,-5.415 0.833,-10.724 2.475,-15.848 0.002,-0.011 0.004,-0.019 0.007,-0.029 1.162,-4.455 -1.526,-5.908 -2.661,-6.316 -0.142,-0.042 -0.282,-0.086 -0.424,-0.13 -0.034,-0.008 -0.054,-0.012 -0.054,-0.012 l 0.008,-0.003 c -10.844,-3.35 -19.948,-10.455 -25.813,-19.958 -4.839,-1.752 -9.623,-4.133 -14.325,-7.151 -1.94,-1.244 -4.449,-1.158 -6.299,0.218 -1.85,1.376 -2.653,3.755 -2.016,5.971 4.891,17.038 18.727,29.681 36.11,32.995 -2.954,6.699 -4.453,13.786 -4.453,21.062 0,28.83 23.455,52.285 52.285,52.285 0.457,0 0.909,-0.027 1.454,-0.065 0.286,-0.019 0.573,-0.039 0.85,-0.052 h 0.001 c 1.228,3.582 3.034,7.039 5.367,10.278 l 10e-4,59.509 h 17.446 l -0.001,-68.746 z"
   id="path34"
   inkscape:connector-curvature="0" />
	<path
   style="opacity:0.15;fill:#231f20;enable-background:new"
   d="m 390.652,386.736 v 59.283 h 17.723 v -53.087 c -6.397,-0.891 -12.39,-3.041 -17.723,-6.196 z"
   id="path36"
   inkscape:connector-curvature="0" />
</g>
<path
   style="fill:#c6836f;stroke-width:0.72881347"
   d="m 49.683632,224.49858 c 5.358966,0 10.008795,-2.881 12.618676,-7.13216 0.126814,0.0495 0.272577,0.067 0.401576,0.11515 0.954746,0.37169 1.951763,0.66322 2.972102,0.90591 0.286423,0.0619 0.560457,0.14066 0.845423,0.1946 1.283441,0.24561 2.596763,0.4023 3.953813,0.4023 5.521491,0 10.501473,-2.11574 14.343778,-5.504 4.25044,5.53971 10.873167,9.17649 18.39452,9.17649 6.07393,0 11.54659,-2.37739 15.69427,-6.18835 1.69668,0.41251 3.44875,0.69747 5.27224,0.69747 2.17696,0 4.27522,-0.32213 6.25832,-0.90591 2.80957,3.53984 7.10156,5.85601 11.9795,5.85601 4.12144,0 7.85516,-1.64857 10.62319,-4.29927 4.60246,9.32881 7.26044,19.92212 7.26044,31.22674 0,37.15345 -28.08191,79.38601 -62.726788,79.38601 -34.640502,0 -62.723142,-42.23183 -62.723142,-79.38601 0,-9.93008 2.061813,-19.32011 5.685474,-27.78309 2.517321,1.98674 5.668711,3.23811 9.146608,3.23811 z"
   id="path40"
   inkscape:connector-curvature="0" />
<g
   style="opacity:0.15"
   id="g44"
   transform="matrix(0.72881344,0,0,0.72881344,6.0000122,128.31707)">
	<path
   style="fill:#231f20"
   d="m 57.689,165.647 c 0,-12.058 2.218,-23.532 6.174,-34.062 -1.269,0.251 -2.581,0.387 -3.926,0.387 -4.772,0 -9.096,-1.718 -12.549,-4.446 -4.972,11.613 -7.801,24.496 -7.801,38.121 0,50.978 38.532,108.925 86.062,108.925 3.058,0 6.077,-0.244 9.051,-0.707 C 91.425,267.144 57.689,213.347 57.689,165.647 Z"
   id="path42"
   inkscape:connector-curvature="0" />
</g>
<path
   style="fill:#efc49a;stroke-width:0.72881347"
   d="m 49.142853,198.4005 c 1.162457,-10.88993 10.271896,-19.39518 21.459912,-19.39518 2.344592,0 4.559456,0.46644 6.667914,1.15007 -0.02332,-0.45405 -0.132644,-0.88988 -0.132644,-1.35632 0,-12.25209 9.933727,-22.18144 22.179979,-22.18144 11.466426,0 20.787216,8.71734 21.956966,19.87328 0.93725,-0.11442 1.8592,-0.28423 2.82196,-0.28423 11.223,0 20.39366,8.35876 21.88263,19.16342 6.65115,1.67845 11.5925,7.64525 11.5925,14.81605 0,8.45642 -6.85595,15.31893 -15.31164,15.31893 -4.89398,0 -9.19981,-2.33804 -12.00574,-5.90558 -1.96197,0.5692 -4.00921,0.97442 -6.15848,0.97442 -1.8162,0 -3.56171,-0.28423 -5.25183,-0.69528 -4.13164,3.79638 -9.58244,6.16503 -15.63304,6.16503 -7.491478,0 -14.087968,-3.6222 -18.320917,-9.14005 -3.828457,3.37513 -8.788761,5.48213 -14.288387,5.48213 -2.883915,0 -5.627898,-0.58742 -8.140846,-1.61067 -2.599678,4.23367 -7.231287,7.10374 -12.568388,7.10374 -8.164168,0 -14.77232,-6.61981 -14.77232,-14.77888 0,-7.89159 6.221152,-14.30078 14.022371,-14.69944 z"
   id="path46"
   inkscape:connector-curvature="0" />
<g
   id="g52"
   transform="matrix(0.72881344,0,0,0.72881344,6.0000122,128.31707)">
	<path
   style="fill:#3a3637"
   d="m 96.44,177.794 c 0,4.518 -3.665,8.183 -8.195,8.183 -4.526,0 -8.189,-3.665 -8.189,-8.183 0,-4.527 3.663,-8.192 8.189,-8.192 4.53,-0.001 8.195,3.665 8.195,8.192 z"
   id="path48"
   inkscape:connector-curvature="0" />
	<path
   style="fill:#3a3637"
   d="m 167.876,177.787 c 0,4.517 -3.665,8.183 -8.192,8.183 -4.528,0 -8.192,-3.666 -8.192,-8.183 0,-4.528 3.665,-8.192 8.192,-8.192 4.527,0 8.192,3.663 8.192,8.192 z"
   id="path50"
   inkscape:connector-curvature="0" />
</g>
<path
   style="fill:#935a4d;stroke-width:0.72881347"
   d="m 97.57615,288.80034 c -1.974356,0 -3.825542,-0.96277 -4.958847,-2.58073 l -3.899151,-5.56668 c -1.295102,-1.84973 -1.453983,-4.26574 -0.41178,-6.26925 1.042932,-2.00205 3.112033,-3.25926 5.370626,-3.25926 h 7.797572 c 2.2586,0 4.32843,1.25721 5.37063,3.25926 1.0422,2.00278 0.88405,4.41952 -0.41178,6.26925 l -3.89915,5.56668 c -1.13112,1.61651 -2.982307,2.58073 -4.95812,2.58073 z"
   id="path54"
   inkscape:connector-curvature="0" />
<path
   style="opacity:0.1;fill:#231f20;stroke-width:0.72881347;enable-background:new"
   d="m 99.318014,156.61836 c -12.246252,0 -22.179979,9.92935 -22.179979,22.18143 0,0.46645 0.109322,0.90228 0.132644,1.35633 -2.107729,-0.68363 -4.323322,-1.15007 -6.667914,-1.15007 -11.188016,0 -20.297455,8.50452 -21.459912,19.39518 -7.801219,0.39866 -14.021642,6.80785 -14.021642,14.69944 0,6.02947 3.613457,11.20988 8.793134,13.5071 -0.178559,-0.91685 -0.277678,-1.86212 -0.277678,-2.83217 0,-7.40693 5.47922,-13.50564 12.601913,-14.55732 l -7.28e-4,-0.001 c 0,0 1.32644,-0.0503 1.590999,-1.38984 0.0029,-0.0153 0.0066,-0.0204 0.0095,-0.0328 1.714169,-10.2668 10.535727,-18.11247 21.279166,-18.11247 1.60339,0 3.141186,0.22957 4.628694,0.58524 l -0.0095,-0.0146 c 0,0 1.787779,0.58159 1.924067,-1.36434 0.0022,-0.024 0.0066,-0.0386 0.0087,-0.0612 0.344729,-11.95108 10.135608,-21.53279 22.163212,-21.53279 4.49095,0 8.65029,1.34174 12.12163,3.63823 -3.15795,-8.36094 -11.16324,-14.31389 -20.636353,-14.31389 z"
   id="path56"
   inkscape:connector-curvature="0" />
<g
   id="g58"
   transform="matrix(0.72881344,0,0,0.72881344,6.0000122,128.31707)">
</g>
<g
   id="g60"
   transform="matrix(0.72881344,0,0,0.72881344,6.0000122,128.31707)">
</g>
<g
   id="g62"
   transform="matrix(0.72881344,0,0,0.72881344,6.0000122,128.31707)">
</g>
<g
   id="g64"
   transform="matrix(0.72881344,0,0,0.72881344,6.0000122,128.31707)">
</g>
<g
   id="g66"
   transform="matrix(0.72881344,0,0,0.72881344,6.0000122,128.31707)">
</g>
<g
   id="g68"
   transform="matrix(0.72881344,0,0,0.72881344,6.0000122,128.31707)">
</g>
<g
   id="g70"
   transform="matrix(0.72881344,0,0,0.72881344,6.0000122,128.31707)">
</g>
<g
   id="g72"
   transform="matrix(0.72881344,0,0,0.72881344,6.0000122,128.31707)">
</g>
<g
   id="g74"
   transform="matrix(0.72881344,0,0,0.72881344,6.0000122,128.31707)">
</g>
<g
   id="g76"
   transform="matrix(0.72881344,0,0,0.72881344,6.0000122,128.31707)">
</g>
<g
   id="g78"
   transform="matrix(0.72881344,0,0,0.72881344,6.0000122,128.31707)">
</g>
<g
   id="g80"
   transform="matrix(0.72881344,0,0,0.72881344,6.0000122,128.31707)">
</g>
<g
   id="g82"
   transform="matrix(0.72881344,0,0,0.72881344,6.0000122,128.31707)">
</g>
<g
   id="g84"
   transform="matrix(0.72881344,0,0,0.72881344,6.0000122,128.31707)">
</g>
<g
   id="g86"
   transform="matrix(0.72881344,0,0,0.72881344,6.0000122,128.31707)">
</g>
<g
   id="g133"
   transform="matrix(0.56794026,0,0,0.56794026,230.79789,15.753446)"><g
     id="g105"
     style="fill:#d6f4ff"><path
       id="path95"
       d="M 142.32812,142.39844 104,120 65.671875,142.39844 C 54.144531,149.12109 43.859375,157.78125 35.273438,168 H 172.47266 c -8.50782,-10.19922 -18.70313,-18.85938 -30.14454,-25.60156 z m 0,0"
       inkscape:connector-curvature="0" /><path
       id="path97"
       d="M 143.72656,385.51953 104,364 64.273438,385.51953 C 53.535156,391.33203 43.871094,398.93359 35.695312,408 H 172.30469 c -8.17578,-9.06641 -17.83985,-16.66797 -28.57813,-22.48047 z m 0,0"
       inkscape:connector-curvature="0" /><path
       id="path99"
       d="M 174.28125,72 H 33.71875 c 7.832031,9.199219 17.160156,17.003906 27.59375,23.097656 L 104,120 146.6875,95.097656 C 157.12109,89.003906 166.44922,81.199219 174.28125,72 Z m 0,0"
       inkscape:connector-curvature="0" /><path
       id="path101"
       d="M 197.76953,24 H 10.230469 c 3.664062,17.722656 11.742187,34.234375 23.488281,48 h 140.5625 c 11.74609,-13.765625 19.82422,-30.277344 23.48828,-48 z m 0,0"
       inkscape:connector-curvature="0" /><path
       id="path103"
       d="M 172.30469,408 H 35.695312 C 23.429688,421.61328 14.847656,438.13672 10.769531,456 H 197.23047 c -4.07813,-17.86328 -12.66016,-34.38672 -24.92578,-48 z m 0,0"
       inkscape:connector-curvature="0" /></g><path
     id="path107"
     d="M 423.80859,272 C 410.13672,271.99219 397.11328,277.8125 388,288 H 320 L 308.91016,143.80859 C 306.13672,107.80078 276.11328,80 240,80 L 288,288 80,240 c 0,36.11328 27.80078,66.13672 63.80859,68.91016 L 288,320 v 68.29687 c -17.1875,15.45704 -20.89844,40.98047 -8.82031,60.69141 12.07422,19.71484 36.49609,28 58.07812,19.71094 21.57813,-8.29297 34.16797,-30.80469 29.9375,-53.53125 C 362.96484,392.44141 343.11719,375.97266 320,376 v -7.80859 c 0,-26.50782 21.49219,-48 48,-48 h 7.61719 c 0,26.61718 21.57422,48.1914 48.1914,48.1914 C 450.42187,368.38281 472,346.80859 472,320.19141 472,293.57812 450.42187,272 423.80859,272 Z M 336,424 c 0,8.83594 -7.16406,16 -16,16 -8.83594,0 -16,-7.16406 -16,-16 0,-8.83594 7.16406,-16 16,-16 8.83594,0 16,7.16406 16,16 z m 88,-88 c -8.83594,0 -16,-7.16406 -16,-16 0,-8.83594 7.16406,-16 16,-16 8.83594,0 16,7.16406 16,16 0,8.83594 -7.16406,16 -16,16 z m 0,0"
     inkscape:connector-curvature="0"
     style="fill:#cdcdcf" /><path
     id="path109"
     d="m 0,480 h 16 c 0.01563,-5.35938 0.464844,-10.71094 1.34375,-16 h 173.3125 c 0.87891,5.28906 1.32812,10.64062 1.34375,16 h 16 c 0.0234,-42.375 -23.19141,-81.35156 -60.46484,-101.51172 L 120.80078,364 142.92969,352 135.3125,337.9375 104,354.90234 72.6875,337.94531 C 63.804688,333.12109 55.636719,327.08203 48.425781,320 H 96 V 304 H 34.976562 C 28.265625,294.22656 23.207031,283.41406 20,272 H 52.425781 V 256 H 16.847656 c -1.367187,-10.64844 -1.078125,-21.44141 0.855469,-32 H 136 V 208 H 21.777344 c 3.957031,-11.5625 9.832031,-22.38281 17.375,-32 H 168.89453 c 3.01953,3.8125 5.77734,7.82031 8.25781,12 l 13.80078,-8.07813 C 180.16016,161.52344 164.81641,146.20703 146.39844,135.44922 L 119.87891,120 150.71875,102.00781 C 186.12891,81.257812 207.91797,43.320312 208,2.28125 V 0 H 192 V 2.28125 C 191.98437,6.871094 191.65234,11.457031 191,16 H 17 C 16.347656,11.457031 16.015625,6.871094 16,2.28125 V 0 H 0 v 2.28125 c 0.0820312,41.039062 21.871094,78.976562 57.28125,99.72656 L 88.121094,120 61.640625,135.44922 C 22.867188,158.07031 -0.6875,199.84375 0.0234375,244.72656 0.738281,289.60937 25.601562,330.61719 65.070312,352 l 22.128907,12 -26.734375,14.48828 C 23.191406,398.64844 -0.0234375,437.625 0,480 Z M 187.19922,32 c -3.63672,11.605469 -9.36328,22.449219 -16.89453,32 H 37.664062 C 30.140625,54.449219 24.425781,43.605469 20.800781,32 Z M 65.335938,88.183594 C 61.207031,85.75 57.261719,83.015625 53.535156,80 H 154.46484 c -3.72656,3.015625 -7.67187,5.75 -11.80078,8.183594 L 104,110.73438 Z M 69.703125,149.27344 104,129.26562 l 34.29687,20 c 5.26563,3.14454 10.25391,6.73829 14.91016,10.73438 H 54.59375 c 4.71875,-4.00391 9.773438,-7.59375 15.109375,-10.72656 z M 186.69531,448 H 21.304688 c 3.984374,-11.69922 10.117187,-22.55078 18.078124,-32 H 168.61719 c 7.96093,9.44922 14.09375,20.30078 18.07812,32 z M 104,373.09766 l 35.92187,19.45312 c 4.06641,2.21094 7.97657,4.69922 11.70313,7.44922 h -95.25 c 3.726562,-2.75 7.636719,-5.23828 11.703125,-7.44922 z m 0,0"
     inkscape:connector-curvature="0"
     style="fill:#4a99b5" /><path
     id="path111"
     d="m 392,80 v 16 h 54.30469 c 1.10937,6.19531 1.67578,12.47266 1.69531,18.76953 -0.0195,4.41797 -0.27344,8.83594 -0.76172,13.23047 H 352 v 16 h 92.29687 c -1.10546,4.39062 -2.52734,8.69922 -4.25,12.88672 -2.83984,6.69531 -6.32812,13.09375 -10.40625,19.11328 H 384 v 16 h 32.45703 c -7.09765,7.10547 -15.17969,13.14844 -24,17.94531 L 400.09766,224 C 440.02734,202.28125 464.63281,160.21875 464,114.76953 463.99609,92.691406 458.11328,71.011719 446.95312,51.960938 l -13.80078,8.078124 c 3.69922,6.332032 6.7461,13.019532 9.09375,19.960938 z m 0,0"
     inkscape:connector-curvature="0"
     style="fill:#4a99b5" /><path
     id="path113"
     d="m 304,304 c 3.125,-3.12109 8.1875,-3.12109 11.3125,0 l 4.68359,4.68359 c 3.125,3.125 3.125,8.19141 0,11.31641 -3.125,3.12109 -8.1875,3.12109 -11.3125,0 L 304,315.31641 c -3.125,-3.125 -3.125,-8.19141 0,-11.31641 z m 0,0"
     inkscape:connector-curvature="0"
     style="fill:#bebebf" /></g></svg>