<?xml version="1.0" encoding="UTF-8" standalone="no"?>
<svg
   xmlns:dc="http://purl.org/dc/elements/1.1/"
   xmlns:cc="http://creativecommons.org/ns#"
   xmlns:rdf="http://www.w3.org/1999/02/22-rdf-syntax-ns#"
   xmlns:svg="http://www.w3.org/2000/svg"
   xmlns="http://www.w3.org/2000/svg"
   xmlns:sodipodi="http://sodipodi.sourceforge.net/DTD/sodipodi-0.dtd"
   xmlns:inkscape="http://www.inkscape.org/namespaces/inkscape"
   viewBox="0 0 1496 1496"
   height="1496"
   width="1496"
   xml:space="preserve"
   id="svg2"
   version="1.1"
   sodipodi:docname="5926.svg"
   inkscape:version="0.92.3 (d244b95, 2018-08-02)"><sodipodi:namedview
     pagecolor="#ffffff"
     bordercolor="#666666"
     borderopacity="1"
     objecttolerance="10"
     gridtolerance="10"
     guidetolerance="10"
     inkscape:pageopacity="0"
     inkscape:pageshadow="2"
     inkscape:window-width="1920"
     inkscape:window-height="1021"
     id="namedview16"
     showgrid="false"
     inkscape:zoom="0.15775401"
     inkscape:cx="748"
     inkscape:cy="748"
     inkscape:window-x="0"
     inkscape:window-y="27"
     inkscape:window-maximized="1"
     inkscape:current-layer="g12" /><metadata
     id="metadata8"><rdf:RDF><cc:Work
         rdf:about=""><dc:format>image/svg+xml</dc:format><dc:type
           rdf:resource="http://purl.org/dc/dcmitype/StillImage" /></cc:Work></rdf:RDF></metadata><defs
     id="defs6" /><g
     transform="matrix(1.3333333,0,0,-1.3333333,0,1496)"
     id="g10"><g
       transform="scale(0.1)"
       id="g12"><path
         id="path16"
         style="fill:#aad4c8;fill-opacity:1;fill-rule:nonzero;stroke:none;stroke-width:1.66650808"
         d="m 9485.5263,4503.9049 c -12.0988,-38.6463 -99.2405,-63.4439 -137.5702,-51.595 -208.7801,63.6938 -350.0666,179.6828 -434.0921,313.5201 -84.6085,133.7872 -113.7724,281.9899 -113.7724,413.1274 0,87.125 12.6154,167.3173 31.9802,233.6778 11.3991,38.613 51.7451,60.8274 90.4747,49.5286 38.913,-11.3156 61.1109,-51.8951 49.812,-90.5915 -15.5319,-52.3782 -26.6141,-119.9551 -26.2141,-192.6149 -0.4,-109.8396 31.7635,-178.1831 98.4406,-282.6565 66.5603,-104.5567 218.0458,-195.2148 397.7787,-250.9928 38.3297,-11.8488 54.7616,-102.8902 43.1626,-141.4032 z m -218.3458,3227.6097 c -1.1167,-314.0202 -90.6747,-756.0949 -293.2055,-1239.7488 -284.8228,-680.7018 -545.1314,-1407.216 -270.2909,-1852.2237 163.3844,-264.4416 380.2305,-408.0613 589.2106,-427.1094 67.5768,-16.6483 137.5535,-26.4308 210.08,-26.4308 425.4093,0 779.8433,303.1711 859.6183,705.1996 v 0 c 29.047,98.3239 26.431,200.9141 4.933,311.3536 -9.166,56.6612 -23.598,111.2395 -43.064,163.6345 -132.02,410.9442 -445.7897,946.9931 -537.7643,1798.3956 -22.3979,416.5936 -34.3967,651.8879 -233.7944,894.3481 -53.8616,69.8434 -116.5889,132.0374 -186.9989,185.2324 -26.6142,20.4815 -57.178,35.7633 -86.1251,53.4116 l 123.5548,-123.255 c 84.6254,-84.7085 84.6254,-222.1787 0,-306.8041 l -136.1536,-136.0036"
         inkscape:connector-curvature="0" /><path
         id="path18"
         style="fill:#616e7d;fill-opacity:1;fill-rule:nonzero;stroke:none;stroke-width:1.66650808"
         d="m 5394.3324,5854.2931 c 10.4824,76.4928 44.1625,150.1857 102.6735,209.0801 59.0943,58.8444 132.7206,92.2746 208.9635,103.0236 110.7395,15.5318 227.1451,-17.965 312.4536,-103.0236 143.6363,-144.0362 143.9363,-377.2807 0,-521.1503 -144.003,-144.0031 -377.1974,-144.0031 -521.4171,0 -84.9419,85.0918 -118.422,201.4141 -102.6735,312.0702 z M 6417.6349,7445.425 c 94.791,94.7077 248.2098,94.8078 343.1174,0.1005 41.9627,-42.0461 63.9439,-95.7243 68.9767,-150.7691 6.0662,-68.8934 -16.5316,-139.5867 -69.1766,-192.2483 -52.4451,-52.745 -123.255,-75.0763 -192.2318,-69.1934 -55.078,4.7995 -108.923,27.0306 -150.8856,69.1934 -94.8243,94.6076 -94.8243,248.2096 0.1999,342.9173 z M 5605.3123,2426.0694 C 5512.3212,1967.9296 4939.859,1851.5906 4574.8603,2216.5393 L 3172.8271,3618.6726 1755.1621,5036.0209 c -364.8988,365.0654 -248.7098,937.6775 209.58,1030.7187 l 1060.8323,215.7961 c -31.0638,-520.8838 256.8755,-1030.9185 994.3554,-1144.641 239.9439,-44.3624 431.3756,-57.6779 599.0097,-72.7265 458.8897,-41.546 739.9962,-98.224 1349.8715,-851.7355 z m 1339.8058,6750.9408 c -30.9638,31.2138 -30.9638,81.8422 0,113.106 l 1.3165,1.1165 c 31.1471,31.247 81.9922,31.247 113.056,0 l 885.7324,-885.5324 884.5324,-884.6658 c 31.2638,-31.3304 31.2638,-81.9588 0,-113.2227 l -0.9999,-1.0665 c -31.2804,-31.2636 -82.1088,-31.3136 -113.1726,0 l -884.6324,884.6659 z m 701.7665,-2238.8036 c -64.0438,-64.1438 -168.1172,-64.1438 -232.3779,0 -64.3438,64.2607 -64.3438,168.3007 0,232.378 64.2607,64.2605 168.3341,64.2605 232.3779,0.1005 64.2606,-64.1274 64.2606,-168.2174 0,-232.478 z M 1322.0865,6431.8049 C 737.10884,6312.6828 588.63968,5581.6191 1054.5954,5115.7134 l 1799.7287,-1799.962 1800.112,-1799.8122 c 465.7557,-466.0222 1196.9695,-317.353 1315.6914,267.6579 l 778.3093,3827.1192 1799.2122,1799.2121 45.5956,-45.5457 c 84.8252,-84.6252 222.3788,-84.6753 306.8042,0 l 367.1317,367.1319 136.1536,136.0036 c 84.6254,84.6254 84.6254,222.0956 0,306.8041 l -123.5548,123.255 -721.7314,721.8481 -845.1028,845.0861 c -84.8087,84.7753 -222.3956,84.7753 -307.1042,0.1005 l -502.8855,-503.1356 c -84.7252,-84.6253 -84.7252,-222.1454 0,-306.8542 L 6948.551,9009.0433 5149.439,7209.8808 1322.0865,6431.8049"
         inkscape:connector-curvature="0" /><path
         id="path20"
         style="fill:#aad4c8;fill-opacity:1;fill-rule:nonzero;stroke:none;stroke-width:1.66650808"
         d="m 1964.7421,6066.7396 c -458.2898,-93.0412 -574.4788,-665.6533 -209.58,-1030.7187 L 3172.8271,3618.6726 4574.8603,2216.5393 c 364.9987,-364.9487 937.4609,-248.6097 1030.452,209.5301 l 363.4987,1787.3633 c -609.8753,753.5115 -890.9818,810.1895 -1349.8715,851.7355 -167.6341,15.0486 -359.0658,28.3641 -599.0097,72.7265 -737.4799,113.7225 -1025.4192,623.7572 -994.3554,1144.641 L 1964.7421,6066.7396"
         inkscape:connector-curvature="0" /><path
         id="path22"
         style="fill:#ffffff;fill-opacity:1;fill-rule:nonzero;stroke:none;stroke-width:1.66650808"
         d="m 5705.9694,6166.3968 c -76.2429,-10.749 -149.8692,-44.1792 -208.9635,-103.0236 -58.511,-58.8944 -92.1911,-132.5873 -102.6735,-209.0801 -15.7485,-110.6561 17.7316,-226.9784 102.6735,-312.0702 144.2197,-144.0031 377.4141,-144.0031 521.4171,0 143.9363,143.8696 143.6363,377.1141 0,521.1503 -85.3085,85.0586 -201.7141,118.5554 -312.4536,103.0236"
         inkscape:connector-curvature="0" /><path
         id="path24"
         style="fill:#aad4c8;fill-opacity:1;fill-rule:nonzero;stroke:none;stroke-width:1.66650808"
         d="m 6417.6349,7445.425 c -95.0242,-94.7076 -95.0242,-248.3097 -0.1999,-342.9173 41.9626,-42.1627 95.8076,-64.3939 150.8856,-69.1935 68.9768,-5.8828 139.7867,16.4485 192.2318,69.1935 52.645,52.6616 75.2428,123.355 69.1766,192.2484 -5.0328,55.0447 -27.014,108.7228 -68.9767,150.7689 -94.9076,94.7078 -248.3264,94.6077 -343.1174,-0.1004"
         inkscape:connector-curvature="0" /><path
         id="path26"
         style="fill:#ffffff;fill-opacity:1;fill-rule:nonzero;stroke:none;stroke-width:1.66650808"
         d="m 7414.5067,7170.5846 c -64.3438,-64.0773 -64.3438,-168.1173 0,-232.378 64.2607,-64.1438 168.3341,-64.1438 232.3779,0 64.2606,64.2607 64.2606,168.3507 0,232.4779 -64.0438,64.1606 -168.1172,64.1606 -232.3779,-0.1004"
         inkscape:connector-curvature="0" /><path
         id="path28"
         style="fill:#f0ede2;fill-opacity:1;fill-rule:nonzero;stroke:none;stroke-width:1.66650808"
         d="m 7059.4906,9291.2327 c -31.0638,31.247 -81.9089,31.247 -113.056,0 l -1.3165,-1.1165 c -30.9638,-31.2638 -30.9638,-81.8922 0,-113.106 l 885.8324,-885.599 884.6324,-884.6659 c 31.0638,-31.3136 81.8922,-31.2636 113.1726,0 l 0.9999,1.0665 c 31.2638,31.2639 31.2638,81.8923 0,113.2227 l -884.5324,884.6658 -885.7324,885.5324"
         inkscape:connector-curvature="0" /><path
         id="path30"
         style="fill:#ffffff;fill-opacity:1;fill-rule:nonzero;stroke:none;stroke-width:1.66650808"
         d="m 8922.5465,5462.1638 c -38.7296,11.2988 -79.0756,-10.9156 -90.4747,-49.5286 -19.3648,-66.3605 -31.9802,-146.5528 -31.9802,-233.6778 0,-131.1375 29.1639,-279.3402 113.7724,-413.1274 84.0255,-133.8373 225.312,-249.8263 434.0921,-313.5201 38.3297,-11.8489 125.4714,12.9487 137.5702,51.595 11.599,38.513 -4.8329,129.5544 -43.1626,141.4032 -179.7329,55.778 -331.2184,146.4361 -397.7787,250.9928 -66.6771,104.4734 -98.8406,172.8169 -98.4406,282.6565 -0.4,72.6598 10.6822,140.2367 26.2141,192.6149 11.2989,38.6964 -10.899,79.2759 -49.812,90.5915"
         inkscape:connector-curvature="0" /></g></g></svg>