<?xml version="1.0" encoding="UTF-8" standalone="no"?>
<!-- Created with Inkscape (http://www.inkscape.org/) -->

<svg
   xmlns:dc="http://purl.org/dc/elements/1.1/"
   xmlns:cc="http://creativecommons.org/ns#"
   xmlns:rdf="http://www.w3.org/1999/02/22-rdf-syntax-ns#"
   xmlns:svg="http://www.w3.org/2000/svg"
   xmlns="http://www.w3.org/2000/svg"
   xmlns:sodipodi="http://sodipodi.sourceforge.net/DTD/sodipodi-0.dtd"
   xmlns:inkscape="http://www.inkscape.org/namespaces/inkscape"
   version="1.1"
   id="svg2"
   xml:space="preserve"
   width="1066.6667"
   height="1066.6667"
   viewBox="0 0 1066.6667 1066.6667"
   sodipodi:docname="some.svg"
   inkscape:version="0.92.3 (d244b95, 2018-08-02)"><metadata
     id="metadata8"><rdf:RDF><cc:Work
         rdf:about=""><dc:format>image/svg+xml</dc:format><dc:type
           rdf:resource="http://purl.org/dc/dcmitype/StillImage" /><dc:title></dc:title></cc:Work></rdf:RDF></metadata><defs
     id="defs6"><clipPath
       clipPathUnits="userSpaceOnUse"
       id="clipPath36"><path
         d="M 0,800 H 800 V 0 H 0 Z"
         id="path34"
         inkscape:connector-curvature="0" /></clipPath><clipPath
       clipPathUnits="userSpaceOnUse"
       id="clipPath44"><path
         d="M 280.789,36.1367 H 519.211 V 13.0645 H 280.789 Z"
         id="path42"
         inkscape:connector-curvature="0" /></clipPath><clipPath
       clipPathUnits="userSpaceOnUse"
       id="clipPath180"><path
         d="m 31,613.764 h 202.166 v -9.67 H 31 Z"
         id="path178"
         inkscape:connector-curvature="0" /></clipPath><clipPath
       clipPathUnits="userSpaceOnUse"
       id="clipPath302"><path
         d="m 298.917,96.7637 h 202.166 v -9.67 H 298.917 Z"
         id="path300"
         inkscape:connector-curvature="0" /></clipPath><clipPath
       clipPathUnits="userSpaceOnUse"
       id="clipPath414"><path
         d="m 310,135 h 71 v -3 h -71 z"
         id="path412"
         inkscape:connector-curvature="0" /></clipPath><clipPath
       clipPathUnits="userSpaceOnUse"
       id="clipPath430"><path
         d="m 29.917,96.7637 h 202.166 v -9.67 H 29.917 Z"
         id="path428"
         inkscape:connector-curvature="0" /></clipPath><clipPath
       clipPathUnits="userSpaceOnUse"
       id="clipPath544"><path
         d="m 30.917,363.345 h 202.166 v -9.67 H 30.917 Z"
         id="path542"
         inkscape:connector-curvature="0" /></clipPath><clipPath
       clipPathUnits="userSpaceOnUse"
       id="clipPath648"><path
         d="m 563.917,363.345 h 202.166 v -9.67 H 563.917 Z"
         id="path646"
         inkscape:connector-curvature="0" /></clipPath><clipPath
       clipPathUnits="userSpaceOnUse"
       id="clipPath808"><path
         d="m 562.917,96.7637 h 202.166 v -9.67 H 562.917 Z"
         id="path806"
         inkscape:connector-curvature="0" /></clipPath><clipPath
       clipPathUnits="userSpaceOnUse"
       id="clipPath960"><path
         d="m 563.917,613.764 h 202.166 v -9.67 H 563.917 Z"
         id="path958"
         inkscape:connector-curvature="0" /></clipPath><clipPath
       clipPathUnits="userSpaceOnUse"
       id="clipPath1072"><path
         d="m 298.917,613.764 h 202.166 v -9.67 H 298.917 Z"
         id="path1070"
         inkscape:connector-curvature="0" /></clipPath><clipPath
       clipPathUnits="userSpaceOnUse"
       id="clipPath1200"><path
         d="m 298.917,363.345 h 202.166 v -9.67 H 298.917 Z"
         id="path1198"
         inkscape:connector-curvature="0" /></clipPath></defs><sodipodi:namedview
     pagecolor="#ffffff"
     bordercolor="#666666"
     borderopacity="1"
     objecttolerance="10"
     gridtolerance="10"
     guidetolerance="10"
     inkscape:pageopacity="0"
     inkscape:pageshadow="2"
     inkscape:window-width="1920"
     inkscape:window-height="1021"
     id="namedview4"
     showgrid="false"
     inkscape:zoom="0.22124998"
     inkscape:cx="533.33337"
     inkscape:cy="533.33337"
     inkscape:window-x="0"
     inkscape:window-y="27"
     inkscape:window-maximized="1"
     inkscape:current-layer="g10" /><g
     id="g10"
     inkscape:groupmode="layer"
     inkscape:label="21727-NTX58T"
     transform="matrix(1.3333333,0,0,-1.3333333,0,1066.6667)"><g
       id="g296"
       transform="matrix(3.9678584,0,0,3.9678584,-1179.779,-129.6236)"><g
         id="g298" /><g
         id="g310"><g
           clip-path="url(#clipPath302)"
           id="g308"
           style="opacity:0.39999402"><g
             transform="translate(298.917,91.9287)"
             id="g306"><path
               d="m 0,0 c 0,-2.671 45.256,-4.835 101.083,-4.835 55.826,0 101.083,2.164 101.083,4.835 0,2.671 -45.257,4.835 -101.083,4.835 C 45.256,4.835 0,2.671 0,0"
               style="fill:#1c1419;fill-opacity:1;fill-rule:nonzero;stroke:none"
               id="path304"
               inkscape:connector-curvature="0" /></g></g></g></g><g
       id="g312"
       transform="matrix(3.9678584,0,0,3.9678584,559.4294,413.973)"><path
         d="m 0,0 c 0,0 -9,13.002 -13,15.461 -4,2.461 -37.5,2.355 -41.731,-0.738 C -64.795,7.363 -64.5,0 -64.5,0 Z"
         style="fill:#ffffff;fill-opacity:1;fill-rule:nonzero;stroke:none"
         id="path314"
         inkscape:connector-curvature="0" /></g><g
       id="g316"
       transform="matrix(3.9678584,0,0,3.9678584,701.60571,301.16401)"><path
         d="m 0,0 c 0,9.098 -6.982,16.474 -15.594,16.474 -8.613,0 -15.595,-7.376 -15.595,-16.474 0,-9.1 6.982,-16.476 15.595,-16.476 C -6.982,-16.476 0,-9.1 0,0"
         style="fill:#23262a;fill-opacity:1;fill-rule:nonzero;stroke:none"
         id="path318"
         inkscape:connector-curvature="0" /></g><g
       id="g320"
       transform="matrix(3.9678584,0,0,3.9678584,383.22396,301.16401)"><path
         d="m 0,0 c 0,9.098 -6.983,16.474 -15.596,16.474 -8.611,0 -15.593,-7.376 -15.593,-16.474 0,-9.1 6.982,-16.476 15.593,-16.476 C -6.983,-16.476 0,-9.1 0,0"
         style="fill:#23262a;fill-opacity:1;fill-rule:nonzero;stroke:none"
         id="path322"
         inkscape:connector-curvature="0" /></g><g
       id="g324"
       transform="matrix(3.9678584,0,0,3.9678584,288.32865,348.50334)"><path
         d="m 0,0 c 0,9.112 7.388,16.5 16.5,16.5 h 90 c 9.113,0 16.5,-7.388 16.5,-16.5 0,-9.112 -7.387,-16.5 -16.5,-16.5 h -90 C 7.388,-16.5 0,-9.112 0,0"
         style="fill:#df2000;fill-opacity:1;fill-rule:nonzero;stroke:none"
         id="path326"
         inkscape:connector-curvature="0" /></g><g
       id="g328"
       transform="matrix(3.9678584,0,0,3.9678584,38.353582,394.8892)"><path
         d="M 0,0 V 0.457 C 0,3.092 1.961,4.81 4.596,4.81 h 29.728 89.729 1.271 c 9.112,0 16.5,-7.388 16.5,-16.5 0,-9.113 -7.388,-16.5 -16.5,-16.5 h -1.5 -89.5 -22 c -6.903,0 -12.5,5.596 -12.5,12.5 0,4.407 2.287,8.5 5.734,10.5 H 4.596 C 1.961,-5.19 0,-2.635 0,0"
         style="fill:#ff4a39;fill-opacity:1;fill-rule:nonzero;stroke:none"
         id="path330"
         inkscape:connector-curvature="0" /></g><g
       id="g332"
       transform="matrix(3.9678584,0,0,3.9678584,600.83639,364.40969)"><path
         d="M 0,0 C -1.135,4.149 -4.238,6.916 -6.932,6.18 -9.627,5.443 -10.891,1.481 -9.758,-2.668 -8.623,-6.817 -5.52,-9.584 -2.824,-8.848 -0.131,-8.111 1.135,-4.149 0,0"
         style="fill:#b0ada7;fill-opacity:1;fill-rule:nonzero;stroke:none"
         id="path334"
         inkscape:connector-curvature="0" /></g><g
       id="g336"
       transform="matrix(3.9678584,0,0,3.9678584,595.72142,363.01101)"><path
         d="m 0,0 c -0.834,3.053 -3.119,5.088 -5.1,4.546 -1.984,-0.542 -2.914,-3.455 -2.078,-6.509 0.834,-3.053 3.117,-5.088 5.1,-4.546 C -0.096,-5.968 0.834,-3.054 0,0"
         style="fill:#ffffff;fill-opacity:1;fill-rule:nonzero;stroke:none"
         id="path338"
         inkscape:connector-curvature="0" /></g><g
       id="g340"
       transform="matrix(3.9678584,0,0,3.9678584,775.42216,364.40969)"><path
         d="M 0,0 C -1.135,4.149 -4.238,6.916 -6.932,6.18 -9.627,5.443 -10.891,1.481 -9.758,-2.668 -8.623,-6.817 -5.52,-9.584 -2.824,-8.848 -0.131,-8.111 1.135,-4.149 0,0"
         style="fill:#b0ada7;fill-opacity:1;fill-rule:nonzero;stroke:none"
         id="path342"
         inkscape:connector-curvature="0" /></g><g
       id="g344"
       transform="matrix(3.9678584,0,0,3.9678584,770.30719,363.01101)"><path
         d="m 0,0 c -0.834,3.053 -3.119,5.088 -5.1,4.546 -1.984,-0.542 -2.914,-3.455 -2.078,-6.509 0.834,-3.053 3.117,-5.088 5.1,-4.546 C -0.096,-5.968 0.834,-3.054 0,0"
         style="fill:#ffffff;fill-opacity:1;fill-rule:nonzero;stroke:none"
         id="path346"
         inkscape:connector-curvature="0" /></g><g
       id="g348"
       transform="matrix(3.9678584,0,0,3.9678584,605.75733,322.71225)"><path
         d="m 0,0 c 0,-1.657 1.344,-3 3,-3 h 24 c 1.656,0 3,1.343 3,3 v 2 c 0,1.657 -1.344,3 -3,3 H 3 C 1.344,5 0,3.657 0,2 Z"
         style="fill:#23262a;fill-opacity:1;fill-rule:nonzero;stroke:none"
         id="path350"
         inkscape:connector-curvature="0" /></g><g
       id="g352"
       transform="matrix(3.9678584,0,0,3.9678584,212.2418,310.80868)"><path
         d="m 0,0 c 0,-0.553 0.447,-1 1,-1 h 48 c 0.553,0 1,0.447 1,1 0,0.553 -0.447,1 -1,1 H 1 C 0.447,1 0,0 0,0"
         style="fill:#ffffff;fill-opacity:1;fill-rule:nonzero;stroke:none"
         id="path354"
         inkscape:connector-curvature="0" /></g><g
       id="g356"
       transform="matrix(3.9678584,0,0,3.9678584,38.353582,310.80868)"><path
         d="m 0,0 c 0,-0.553 0.447,-1 1,-1 h 15 c 0.553,0 1,0.447 1,1 0,0.553 -0.447,1 -1,1 H 1 C 0.447,1 0,0.553 0,0"
         style="fill:#ffffff;fill-opacity:1;fill-rule:nonzero;stroke:none"
         id="path358"
         inkscape:connector-curvature="0" /></g><g
       id="g360"
       transform="matrix(3.9678584,0,0,3.9678584,509.83118,310.80868)"><path
         d="m 0,0 c 0,-0.553 0.447,-1 1,-1 h 19 c 0.553,0 1,0.447 1,1 0,0.553 -0.447,1 -1,1 H 1 C 0.447,1 0,0 0,0"
         style="fill:#ffffff;fill-opacity:1;fill-rule:nonzero;stroke:none"
         id="path362"
         inkscape:connector-curvature="0" /></g><g
       id="g364"
       transform="matrix(3.9678584,0,0,3.9678584,537.97836,306.84479)"><path
         d="m 0,0 c 0,9.889 -7.59,17.906 -16.951,17.906 -9.361,0 -16.951,-8.017 -16.951,-17.906 0,-9.89 7.59,-17.907 16.951,-17.907 C -7.59,-17.907 0,-9.89 0,0"
         style="fill:#23262a;fill-opacity:1;fill-rule:nonzero;stroke:none"
         id="path366"
         inkscape:connector-curvature="0" /></g><g
       id="g368"
       transform="matrix(3.9678584,0,0,3.9678584,510.94733,306.84479)"><path
         d="m 0,0 c 0,5.915 -4.539,10.711 -10.139,10.711 -5.599,0 -10.138,-4.796 -10.138,-10.711 0,-5.916 4.539,-10.711 10.138,-10.711 C -4.539,-10.711 0,-5.916 0,0"
         style="fill:#ffffff;fill-opacity:1;fill-rule:nonzero;stroke:none"
         id="path370"
         inkscape:connector-curvature="0" /></g><g
       id="g372"
       transform="matrix(3.9678584,0,0,3.9678584,494.80451,306.84479)"><path
         d="m 0,0 c 0,3.541 -2.717,6.412 -6.07,6.412 -3.354,0 -6.071,-2.871 -6.071,-6.412 0,-3.543 2.717,-6.414 6.071,-6.414 C -2.717,-6.414 0,-3.543 0,0"
         style="fill:#b0ada7;fill-opacity:1;fill-rule:nonzero;stroke:none"
         id="path374"
         inkscape:connector-curvature="0" /></g><g
       id="g376"
       transform="matrix(3.9678584,0,0,3.9678584,227.52044,306.84479)"><path
         d="M 0,0 C 0,9.889 -7.589,17.906 -16.95,17.906 -26.312,17.906 -33.9,9.889 -33.9,0 c 0,-9.89 7.588,-17.907 16.95,-17.907 C -7.589,-17.907 0,-9.89 0,0"
         style="fill:#23262a;fill-opacity:1;fill-rule:nonzero;stroke:none"
         id="path378"
         inkscape:connector-curvature="0" /></g><g
       id="g380"
       transform="matrix(3.9678584,0,0,3.9678584,200.49336,306.84479)"><path
         d="m 0,0 c 0,5.915 -4.539,10.711 -10.139,10.711 -5.599,0 -10.138,-4.796 -10.138,-10.711 0,-5.916 4.539,-10.711 10.138,-10.711 C -4.539,-10.711 0,-5.916 0,0"
         style="fill:#ffffff;fill-opacity:1;fill-rule:nonzero;stroke:none"
         id="path382"
         inkscape:connector-curvature="0" /></g><g
       id="g384"
       transform="matrix(3.9678584,0,0,3.9678584,184.35052,306.84479)"><path
         d="m 0,0 c 0,3.541 -2.717,6.412 -6.07,6.412 -3.352,0 -6.071,-2.871 -6.071,-6.412 0,-3.543 2.719,-6.414 6.071,-6.414 C -2.717,-6.414 0,-3.543 0,0"
         style="fill:#b0ada7;fill-opacity:1;fill-rule:nonzero;stroke:none"
         id="path386"
         inkscape:connector-curvature="0" /></g><g
       id="g388"
       transform="matrix(3.9678584,0,0,3.9678584,724.79307,310.15399)"><path
         d="m 0,0 c 0,-0.461 0.374,-0.835 0.835,-0.835 h 10.33 C 11.626,-0.835 12,-0.461 12,0 v 0.33 c 0,0.461 -0.374,0.835 -0.835,0.835 H 0.835 C 0.374,1.165 0,0.791 0,0.33 Z"
         style="fill:#ffffff;fill-opacity:1;fill-rule:nonzero;stroke:none"
         id="path390"
         inkscape:connector-curvature="0" /></g><g
       id="g392"
       transform="matrix(3.9678584,0,0,3.9678584,700.98593,286.34684)"><path
         d="m 0,0 c 0,-0.461 0.374,-0.835 0.835,-0.835 h 0.33 C 1.626,-0.835 2,-0.461 2,0 V 6.33 C 2,6.791 1.626,7.165 1.165,7.165 H 0.835 C 0.374,7.165 0,6.791 0,6.33 Z"
         style="fill:#ffffff;fill-opacity:1;fill-rule:nonzero;stroke:none"
         id="path394"
         inkscape:connector-curvature="0" /></g><g
       id="g396"
       transform="matrix(3.9678584,0,0,3.9678584,661.30734,286.34684)"><path
         d="m 0,0 c 0,-0.461 0.374,-0.835 0.835,-0.835 h 0.33 C 1.626,-0.835 2,-0.461 2,0 V 6.33 C 2,6.791 1.626,7.165 1.165,7.165 H 0.835 C 0.374,7.165 0,6.791 0,6.33 Z"
         style="fill:#ffffff;fill-opacity:1;fill-rule:nonzero;stroke:none"
         id="path398"
         inkscape:connector-curvature="0" /></g><g
       id="g400"
       transform="matrix(3.9678584,0,0,3.9678584,625.59661,286.34684)"><path
         d="m 0,0 c 0,-0.461 0.374,-0.835 0.835,-0.835 h 0.33 C 1.626,-0.835 2,-0.461 2,0 V 6.33 C 2,6.791 1.626,7.165 1.165,7.165 H 0.835 C 0.374,7.165 0,6.791 0,6.33 Z"
         style="fill:#ffffff;fill-opacity:1;fill-rule:nonzero;stroke:none"
         id="path402"
         inkscape:connector-curvature="0" /></g><g
       id="g404"
       transform="matrix(3.9678584,0,0,3.9678584,671.3508,362.12738)"><path
         d="M 0,0 C -0.273,1.365 -1.322,2.307 -2.348,2.103 -3.371,1.898 -3.98,0.625 -3.707,-0.74 -3.434,-2.104 -2.383,-3.046 -1.359,-2.842 -0.336,-2.638 0.273,-1.364 0,0"
         style="fill:#ffffff;fill-opacity:1;fill-rule:nonzero;stroke:none"
         id="path406"
         inkscape:connector-curvature="0" /></g><g
       id="g408"
       transform="matrix(3.9678584,0,0,3.9678584,-1179.779,-129.6236)"><g
         id="g410" /><g
         id="g422"><g
           clip-path="url(#clipPath414)"
           id="g420"><g
             transform="translate(310,133.5)"
             id="g418"><path
               d="m 0,0 c 0,-0.828 0.672,-1.5 1.5,-1.5 h 68 c 0.828,0 1.5,0.672 1.5,1.5 0,0.828 -0.672,1.5 -1.5,1.5 H 1.5 C 0.672,1.5 0,0.828 0,0"
               style="fill:#ffffff;fill-opacity:1;fill-rule:nonzero;stroke:none"
               id="path416"
               inkscape:connector-curvature="0" /></g></g></g></g></g></svg>