<?xml version="1.0" encoding="UTF-8" standalone="no"?>
<!-- Created with Inkscape (http://www.inkscape.org/) -->

<svg
   xmlns:dc="http://purl.org/dc/elements/1.1/"
   xmlns:cc="http://creativecommons.org/ns#"
   xmlns:rdf="http://www.w3.org/1999/02/22-rdf-syntax-ns#"
   xmlns:svg="http://www.w3.org/2000/svg"
   xmlns="http://www.w3.org/2000/svg"
   xmlns:sodipodi="http://sodipodi.sourceforge.net/DTD/sodipodi-0.dtd"
   xmlns:inkscape="http://www.inkscape.org/namespaces/inkscape"
   version="1.1"
   id="svg2"
   xml:space="preserve"
   width="1066.6667"
   height="1066.6667"
   viewBox="0 0 1066.6667 1066.6667"
   sodipodi:docname="techno.svg"
   inkscape:version="0.92.3 (d244b95, 2018-08-02)"><metadata
     id="metadata8"><rdf:RDF><cc:Work
         rdf:about=""><dc:format>image/svg+xml</dc:format><dc:type
           rdf:resource="http://purl.org/dc/dcmitype/StillImage" /><dc:title></dc:title></cc:Work></rdf:RDF></metadata><defs
     id="defs6"><clipPath
       clipPathUnits="userSpaceOnUse"
       id="clipPath20"><path
         d="M 0,800 H 800 V 0 H 0 Z"
         id="path18"
         inkscape:connector-curvature="0" /></clipPath><clipPath
       clipPathUnits="userSpaceOnUse"
       id="clipPath844"><path
         d="M 0,800 H 800 V 0 H 0 Z"
         id="path842"
         inkscape:connector-curvature="0" /></clipPath><clipPath
       clipPathUnits="userSpaceOnUse"
       id="clipPath856"><path
         d="M 0,800 H 800 V 0 H 0 Z"
         id="path854"
         inkscape:connector-curvature="0" /></clipPath></defs><sodipodi:namedview
     pagecolor="#ffffff"
     bordercolor="#666666"
     borderopacity="1"
     objecttolerance="10"
     gridtolerance="10"
     guidetolerance="10"
     inkscape:pageopacity="0"
     inkscape:pageshadow="2"
     inkscape:window-width="1920"
     inkscape:window-height="1021"
     id="namedview4"
     showgrid="false"
     inkscape:zoom="0.22124998"
     inkscape:cx="533.33337"
     inkscape:cy="533.33337"
     inkscape:window-x="0"
     inkscape:window-y="27"
     inkscape:window-maximized="1"
     inkscape:current-layer="g10" /><g
     id="g10"
     inkscape:groupmode="layer"
     inkscape:label="71672-ODJZGY-782"
     transform="matrix(1.3333333,0,0,-1.3333333,0,1066.6667)"><g
       id="g126"
       transform="matrix(2.9205742,0,0,2.9205742,450.37972,746.56095)"><path
         d="m 0,0 c 1.53,2.853 0.458,6.406 -2.395,7.937 -2.853,1.53 -6.406,0.458 -7.937,-2.395 -1.26,-2.349 -0.733,-5.156 1.077,-6.935 l -18.498,-34.486 c -0.427,-0.796 -0.127,-1.788 0.669,-2.215 0.796,-0.427 1.788,-0.127 2.215,0.669 L -6.372,-2.939 C -3.889,-3.463 -1.26,-2.349 0,0"
         style="fill:#140212;fill-opacity:1;fill-rule:nonzero;stroke:none"
         id="path128"
         inkscape:connector-curvature="0" /></g><g
       id="g130"
       transform="matrix(2.9205742,0,0,2.9205742,296.31769,746.56095)"><path
         d="m 0,0 c -1.53,2.853 -0.458,6.406 2.395,7.937 2.853,1.53 6.406,0.458 7.937,-2.395 1.26,-2.349 0.733,-5.156 -1.077,-6.935 l 18.498,-34.486 c 0.427,-0.796 0.127,-1.788 -0.669,-2.215 -0.796,-0.427 -1.788,-0.127 -2.215,0.669 L 6.372,-2.939 C 3.889,-3.463 1.26,-2.349 0,0"
         style="fill:#140212;fill-opacity:1;fill-rule:nonzero;stroke:none"
         id="path132"
         inkscape:connector-curvature="0" /></g><g
       id="g134"
       transform="matrix(2.9205742,0,0,2.9205742,373.34869,641.34142)"><path
         d="M 0,0 C -20.135,0 -36.458,-4.64 -36.458,-10.365 H 36.458 C 36.458,-4.64 20.135,0 0,0"
         style="fill:#c17d05;fill-opacity:1;fill-rule:nonzero;stroke:none"
         id="path136"
         inkscape:connector-curvature="0" /></g><g
       id="g138"
       transform="matrix(2.9205742,0,0,2.9205742,652.10026,289.0425)"><path
         d="M 0,0 C 0,-10.067 -8.161,-18.228 -18.228,-18.228 H -172.66 c -10.067,0 -18.228,8.161 -18.228,18.228 v 97.216 c 0,10.067 8.161,18.228 18.228,18.228 H -18.228 C -8.161,115.444 0,107.283 0,97.216 Z"
         style="fill:#ffb626;fill-opacity:1;fill-rule:nonzero;stroke:none"
         id="path140"
         inkscape:connector-curvature="0" /></g><g
       id="g142"
       transform="matrix(2.9205742,0,0,2.9205742,506.11946,477.30387)"><path
         d="m 0,0 c 0.084,9.469 -1.693,18.406 -6.757,26.491 -0.18,0.286 -0.377,0.534 -0.588,0.752 -0.02,0.025 -0.031,0.051 -0.052,0.076 -10.825,12.881 -26.144,14.45 -42.009,14.502 -11.065,0.037 -22.13,-0.048 -33.195,0.021 -10.07,0.063 -19.453,-0.011 -28.851,-3.989 -15.497,-6.56 -19.495,-24.741 -19.683,-39.775 -0.231,-18.389 -2.999,-37.395 5.735,-54.389 7.336,-14.274 23.95,-16.757 38.361,-17.021 10.697,-0.196 21.41,0.011 32.108,-0.01 10.405,-0.019 21.075,-1.153 31.156,1.974 15.638,4.852 22.291,21.148 23.542,36.023 C 0.747,-23.697 -0.103,-11.69 0,0"
         style="fill:#c17d05;fill-opacity:1;fill-rule:nonzero;stroke:none"
         id="path144"
         inkscape:connector-curvature="0" /></g><g
       id="g146"
       transform="matrix(2.9205742,0,0,2.9205742,476.07083,548.5212)"><path
         d="m 0,0 c -0.121,0.176 -0.258,0.316 -0.391,0.465 -0.083,0.121 -0.149,0.245 -0.248,0.363 -10.678,12.697 -25.548,12.477 -40.898,12.477 -10.258,0 -20.517,-0.056 -30.775,0.021 -8.893,0.066 -18.536,0.547 -26.787,-3.431 -14.302,-6.896 -17.658,-21.578 -17.658,-36.244 0,-16.833 -3.374,-36.993 5.177,-52.325 8.594,-15.409 25.867,-15.014 41.175,-15.014 10.734,0 21.47,0.05 32.203,-0.019 8.423,-0.055 18.22,-1.023 26.027,2.889 14.061,7.045 18.288,20.945 18.288,35.658 0,10.245 -0.016,20.489 0.086,30.733 C 6.286,-15.667 5.027,-7.34 0,0"
         style="fill:#140212;fill-opacity:1;fill-rule:nonzero;stroke:none"
         id="path148"
         inkscape:connector-curvature="0" /></g><g
       id="g150"
       transform="matrix(2.9205742,0,0,2.9205742,470.03634,368.21167)"><path
         d="m 0,0 c 0,-13.153 -10.663,-23.816 -23.816,-23.816 h -58.879 c -13.154,0 -23.816,10.663 -23.816,23.816 v 43.001 c 0,13.154 10.662,23.817 23.816,23.817 h 58.879 C -10.663,66.818 0,56.155 0,43.001 Z"
         style="fill:#ddfff4;fill-opacity:1;fill-rule:nonzero;stroke:none"
         id="path152"
         inkscape:connector-curvature="0" /></g><g
       id="g154"
       transform="matrix(2.9205742,0,0,2.9205742,621.83027,287.47679)"><path
         d="m 0,0 c 0,-4.728 -3.833,-8.561 -8.561,-8.561 h -14.804 c -4.729,0 -8.562,3.833 -8.562,8.561 v 98.289 c 0,4.728 3.833,8.561 8.562,8.561 H -8.561 C -3.833,106.85 0,103.017 0,98.289 Z"
         style="fill:#140212;fill-opacity:1;fill-rule:nonzero;stroke:none"
         id="path156"
         inkscape:connector-curvature="0" /></g><g
       id="g158"
       transform="matrix(2.9205742,0,0,2.9205742,603.27761,326.90513)"><path
         d="m 0,0 c 0,-5.308 -4.303,-9.611 -9.611,-9.611 -5.308,0 -9.611,4.303 -9.611,9.611 0,5.308 4.303,9.611 9.611,9.611 C -4.303,9.611 0,5.308 0,0"
         style="fill:#c71b1b;fill-opacity:1;fill-rule:nonzero;stroke:none"
         id="path160"
         inkscape:connector-curvature="0" /></g><path
       d="m 576.99916,358.35736 h -3.58355 v 9.15601 h 3.58355 z"
       style="fill:#ddfff4;fill-opacity:1;fill-rule:nonzero;stroke:none;stroke-width:2.92057395"
       id="path162"
       inkscape:connector-curvature="0" /><path
       d="m 576.99916,286.29512 h -3.58355 v 9.156 h 3.58355 z"
       style="fill:#ddfff4;fill-opacity:1;fill-rule:nonzero;stroke:none;stroke-width:2.92057395"
       id="path164"
       inkscape:connector-curvature="0" /><path
       d="m 606.66051,328.69602 h 9.15601 v -3.58354 h -9.15601 z"
       style="fill:#ddfff4;fill-opacity:1;fill-rule:nonzero;stroke:none;stroke-width:2.92057395"
       id="path166"
       inkscape:connector-curvature="0" /><path
       d="m 534.59827,328.69602 h 9.156 v -3.58354 h -9.156 z"
       style="fill:#ddfff4;fill-opacity:1;fill-rule:nonzero;stroke:none;stroke-width:2.92057395"
       id="path168"
       inkscape:connector-curvature="0" /><g
       id="g170"
       transform="matrix(2.9205742,0,0,2.9205742,598.71625,347.87893)"><path
         d="M 0,0 -0.868,0.868 1.35,3.085 2.217,2.217 Z"
         style="fill:#ddfff4;fill-opacity:1;fill-rule:nonzero;stroke:none"
         id="path172"
         inkscape:connector-curvature="0" /></g><g
       id="g174"
       transform="matrix(2.9205742,0,0,2.9205742,547.75925,296.92193)"><path
         d="M 0,0 -0.868,0.868 1.35,3.085 2.217,2.217 Z"
         style="fill:#ddfff4;fill-opacity:1;fill-rule:nonzero;stroke:none"
         id="path176"
         inkscape:connector-curvature="0" /></g><g
       id="g178"
       transform="matrix(2.9205742,0,0,2.9205742,596.18236,303.39713)"><path
         d="M 0,0 0.868,0.868 3.085,-1.35 2.217,-2.217 Z"
         style="fill:#ddfff4;fill-opacity:1;fill-rule:nonzero;stroke:none"
         id="path180"
         inkscape:connector-curvature="0" /></g><g
       id="g182"
       transform="matrix(2.9205742,0,0,2.9205742,545.22536,354.35443)"><path
         d="M 0,0 0.868,0.868 3.085,-1.35 2.217,-2.217 Z"
         style="fill:#ddfff4;fill-opacity:1;fill-rule:nonzero;stroke:none"
         id="path184"
         inkscape:connector-curvature="0" /></g><g
       id="g186"
       transform="matrix(2.9205742,0,0,2.9205742,592.54274,396.45129)"><path
         d="m 0,0 c 0,-1.748 -1.417,-3.165 -3.165,-3.165 h -5.54 c -1.748,0 -3.166,1.417 -3.166,3.165 0,1.748 1.418,3.165 3.166,3.165 h 5.54 C -1.417,3.165 0,1.748 0,0"
         style="fill:#ffb626;fill-opacity:1;fill-rule:nonzero;stroke:none"
         id="path188"
         inkscape:connector-curvature="0" /></g><g
       id="g190"
       transform="matrix(2.9205742,0,0,2.9205742,592.54274,427.21983)"><path
         d="m 0,0 c 0,-1.748 -1.417,-3.165 -3.165,-3.165 h -5.54 c -1.748,0 -3.166,1.417 -3.166,3.165 0,1.748 1.418,3.165 3.166,3.165 h 5.54 C -1.417,3.165 0,1.748 0,0"
         style="fill:#ffb626;fill-opacity:1;fill-rule:nonzero;stroke:none"
         id="path192"
         inkscape:connector-curvature="0" /></g><g
       id="g194"
       transform="matrix(2.9205742,0,0,2.9205742,592.54274,457.98837)"><path
         d="m 0,0 c 0,-1.748 -1.417,-3.165 -3.165,-3.165 h -5.54 c -1.748,0 -3.166,1.417 -3.166,3.165 0,1.748 1.418,3.165 3.166,3.165 h 5.54 C -1.417,3.165 0,1.748 0,0"
         style="fill:#ffb626;fill-opacity:1;fill-rule:nonzero;stroke:none"
         id="path196"
         inkscape:connector-curvature="0" /></g><g
       id="g198"
       transform="matrix(2.9205742,0,0,2.9205742,592.41425,590.18552)"><path
         d="m 0,0 h -11.783 c -3.763,0 -6.813,-3.051 -6.813,-6.814 V -32.258 H 6.814 V -6.814 C 6.814,-3.051 3.763,0 0,0"
         style="fill:#c17d05;fill-opacity:1;fill-rule:nonzero;stroke:none"
         id="path200"
         inkscape:connector-curvature="0" /></g><g
       id="g202"
       transform="matrix(2.9205742,0,0,2.9205742,603.75922,577.83937)"><path
         d="m 0,0 c 0,-0.191 -0.129,-0.347 -0.289,-0.347 h -18.974 c -0.159,0 -0.289,0.156 -0.289,0.347 0,0.191 0.13,0.347 0.289,0.347 H -0.289 C -0.129,0.347 0,0.191 0,0"
         style="fill:#140212;fill-opacity:1;fill-rule:nonzero;stroke:none"
         id="path204"
         inkscape:connector-curvature="0" /></g><g
       id="g206"
       transform="matrix(2.9205742,0,0,2.9205742,603.75922,567.54903)"><path
         d="m 0,0 c 0,-0.191 -0.129,-0.347 -0.289,-0.347 h -18.974 c -0.159,0 -0.289,0.156 -0.289,0.347 0,0.191 0.13,0.347 0.289,0.347 H -0.289 C -0.129,0.347 0,0.191 0,0"
         style="fill:#140212;fill-opacity:1;fill-rule:nonzero;stroke:none"
         id="path208"
         inkscape:connector-curvature="0" /></g><g
       id="g210"
       transform="matrix(2.9205742,0,0,2.9205742,603.75922,557.25898)"><path
         d="m 0,0 c 0,-0.191 -0.129,-0.347 -0.289,-0.347 h -18.974 c -0.159,0 -0.289,0.156 -0.289,0.347 0,0.191 0.13,0.347 0.289,0.347 H -0.289 C -0.129,0.347 0,0.191 0,0"
         style="fill:#140212;fill-opacity:1;fill-rule:nonzero;stroke:none"
         id="path212"
         inkscape:connector-curvature="0" /></g><g
       id="g214"
       transform="matrix(2.9205742,0,0,2.9205742,603.75922,546.96891)"><path
         d="m 0,0 c 0,-0.191 -0.129,-0.347 -0.289,-0.347 h -18.974 c -0.159,0 -0.289,0.156 -0.289,0.347 0,0.191 0.13,0.347 0.289,0.347 H -0.289 C -0.129,0.347 0,0.191 0,0"
         style="fill:#140212;fill-opacity:1;fill-rule:nonzero;stroke:none"
         id="path216"
         inkscape:connector-curvature="0" /></g><g
       id="g218"
       transform="matrix(2.9205742,0,0,2.9205742,603.75922,536.67885)"><path
         d="m 0,0 c 0,-0.191 -0.129,-0.347 -0.289,-0.347 h -18.974 c -0.159,0 -0.289,0.156 -0.289,0.347 0,0.191 0.13,0.347 0.289,0.347 H -0.289 C -0.129,0.347 0,0.191 0,0"
         style="fill:#140212;fill-opacity:1;fill-rule:nonzero;stroke:none"
         id="path220"
         inkscape:connector-curvature="0" /></g><g
       id="g222"
       transform="matrix(2.9205742,0,0,2.9205742,603.75922,526.38881)"><path
         d="m 0,0 c 0,-0.191 -0.129,-0.347 -0.289,-0.347 h -18.974 c -0.159,0 -0.289,0.156 -0.289,0.347 0,0.191 0.13,0.347 0.289,0.347 H -0.289 C -0.129,0.347 0,0.191 0,0"
         style="fill:#140212;fill-opacity:1;fill-rule:nonzero;stroke:none"
         id="path224"
         inkscape:connector-curvature="0" /></g><g
       id="g226"
       transform="matrix(2.9205742,0,0,2.9205742,603.75922,516.09874)"><path
         d="m 0,0 c 0,-0.191 -0.129,-0.347 -0.289,-0.347 h -18.974 c -0.159,0 -0.289,0.156 -0.289,0.347 0,0.191 0.13,0.347 0.289,0.347 H -0.289 C -0.129,0.347 0,0.191 0,0"
         style="fill:#140212;fill-opacity:1;fill-rule:nonzero;stroke:none"
         id="path228"
         inkscape:connector-curvature="0" /></g><g
       id="g230"
       transform="matrix(2.9205742,0,0,2.9205742,603.75922,505.80839)"><path
         d="m 0,0 c 0,-0.191 -0.129,-0.347 -0.289,-0.347 h -18.974 c -0.159,0 -0.289,0.156 -0.289,0.347 0,0.191 0.13,0.347 0.289,0.347 H -0.289 C -0.129,0.347 0,0.191 0,0"
         style="fill:#140212;fill-opacity:1;fill-rule:nonzero;stroke:none"
         id="path232"
         inkscape:connector-curvature="0" /></g><g
       id="g234"
       transform="matrix(2.9205742,0,0,2.9205742,185.42056,235.80599)"><path
         d="M 0,0 C -3.376,-12.152 -3.365,-21.476 -0.654,-22.62 2.55,-23.972 11.309,-14.656 18.501,0 Z"
         style="fill:#c17d05;fill-opacity:1;fill-rule:nonzero;stroke:none"
         id="path236"
         inkscape:connector-curvature="0" /></g><g
       id="g238"
       transform="matrix(2.9205742,0,0,2.9205742,561.27683,235.80599)"><path
         d="M 0,0 C 3.376,-12.152 3.365,-21.476 0.654,-22.62 -2.55,-23.972 -11.309,-14.656 -18.501,0 Z"
         style="fill:#c17d05;fill-opacity:1;fill-rule:nonzero;stroke:none"
         id="path240"
         inkscape:connector-curvature="0" /></g><path
       d="m 503.51342,307.45819 h -11.10401 v 81.98927 h 11.10401 z"
       style="fill:#140212;fill-opacity:1;fill-rule:nonzero;stroke:none;stroke-width:2.92057395"
       id="path776"
       inkscape:connector-curvature="0" /><g
       id="g778"
       transform="matrix(2.9205742,0,0,2.9205742,559.4544,291.63568)"><path
         d="m 0,0 c 0,-5.426 -4.399,-9.825 -9.825,-9.825 h -22.459 c -5.427,0 -9.825,4.399 -9.825,9.825 0,5.426 4.398,9.825 9.825,9.825 H -9.825 C -4.399,9.825 0,5.426 0,0"
         style="fill:#140212;fill-opacity:1;fill-rule:nonzero;stroke:none"
         id="path780"
         inkscape:connector-curvature="0" /></g><g
       id="g782"
       transform="matrix(2.9205742,0,0,2.9205742,743.92954,91.676538)"><path
         d="M 0,0 C 0,-5.814 -4.713,-10.527 -10.527,-10.527 H -157.91 c -5.814,0 -10.527,4.713 -10.527,10.527 v 60.971 c 0,5.814 4.713,10.527 10.527,10.527 H -10.527 C -4.713,71.498 0,66.785 0,60.971 Z"
         style="fill:#c71b1b;fill-opacity:1;fill-rule:nonzero;stroke:none"
         id="path784"
         inkscape:connector-curvature="0" /></g><g
       id="g786"
       transform="matrix(2.9205742,0,0,2.9205742,416.03757,204.01145)"><path
         d="M 0,0 H -14.49 V 14.49 H -30.446 V 0 h -14.49 v -15.956 h 14.49 v -14.49 h 15.956 v 14.49 H 0 Z"
         style="fill:#017467;fill-opacity:1;fill-rule:nonzero;stroke:none"
         id="path788"
         inkscape:connector-curvature="0" /></g><g
       id="g790"
       transform="matrix(2.9205742,0,0,2.9205742,361.23358,120.08408)"><path
         d="M 0,0 H -7.407 V 6.152 L -3.703,9.497 0,6.152 Z"
         style="fill:#140212;fill-opacity:1;fill-rule:nonzero;stroke:none"
         id="path792"
         inkscape:connector-curvature="0" /></g><g
       id="g794"
       transform="matrix(2.9205742,0,0,2.9205742,339.60147,241.33873)"><path
         d="M 0,0 H 7.407 V -6.152 L 3.703,-9.497 0,-6.152 Z"
         style="fill:#140212;fill-opacity:1;fill-rule:nonzero;stroke:none"
         id="path796"
         inkscape:connector-curvature="0" /></g><g
       id="g798"
       transform="matrix(2.9205742,0,0,2.9205742,289.79019,169.89534)"><path
         d="M 0,0 V 7.407 H 6.152 L 9.497,3.703 6.152,0 Z"
         style="fill:#140212;fill-opacity:1;fill-rule:nonzero;stroke:none"
         id="path800"
         inkscape:connector-curvature="0" /></g><g
       id="g802"
       transform="matrix(2.9205742,0,0,2.9205742,411.04484,191.52774)"><path
         d="M 0,0 V -7.407 H -6.152 L -9.497,-3.703 -6.152,0 Z"
         style="fill:#140212;fill-opacity:1;fill-rule:nonzero;stroke:none"
         id="path804"
         inkscape:connector-curvature="0" /></g><g
       id="g806"
       transform="matrix(2.9205742,0,0,2.9205742,667.18882,224.65057)"><path
         d="m 0,0 c 0,-4.226 -3.426,-7.652 -7.652,-7.652 -4.226,0 -7.652,3.426 -7.652,7.652 0,4.226 3.426,7.652 7.652,7.652 C -3.426,7.652 0,4.226 0,0"
         style="fill:#ffb626;fill-opacity:1;fill-rule:nonzero;stroke:none"
         id="path808"
         inkscape:connector-curvature="0" /></g><g
       id="g810"
       transform="matrix(2.9205742,0,0,2.9205742,667.18882,136.77253)"><path
         d="m 0,0 c 0,-4.226 -3.426,-7.652 -7.652,-7.652 -4.226,0 -7.652,3.426 -7.652,7.652 0,4.226 3.426,7.652 7.652,7.652 C -3.426,7.652 0,4.226 0,0"
         style="fill:#ffb626;fill-opacity:1;fill-rule:nonzero;stroke:none"
         id="path812"
         inkscape:connector-curvature="0" /></g><g
       id="g814"
       transform="matrix(2.9205742,0,0,2.9205742,688.77887,158.36259)"><path
         d="m 0,0 c -4.226,0 -7.652,3.426 -7.652,7.652 0,4.226 3.426,7.652 7.652,7.652 4.226,0 7.652,-3.426 7.652,-7.652 C 7.652,3.426 4.226,0 0,0"
         style="fill:#ffb626;fill-opacity:1;fill-rule:nonzero;stroke:none"
         id="path816"
         inkscape:connector-curvature="0" /></g><g
       id="g818"
       transform="matrix(2.9205742,0,0,2.9205742,600.90085,158.36259)"><path
         d="m 0,0 c -4.226,0 -7.652,3.426 -7.652,7.652 0,4.226 3.426,7.652 7.652,7.652 4.226,0 7.652,-3.426 7.652,-7.652 C 7.652,3.426 4.226,0 0,0"
         style="fill:#ffb626;fill-opacity:1;fill-rule:nonzero;stroke:none"
         id="path820"
         inkscape:connector-curvature="0" /></g><g
       id="g822"
       transform="matrix(2.9205742,0,0,2.9205742,486.00576,103.76684)"><path
         d="m 0,0 c 0,-1.373 -1.113,-2.486 -2.486,-2.486 h -7.31 c -1.373,0 -2.486,1.113 -2.486,2.486 0,1.373 1.113,2.486 2.486,2.486 h 7.31 C -1.113,2.486 0,1.373 0,0"
         style="fill:#140212;fill-opacity:1;fill-rule:nonzero;stroke:none"
         id="path824"
         inkscape:connector-curvature="0" /></g><g
       id="g826"
       transform="matrix(2.9205742,0,0,2.9205742,545.78962,103.76684)"><path
         d="m 0,0 c 0,-1.373 -1.113,-2.486 -2.486,-2.486 h -7.31 c -1.373,0 -2.486,1.113 -2.486,2.486 0,1.373 1.113,2.486 2.486,2.486 h 7.31 C -1.113,2.486 0,1.373 0,0"
         style="fill:#140212;fill-opacity:1;fill-rule:nonzero;stroke:none"
         id="path828"
         inkscape:connector-curvature="0" /></g><g
       id="g830"
       transform="matrix(2.9205742,0,0,2.9205742,561.27683,235.80599)"><path
         d="m 0,0 c 0,-5.131 -9.706,-9.291 -21.679,-9.291 -11.973,0 -21.678,4.16 -21.678,9.291 0,5.131 9.705,9.291 21.678,9.291 C -9.706,9.291 0,5.131 0,0"
         style="fill:#ddfff4;fill-opacity:1;fill-rule:nonzero;stroke:none"
         id="path832"
         inkscape:connector-curvature="0" /></g></g></svg>